<?xml version="1.0" encoding="utf-8" ?><svg xmlns="http://www.w3.org/2000/svg" xmlns:xlink="http://www.w3.org/1999/xlink" width="562" height="557" viewBox="0 0 562 557"><path fill="#2F303C" d="M247.084 557C244.533 556.162 240.406 555.722 237.691 555.345C234.115 554.869 230.553 554.292 227.01 553.613C215.331 551.346 203.807 548.339 192.51 544.61C124.923 522.128 68.5147 474.618 34.8735 411.842C-0.322325 345.764 -7.52203 268.326 14.8888 196.893C17.563 188.072 21.251 178.93 24.9001 170.469C50.0013 112.591 93.9899 64.935 149.68 35.2858C206.051 5.48884 270.922 -4.12367 333.513 8.04562C353.536 11.9366 374.768 18.839 393.389 27.1027C449.285 52.0222 495.342 94.7661 524.355 148.647C559.671 214.232 567.305 291.211 545.56 362.455C528.805 417.273 495.388 465.511 449.952 500.465C414.254 528.244 370.531 547.756 325.62 554.876C323.284 555.246 313.843 555.977 312.235 557L247.084 557ZM287.717 551.519C437.271 547.275 555.074 422.621 550.85 273.082C546.626 123.543 421.975 5.73603 272.419 9.93891C122.835 14.1426 4.98679 138.81 9.21148 288.378C13.4362 437.946 138.133 555.764 287.717 551.519Z"/><path fill="#2F303C" d="M271.685 75.3051C385.229 70.7223 480.971 159.084 485.479 272.618C489.987 386.153 401.553 481.826 288.003 486.258C174.559 490.687 78.9849 402.363 74.481 288.934C69.9771 175.506 158.247 79.8836 271.685 75.3051ZM287.173 478.967C396.682 475.01 482.237 383.017 478.241 273.522C474.246 164.026 382.214 78.5119 272.708 82.5443C163.255 86.5747 77.782 178.542 81.7754 287.985C85.7688 397.427 177.717 482.922 287.173 478.967Z"/><path fill="#2F303C" d="M275.374 100.085C375.167 97.5254 458.144 176.331 460.721 276.113C463.297 375.895 384.496 458.876 284.704 461.468C184.889 464.061 101.875 385.247 99.2978 285.442C96.721 185.637 175.558 102.645 275.374 100.085Z"/><path fill="#FDFDFD" d="M180.35 187.811C190.118 187.822 198.563 188.207 208.155 191.234C222.312 195.701 230.53 209.038 225.485 223.527C222.872 231.031 216.537 235.263 209.47 238.446C217.723 241.713 224.056 245.294 228.034 253.764C231.129 260.359 231.46 267.916 228.953 274.756C225.999 282.841 220.101 288.454 212.418 292.034C193.849 299.727 170.663 298.061 151.018 296.149C150.624 284.64 150.955 271.18 150.956 259.506L150.965 189.959C160.719 188.767 170.526 188.05 180.35 187.811Z"/><path fill="#2F303C" d="M175.115 249.054C183.312 248.972 194.661 248.475 201.033 254.381C206.931 259.848 205.755 269.304 200.43 274.732C192.788 280.571 184.237 279.511 175.183 279.27C174.974 269.397 175.129 258.972 175.115 249.054Z"/><path fill="#2F303C" d="M179.406 205.904C183.414 205.469 186.785 205.685 190.754 206.213C203.438 207.902 207.084 221.649 195.766 228.891C188.964 232.143 182.441 231.623 175.126 231.599L175.129 206.325C176.486 206.131 178.028 206.028 179.406 205.904Z"/><path fill="#FDFDFD" d="M271.052 188.072C273.64 187.794 278.546 187.85 281.248 187.932C293.573 188.293 306.935 189.942 315.876 199.419C327.863 212.172 326.884 236.327 313.829 248.016C301.996 258.61 286.082 259.207 271.167 258.458L271.172 266.421C271.212 276.46 271.196 286.498 271.124 296.537L247.242 296.519L247.25 189.934C255.168 189.123 263.104 188.503 271.052 188.072Z"/><path fill="#2F303C" d="M280.609 206.462C293.729 205.967 302.986 214.03 299.274 227.906C298.051 232.476 293.755 236.24 289.601 238.297C283.661 240.51 277.415 240.11 271.225 239.765C270.931 229.032 271.121 217.913 271.19 207.152C274.45 206.814 277.336 206.627 280.609 206.462Z"/><path fill="#FDFDFD" d="M339.426 189.006C360.985 188.791 383.537 188.771 405.09 189.011C405.128 195.691 405.115 202.372 405.053 209.052L363.927 209.073L363.966 233.48C376.816 233.241 389.669 233.248 402.519 233.502C402.532 236.438 402.942 251.426 401.921 253.117L400.988 253.266L363.957 253.276C363.863 267.694 363.843 282.114 363.897 296.533L339.377 296.522C339.061 282.07 339.299 267.157 339.322 252.673L339.426 189.006Z"/><path fill="#FDFDFD" d="M404.575 361.124C406.905 360.752 409.953 361.452 411.925 362.647C420.318 367.736 419.914 383.373 410.952 387.707C409.684 388.32 408.453 388.611 407.104 388.932C391.113 390.209 387.992 365.022 404.575 361.124Z"/><path fill="#2F303C" d="M405.014 363.923C416.639 364.482 417.72 382.276 407.008 386.16C394.475 386.021 393.991 366.396 405.014 363.923Z"/><path fill="#FDFDFD" d="M183.015 317.76C199.051 316.564 202.726 340.611 186.218 345.513C171.037 347.59 165.993 322.554 183.015 317.76Z"/><path fill="#2F303C" d="M183.199 320.525C187.18 320.348 190.741 322.142 192.076 325.961C194.364 332.504 193.207 339.924 186.242 342.67C174.961 343.087 173.339 328.656 180.053 322.192C180.759 321.512 182.257 320.926 183.199 320.525Z"/><path fill="#FDFDFD" d="M154.367 361.756C155.956 361.688 157.545 361.634 159.134 361.596C170.765 361.364 177.416 368.216 173.482 380.252C172.813 382.298 171.302 383.91 169.766 385.386C164.733 389.065 158.214 388.526 152.315 388.269L152.286 371.813C152.281 369.014 152.139 364.926 152.422 362.293C153.114 361.735 153.325 361.89 154.367 361.756Z"/><path fill="#2F303C" d="M156.112 364.427C160.187 364.155 164.031 364.057 167.479 366.737C169.582 368.345 170.902 370.771 171.11 373.409C171.41 377.008 170.019 380.158 167.799 382.889C164.109 385.906 160.528 385.617 156.058 385.489C155.624 378.475 155.642 371.44 156.112 364.427Z"/><path fill="#FDFDFD" d="M249.833 361.756C254.106 361.62 260.4 360.835 262.985 365.08C263.825 366.446 264.032 368.109 263.554 369.64C262.884 371.826 261.644 372.663 259.757 373.672C265.044 377.131 266.55 379.642 263.391 385.437C259.084 389.324 253.443 388.539 248.029 388.265C247.904 381.793 247.434 369.332 248.121 362.511C248.179 361.937 249.131 361.909 249.833 361.756Z"/><path fill="#2F303C" d="M251.628 375.493C257.18 375.42 265.472 377.532 259.725 384.273C257.017 385.81 254.61 385.745 251.593 385.778C251.498 382.455 251.366 378.791 251.628 375.493Z"/><path fill="#2F303C" d="M251.577 364.339C256.262 364.325 264.384 365.536 258.728 371.787C256.063 372.934 254.364 372.839 251.496 372.876L251.577 364.339Z"/><path fill="#FDFDFD" d="M158.093 318.136C160.768 317.754 165.051 318.722 166.73 320.899C169.858 324.955 167.393 327.948 164.197 330.518C169.934 333.794 171.561 338.031 166.518 343.177C162.308 345.523 157.071 345.036 152.341 344.962C152.276 336.172 152.267 327.381 152.315 318.59L158.093 318.136Z"/><path fill="#2F303C" d="M155.954 331.997C161.492 332.021 169.25 333.803 164.325 340.799C161.525 342.462 159.202 342.398 156.075 342.413C155.897 338.95 155.946 335.466 155.954 331.997Z"/><path fill="#2F303C" d="M156.03 321.014C160.572 320.957 168.093 321.765 163.437 328.123C160.933 329.609 158.799 329.512 156.014 329.512C155.926 326.584 155.967 323.934 156.03 321.014Z"/><path fill="#FDFDFD" d="M281.162 318.132C287.247 317.097 290.284 320.041 292.18 325.434C291.005 329.36 290.322 330.223 286.86 332.146C291.028 335.002 291.555 340.314 292.742 345.12L289.009 345.041L287.296 338.201C285.665 333.213 283.838 333.285 279.04 333.24C278.765 337.173 278.869 341.233 278.907 345.18L275.245 345.027L275.254 318.59L281.162 318.132Z"/><path fill="#2F303C" d="M279.025 321.021C284.592 320.937 291.837 322.23 286.807 329.274C284.499 330.946 281.667 330.638 278.92 330.621C278.845 327.402 278.946 324.238 279.025 321.021Z"/><path fill="#FDFDFD" d="M276.269 361.488C279.442 361.387 282.781 362.104 284.834 364.744C285.885 366.079 286.338 367.79 286.084 369.471C285.63 372.467 283.695 373.907 281.437 375.471C285.566 379.336 285.857 383.186 286.996 388.558L283.283 388.531C282.638 385.629 282.072 383.044 281.227 380.188C279.578 376.382 276.677 376.529 273.108 376.658L273.193 388.513L269.729 388.52C269.724 380.763 269.329 369.527 269.81 362.049C271.622 361.685 274.35 361.603 276.269 361.488Z"/><path fill="#2F303C" d="M273.311 364.422C278.983 364.115 286.142 365.826 281.131 372.751C278.676 374.154 275.857 373.979 273.11 373.978C273.054 370.665 273.009 367.734 273.311 364.422Z"/><path fill="#FDFDFD" d="M259.918 318.133C266.992 318.306 273.02 322.739 268.924 330.737C267.197 334.109 260.787 333.964 257.18 334.564L257.136 337.424L257.167 345.173L253.686 345.03L253.715 318.589L259.918 318.133Z"/><path fill="#2F303C" d="M257.182 321.015C263.229 321.102 270.629 322.942 264.943 330.178C262.502 331.747 260.018 331.618 257.216 331.686C257.165 328.129 257.153 324.572 257.182 321.015Z"/><path fill="#FDFDFD" d="M230.682 361.552C232.118 361.615 233.612 361.568 235.054 361.55L244.214 388.553L240.331 388.549C239.816 386.346 238.823 381.98 237.367 380.196C236.881 379.601 236.049 379.797 235.241 379.816C232.837 379.904 230.43 379.908 228.025 379.829C227.132 382.762 226.224 385.69 225.299 388.614C224.13 388.55 222.89 388.552 221.714 388.532C223.548 381.023 228.134 369.57 230.682 361.552Z"/><path fill="#2F303C" d="M232.515 365.394C233.7 366.502 236.063 374.504 236.842 376.762L233.879 376.966L228.884 376.962C230.209 373.053 231.488 369.391 232.515 365.394Z"/><path fill="#FDFDFD" d="M208.105 317.97C209.359 317.928 210.959 317.971 212.238 317.974C215.601 326.759 218.36 336.034 221.502 344.954C220.265 345.117 219.002 345.147 217.753 345.205C217.022 342.821 215.993 338.585 214.542 336.623C214.3 336.295 213.404 336.38 212.865 336.354L205.2 336.381C204.389 339.337 203.498 342.27 202.527 345.178C201.304 345.177 199.944 345.107 198.709 345.072C202.147 336.411 205.156 326.869 208.105 317.97Z"/><path fill="#2F303C" d="M210.035 321.484C210.212 321.641 213.679 332.301 214.19 333.731L210.825 333.752L206.191 333.702C207.352 329.718 208.788 325.479 210.035 321.484Z"/><path fill="#FDFDFD" d="M378.028 317.963L382.189 317.96C385.282 326.884 388.281 336.172 391.582 344.974C390.295 345.013 388.949 345.008 387.656 345.023C386.917 342.618 386.187 339.186 384.826 337.028C384.354 336.28 383.678 336.425 382.776 336.356L375.273 336.379C374.384 339.325 373.454 342.258 372.482 345.177L368.966 345.038C371.379 336.342 375.201 326.695 378.028 317.963Z"/><path fill="#2F303C" d="M379.812 322.018C380.581 322.615 383.515 332.043 384.078 333.739L380.603 333.75L376.099 333.71C377.409 329.836 378.647 325.938 379.812 322.018Z"/><path fill="#FDFDFD" d="M304.337 318.02C305.64 317.981 306.943 317.951 308.247 317.929C309.439 320.536 310.767 324.895 311.718 327.723C313.633 333.493 315.591 339.249 317.592 344.99L313.815 345.206C313.258 342.883 312.211 338.961 310.868 336.998C310.378 336.282 309.86 336.414 309.034 336.35L301.41 336.382L298.638 345.202L295.099 345.024C296.979 338.29 301.725 324.597 304.337 318.02Z"/><path fill="#2F303C" d="M306.11 322.002C307.087 322.729 309.662 331.867 310.286 333.725L306.538 333.752L302.231 333.691C303.485 329.782 304.778 325.886 306.11 322.002Z"/><path fill="#FDFDFD" d="M330.925 361.537C332.349 361.599 333.933 361.564 335.37 361.564C338.079 370.39 341.422 379.724 344.406 388.529L340.787 388.58C339.87 386.043 339.124 382.709 337.755 380.363C337.32 379.616 336.561 379.797 335.677 379.77C333.187 379.883 330.693 379.9 328.202 379.821C327.383 382.757 326.402 385.669 325.46 388.569L321.913 388.436C324.358 379.579 328.252 370.437 330.925 361.537Z"/><path fill="#2F303C" d="M332.889 365.611C333.655 366.267 336.247 374.791 337.174 376.941L333.619 376.986L329.126 376.934L332.889 365.611Z"/><path fill="#FDFDFD" d="M378.48 361.74L382.853 361.564C385.527 371.119 388.969 379.289 391.994 388.551L388.184 388.538C387.637 386.32 386.857 381.998 385.246 380.324C384.628 379.681 384.006 379.818 383.151 379.792L375.585 379.936C374.815 382.91 373.843 385.828 372.908 388.756C371.734 388.613 370.614 388.568 369.436 388.504C370.745 383.585 372.698 378.175 374.37 373.336C375.65 369.631 377.03 365.298 378.48 361.74Z"/><path fill="#2F303C" d="M380.353 365.102C381.026 365.856 383.873 375 384.648 376.912L380.9 376.99L376.339 376.921C378.029 373.421 379.267 368.878 380.353 365.102Z"/><path fill="#FDFDFD" d="M181.507 361.51C182.884 361.485 192.828 361.084 193.44 361.927C196.446 366.063 184.582 364.7 182.832 364.643L182.77 372.855C185.126 372.807 191.668 371.992 193.096 373.964C193.202 374.967 193.282 374.508 192.889 375.4C191.369 376.285 185.299 375.614 182.822 375.995C182.778 378.15 182.807 380.397 182.802 382.56L182.832 385.468C185.36 385.373 192.308 384.585 194.064 386.298C194.398 387.374 194.364 386.827 194.055 388C192.494 389.324 181.783 388.586 179.078 388.499L179.065 361.622L181.507 361.51Z"/><path fill="#FDFDFD" d="M358.705 361.175C360.747 361.103 362.792 361.235 364.809 361.567C366.086 361.778 367.31 362.364 366.779 363.862C363.558 365.941 347.928 360.103 350.554 378.454C352.137 389.511 366.487 383.518 367.069 386.806C365.735 389.893 361.516 387.66 359.375 389.972L359.44 390.449L360.094 390.864C364.797 395.32 356.878 399.038 355.018 395.508C355.862 394.509 357.485 394.941 358.829 393.843L358.79 393.28C357.98 392.273 357.102 392.043 355.897 391.52L358.164 389.131C356.101 388.66 354.438 388.255 352.576 387.136C345.823 383.093 344.886 373.076 349.038 366.857C351.465 363.223 354.651 362.018 358.705 361.175Z"/><path fill="#FDFDFD" d="M359.564 317.565C361.781 317.588 364.56 317.492 366.101 319.342C366.393 320.276 366.371 320.209 366.076 321.15C365.936 321.264 365.797 321.379 365.657 321.493C360.654 320.486 355.694 319.9 351.956 324.547C348.641 328.667 348.621 337.377 353.793 340.732C357.807 343.336 361.417 342.641 365.778 341.725L366.177 342.185C366.254 342.796 366.385 343.6 365.916 344.008C362.215 347.223 354.148 345.575 351.26 343.185C344.554 337.637 344.719 328.506 349.539 322.113C351.866 319.026 355.968 317.944 359.564 317.565Z"/><path fill="#FDFDFD" d="M401.208 317.751C403.232 317.662 407.715 317.455 408.69 319.623C408.541 320.66 408.764 320.247 408.079 320.944C405.242 321.873 401.696 319.015 398.591 322.427C394.707 326.694 402.872 329.387 405.553 331.09C408.744 333.118 409.562 334.377 410.432 337.761C409.111 343.012 407.27 344.51 402.113 345.523C399.841 345.591 396.258 345.659 394.551 344.096C394.114 343.08 394.171 343.08 394.185 341.938C394.298 341.77 394.412 341.602 394.526 341.434C397.608 341.46 400.211 343.421 403.479 342.297C404.473 341.955 405.688 341.205 406.021 340.352C409.163 332.321 396.648 333.49 394.569 327.31C393.989 325.587 394.275 323.187 395.01 321.743C396.236 319.335 398.828 318.433 401.208 317.751Z"/><path fill="#FDFDFD" d="M311.079 361.166C313.648 360.879 317.785 360.554 319.258 363.097C319.256 364.146 319.408 363.685 318.787 364.53C316.005 365.299 313.207 363.937 310.709 364.279C301.785 365.5 300.147 379.505 306.954 384.264C309.89 386.316 313.489 386.096 316.715 385.51C317.617 385.329 317.973 385.169 318.842 385.472C319.369 386.223 319.26 385.814 319.149 386.749C316.696 390.685 308.462 389.061 305.151 387.087C296.163 381.727 297.395 366.214 307.108 362.274C308.536 361.695 309.601 361.468 311.079 361.166Z"/><path fill="#FDFDFD" d="M231.801 317.756C233.989 317.683 238.121 317.363 239.21 319.732C239.199 320.782 239.385 320.366 238.761 321.074C236.017 321.799 232.172 319.054 229.561 321.815C226.001 325.581 230.169 328.154 233.442 329.749C236.199 331.078 240.593 333.561 240.741 337.096C241.006 343.409 236.068 345.023 231.239 345.62C228.433 345.412 226.88 344.941 224.197 344.245L225.084 341.014C227.979 342.085 234.698 344.428 236.49 340.413C239.78 332.567 226.358 333.014 224.854 326.784C223.613 321.642 227.586 319.095 231.801 317.756Z"/><path fill="#FDFDFD" d="M213.889 361.506C216.187 361.439 220.468 360.701 221.628 362.826C221.58 363.677 221.659 363.698 221.164 364.362C219.225 365.072 213.12 364.695 210.781 364.639L210.772 373.486C213.539 373.326 219.601 372.581 221.377 374.882C219.84 376.789 214.435 376.274 212.053 376.235L211.208 376.298C210.348 377.376 210.737 386.593 210.755 388.535L206.968 388.519C206.864 379.597 206.94 370.557 206.945 361.626L213.889 361.506Z"/><path fill="#FDFDFD" d="M324.418 317.872C327.181 317.863 332.287 317.662 334.763 318.379L335.046 318.894C334.549 322.5 329.905 321.374 327.015 321.217C326.853 328.838 327.005 336.399 326.953 344.013C326.947 344.843 326.965 344.65 326.49 345.074L323.308 345.02L323.299 321.231C321.084 321.32 313.669 322.376 315.512 318.172C317.324 317.79 322.215 317.907 324.418 317.872Z"/><path fill="#FDFDFD" d="M291.229 361.612L294.972 361.595L294.967 388.529L291.251 388.52L291.229 361.612Z"/><path fill="#FDFDFD" d="M337.999 318.006L341.455 317.987C341.245 325.887 341.129 337.369 341.528 345.112L337.868 345.138C337.674 336.965 337.59 326.09 337.999 318.006Z"/><path fill="#FDFDFD" d="M385.113 355.196C386.27 356.22 385.768 358.075 384.778 359.055C382.859 359.931 380.937 358.956 378.781 358.312C377.791 359.251 377.347 359.643 376.23 360.418C373.647 354.774 379.607 356.335 382.552 357.157C383.063 357.299 384.614 355.63 385.113 355.196Z"/><path fill="#FDFDFD" d="M307.978 312.004C309.42 311.959 311.09 312.007 312.552 312.018C310.709 313.361 309.507 314.422 307.801 315.957C307.117 316.427 306.179 316.905 305.352 316.798L305.179 316.308C305.793 314.218 306.529 313.56 307.978 312.004Z"/><path fill="#2F303C" d="M84.1641 395.777C87.8521 395.551 89.6445 396.035 93.0348 397.435C98.7405 399.791 106.038 410.097 107.955 415.541C99.6034 420.951 91.5571 426.991 83.1023 432.348C80.8126 433.907 78.0726 435.878 75.6927 437.199C71.8881 433.675 66.5619 426.35 64.9232 421.441C60.3148 407.634 71.3936 397.001 84.1641 395.777ZM76.1127 430.499C78.086 429.127 80.1237 427.663 82.1397 426.369C85.7549 423.929 89.3571 421.469 92.946 418.99C95.193 417.42 99.2308 414.42 101.581 413.282C97.7228 407.106 93.5598 400.644 85.2462 401.271C76.9933 402.023 67.923 408.512 69.1151 417.804C69.6724 422.147 73.2337 427.324 76.1127 430.499Z"/><path fill="#2F303C" d="M488.25 142.346C489.785 142.816 491.319 145.723 492.231 147.065C497.945 155.48 502.722 166.984 494.257 175.447C486.995 182.707 477.104 185.127 467.841 180.27C462.439 176.482 456.939 167.822 454.552 161.776C455.831 160.856 457.497 160.054 458.885 159.27C468.72 153.713 478.24 147.586 488.25 142.346ZM460.848 164.292C463.136 168.535 465.527 173.032 469.743 175.626C473.372 177.697 475.802 178.524 479.877 177.394C488.887 174.894 496.12 168.289 493.091 158.19C492.399 155.882 489.308 150.138 487.68 148.737C484.35 151.006 479.63 153.535 476.066 155.568C471.031 158.44 465.912 161.506 460.848 164.292Z"/><path fill="#2F303C" d="M72.4051 140.217C83.6527 145.739 96.653 152.532 107.839 157.613C107.086 159.186 106.137 160.839 105.291 162.379C101.345 160.892 95.8929 157.99 92.0338 156.054C86.5833 153.319 80.5259 150.366 75.2768 147.319C76.8117 149.272 80.2642 152.803 82.0645 154.83C86.2061 159.547 90.3004 164.306 94.3467 169.105C95.9972 171.065 99.4981 174.547 96.3929 176.753C95.1786 177.615 88.8212 176.018 87.0846 175.68L72.0747 172.784C69.1298 172.164 65.0192 171.004 62.1411 170.114L89.3499 187.949C90.1619 189.35 88.3941 191.666 87.6443 192.9C81.9653 190.227 74.3693 184.066 68.8611 180.643C64.3801 177.858 58.5027 174.011 54.4663 170.728C55.5007 168.71 56.2983 166.658 58.05 165.266C60.0153 164.682 87.384 170.535 90.3353 171.654C85.4926 166.178 80.7271 160.633 76.0403 155.023C74.4217 153.117 70.0298 148.304 69.0452 146.298C68.9942 143.875 70.845 141.975 72.4051 140.217Z"/><path fill="#2F303C" d="M478.741 370.097C480.703 370.937 488.295 376.085 490.534 377.623C497.424 382.356 505.321 387.1 511.981 392.015C511.095 393.95 509.871 395.983 508.804 397.849L489.753 394.425C484.39 393.437 479.957 392.844 474.818 390.96C484.284 399.402 489.802 407.658 497.995 416.898C497.397 418.51 495.777 421.092 494.853 422.664C485.408 418.581 474.432 412.804 464.96 408.215L458.775 405.612C459.417 403.853 459.698 402.502 461.174 401.365C461.439 401.32 461.703 401.275 461.968 401.23C470.192 404.501 483.013 411.577 490.444 415.301C486.508 409.415 479.252 402.115 474.412 396.731C472.567 394.678 470.438 392.604 468.919 390.3C468.569 389.768 468.344 389.337 468.398 388.679C468.472 387.766 469.063 386.748 469.84 386.257C472.343 384.677 499.965 391.464 504.275 392.768C503.069 391.833 501.699 391.032 500.392 390.239C492.189 385.26 484.357 379.563 476.12 374.653C476.757 372.965 477.584 371.482 478.741 370.097Z"/><path fill="#2F303C" d="M236.167 494.281C238.253 494.484 239.904 494.659 241.959 495.033C242.389 499.065 242.696 507.338 244.84 510.318C246.836 513.092 250.968 513.339 254.136 513.789C254.582 508.363 255.48 502.338 256.216 496.926L262.139 497.698C261.782 499.263 261.635 500.793 261.419 502.377C260.434 509.613 259.227 516.869 258.474 524.134C257.691 528.429 257.402 532.677 256.647 537.006C249.252 537.131 237.118 536.681 233.879 528.613C232.821 525.902 232.932 522.875 234.184 520.249C235.797 516.806 238.023 515.499 241.341 514.309C240.787 513.71 239.46 512.294 239.139 511.634C236.81 506.847 237.111 500.002 236.22 494.59L236.167 494.281ZM248.677 531.832L251.477 532.093L253.491 518.073C250.496 517.928 247.73 517.398 244.778 517.567C234.684 521.484 238.559 531.53 248.677 531.832Z"/><path fill="#2F303C" d="M435.513 432.581C437.091 433.238 459.656 458.056 462.693 461.366C457.597 468.028 447.216 478.736 438.721 471.734C436.219 469.672 435.406 468.02 434.636 465.001C434.616 462.647 435.062 461.117 435.592 458.833C428.308 459.229 422.347 454.254 416.772 449.901C418.369 448.46 419.156 447.717 420.961 446.585C430.502 450.934 433.392 458.813 442.897 448.922C439.581 444.991 435.297 440.003 431.701 436.409L435.513 432.581ZM444.372 468.726C446.23 468.617 446.952 468.55 448.771 468.155C451.842 466.65 453.424 464.774 455.858 462.435C453.9 460.528 447.822 452.789 446.09 452.42C440.461 456.862 435.547 464.261 444.372 468.726Z"/><path fill="#2F303C" d="M122.334 89.2665C130.701 90.1667 134.889 97.4296 131.324 105.098C139.576 104.106 143.04 109.939 150.697 113.711C145.875 118.093 145.569 117.883 140.405 113.896C138.356 112.314 135.207 110.013 132.621 109.621C129.39 109.132 126.088 112.623 123.631 114.579L128.185 119.536C130.076 121.946 132.919 125.019 134.986 127.388C133.954 128.456 132.362 130.296 130.985 130.66C129.022 129.618 106 103.516 104.64 101.47C108.933 96.409 115.438 90.0477 122.334 89.2665ZM111.491 100.926C113.064 102.371 119.201 109.171 120.471 110.944L120.735 111.297C122.536 110.354 126.809 105.941 127.453 103.705C128.011 101.824 127.785 99.7976 126.825 98.0866C125.892 96.4446 124.336 95.2487 122.51 94.7698C121.768 94.5833 121.192 94.6563 120.443 94.7465C116.695 95.9555 114.018 97.8933 111.491 100.926Z"/><path fill="#2F303C" d="M313.159 32.3742C318.362 31.9663 328.893 33.7094 332.623 37.666C337.305 42.6333 336.356 50.8633 329.999 53.973C329.655 54.3815 326.389 55.2933 327.2 56.0054C331.731 59.9862 330.798 70.1504 330.972 75.5656C323.271 75.0678 325.522 72.05 325.192 65.2354C324.906 57.4243 320.615 56.8491 314.182 54.9646C313.352 60.7215 312.082 66.3569 311.319 72.1238C309.059 72.0464 308.098 71.8242 305.859 71.3322C306.003 69.6332 306.335 67.9667 306.644 66.2914C308.633 55.5117 310.442 44.6988 312.449 33.9224C312.557 33.3417 312.839 32.8583 313.159 32.3742ZM315.261 51.4386C318.627 51.8192 323.615 52.4133 326.779 50.8701C328.772 49.0478 329.706 47.3198 329.725 44.6046C329.772 38.1621 321.686 37.9653 317.521 37.0486C316.858 41.8177 315.839 46.7331 315.261 51.4386Z"/><path fill="#2F303C" d="M455.024 410.115C456.929 410.419 481.425 431.706 485.568 434.625C482.767 439.833 478.915 444.403 474.258 448.046C472.45 448.957 471.05 449.432 468.999 449.528C465.867 449.679 462.807 448.551 460.523 446.401C452.613 439.094 457.439 430.107 463.398 423.804C461.257 422.441 452.23 415.527 452.078 413.459C452.688 411.829 453.626 411.141 455.024 410.115ZM472.574 443.06C475.696 440.853 476.474 439.458 478.754 436.413C476.652 434.991 467.971 427.14 466.73 426.813C463.028 430.954 458.766 437.356 464.332 442.513C466.499 444.521 469.975 444.246 472.574 443.06Z"/><path fill="#2F303C" d="M96.6334 113.969C100.493 113.677 104.044 114.908 106.758 117.737C108.997 120.086 110.207 123.23 110.12 126.474C109.938 131.642 106.807 136.126 103.111 139.484C106.698 142.567 111.494 146.429 114.706 149.701C113.651 151.317 113.076 152.794 111.363 153.286C110.219 153.111 109.482 152.322 108.541 151.569C106.068 150.225 83.2641 130.731 81.3934 128.303C81.6281 127.774 81.8988 127.261 82.2037 126.769C85.5507 121.443 90.2714 115.512 96.6334 113.969ZM98.0605 135.268L99.5445 136.626C103.171 132.797 107.772 126.992 102.686 121.449C101.22 119.851 99.0163 119.51 96.9026 119.403C92.6358 120.508 90.2552 123.245 87.7886 126.742L98.0605 135.268Z"/><path fill="#2F303C" d="M75.3625 357.256C76.3332 357.754 77.5233 361.103 77.9806 362.213C75.4766 364.961 71.379 368.585 68.5174 371.511C70.0484 374.608 73.0694 380.58 74.1496 383.629C77.5059 383.544 85.0365 381.699 87.4787 382.682C88.3341 383.799 89.0343 386.032 89.5503 387.431C85.8179 387.879 81.8376 388.051 78.0712 388.504C74.4958 388.933 71.1248 389.444 67.5244 389.668C62.6905 390.367 57.8052 390.613 52.9717 391.365C51.3178 391.622 49.5652 391.695 47.893 391.721C46.9322 390.194 45.7025 387.532 44.8628 385.848C46.5231 383.967 51.9027 379.287 54.1698 377.099C58.1748 373.217 62.2012 369.358 66.2491 365.52C68.9514 362.928 72.4014 359.422 75.3625 357.256ZM50.9387 386.913C53.1222 386.486 54.6653 386.204 56.8688 385.997C60.6478 385.64 66.1055 384.525 69.6157 384.411C69.0272 383.128 65.3649 374.847 64.7522 374.21C59.9654 379.657 56.1012 382.275 50.9387 386.913Z"/><path fill="#2F303C" d="M110.543 418.558C111.955 419.736 113.309 421.362 114.341 422.879C112.914 426.512 110.197 430.694 108.565 434.573C111.329 436.949 115.389 441.258 118.016 443.893C121.603 442.48 126.612 439.484 129.891 438.752C131.108 440.092 132.357 441.401 133.638 442.679C127.787 445.665 121.312 448.353 115.348 451.176C108.964 453.603 101.835 457.918 95.5091 460.053C93.779 458.743 92.5167 457.319 91.0333 455.757C91.763 453.534 96.2245 445.156 97.7221 442.454C101.965 434.8 106.168 426.042 110.543 418.558ZM97.1458 454.474C98.7945 453.484 101.029 452.046 102.739 451.345C105.826 449.961 110.807 447.523 113.794 446.439C112.591 445.074 107.426 439.149 106.115 438.338C103.134 443.871 100.36 449.082 97.1458 454.474Z"/><path fill="#2F303C" d="M468.68 118.283C470.905 118.086 473.725 120.571 473.681 122.625C473.653 123.919 471.473 127.233 470.698 128.494C464.65 138.341 458.936 148.379 452.657 158.089C451.095 156.945 450.077 155.811 448.865 154.338C450.293 150.414 453.6 146.551 455.183 142.681C455.311 142.366 455.058 142.248 454.76 141.919C451.745 138.595 449.331 135.844 446.776 132.104C444.522 133.427 437.323 136.237 434.504 137.431C433.259 135.826 432.098 134.094 430.941 132.418C434.858 131.404 438.361 129.844 442.116 128.368C447.551 126.236 452.997 124.132 458.454 122.056C461.782 120.778 465.28 119.269 468.68 118.283ZM455.427 135.65C456.344 136.689 457.685 138.103 458.415 139.228C459.409 136.971 466.435 125.637 466.402 124.765L466.227 124.575C463.198 125.852 453.78 129.728 450.912 130.448C452.433 132.168 453.939 133.902 455.427 135.65Z"/><path fill="#2F303C" d="M368.125 479.963L368.644 480.226C369.04 481.279 369.243 517.33 369.352 521.838L363.327 523.665C358.277 517.606 353.313 511.475 348.436 505.274C344.959 500.781 340.231 495.424 337.159 490.84L342.526 489.127C344.762 491.239 348.479 496.415 350.681 499.097C355.31 497.298 358.975 495.939 363.766 494.664C363.41 490.374 363.549 485.58 363.602 481.259C364.769 480.842 366.868 480.316 368.125 479.963ZM353.226 503.014C355.592 505.05 357.888 508.232 359.815 510.772C361.228 512.554 362.974 515.009 364.388 516.636C364.426 512.752 364.263 508.804 364.153 504.916C364.117 503.632 364.218 500.546 364.052 499.55L363.618 499.41C360.65 500.473 356.106 502.249 353.226 503.014Z"/><path fill="#2F303C" d="M204.621 41.4565C204.916 41.4955 205.194 41.6165 205.423 41.8057C206.125 42.3779 210.056 47.8013 210.792 48.815C214.652 54.1257 218.613 59.4553 222.64 64.6403C224.891 67.5388 228.192 72.4889 230.818 74.8184C228.673 75.6526 227.276 76.2045 225.062 76.7509C222.586 74.2526 219.006 69.2936 216.806 66.3453C212.725 68.0781 208.188 69.4572 203.889 70.5278C203.945 74.8625 203.848 79.4152 203.809 83.7611C202.125 84.2499 200.456 84.7908 198.804 85.3831C199.022 80.3127 198.53 44.9016 199.338 43.7088C200.109 42.5709 203.285 41.8932 204.621 41.4565ZM211.677 63.5496L214.636 62.7457C213.418 61.2305 203.85 48.2689 203.651 48.154C203.514 53.5466 204.042 61.0497 203.716 65.9281C206.446 65.2189 208.994 64.4015 211.677 63.5496Z"/><path fill="#2F303C" d="M511.119 189.459C511.938 189.493 512.051 189.526 512.855 189.721C514.191 190.841 516.3 194.435 514.815 195.609C510.692 198.866 486.089 220.792 483.651 221.182C482.36 220.614 481.216 218.292 481.548 217.074C482.105 215.029 485.838 212.757 487.482 211.506C488.834 210.413 490.153 209.457 491.557 208.436C489.796 204.495 487.969 199.347 486.479 195.252C482.514 195.554 477.233 195.781 473.278 195.679C472.711 194.272 471.908 192.547 472.155 191.061C473.404 190.296 506.717 189.722 511.119 189.459ZM490.938 194.649C492.265 198.385 493.641 202.104 495.067 205.803L496.328 204.716C500.16 201.124 505.26 197.256 509.43 193.929C507.412 193.95 504.191 193.856 502.303 194.11C498.785 194.443 494.459 194.836 490.938 194.649Z"/><path fill="#2F303C" d="M148.943 66.8961C149.962 66.8901 150.969 67.455 151.67 68.165C152.786 71.2328 141.831 77.3575 139.189 79.1954C141.498 82.664 143.54 85.6266 145.541 89.2836C149.031 86.4751 154.687 82.597 158.599 80.5506C159.507 82.1415 160.047 83.062 160.737 84.7639C156.976 86.8278 152.456 90.5886 148.244 93.0049C151.086 96.7836 153.468 100.539 155.993 104.526C158.726 102.301 162.22 100.116 165.162 97.9994C169.251 94.9442 169.891 94.261 172.918 98.4677C169.887 101.237 157.857 109.022 154.03 111.525C149.901 105.777 145.765 99.1762 141.729 93.3079C138.354 88.4004 134.65 83.3279 131.523 78.2981C134.28 76.2946 137.661 74.365 140.545 72.4455C143.286 70.6206 146.148 68.576 148.943 66.8961Z"/><path fill="#2F303C" d="M49.0407 183.919C50.4726 184.109 51.7294 184.384 52.6758 185.459C53.1489 187.01 48.4956 197.886 47.5376 200.32C51.1619 201.366 55.4011 203.049 58.8382 204.604C59.9295 201.356 62.6864 192.753 64.3058 190.134L68.2237 191.82C66.8237 196.878 65.0457 201.228 63.1037 206.1C66.0186 206.825 72.5853 209.503 75.9296 210.671C77.6025 206.793 78.8622 203.392 80.2919 199.408C80.9027 197.771 81.5819 196.272 82.2927 194.678C83.6807 195.262 84.6879 195.76 86.0183 196.445C85.7685 197.738 85.557 198.83 85.0647 200.065C82.7833 205.788 81.1044 211.968 78.7152 217.625C73.1248 215.877 45.0211 206.094 41.8483 203.642C41.2359 201.937 44.1089 195.738 44.8794 193.686C45.6254 191.699 47.5172 184.922 49.0407 183.919Z"/><path fill="#2F303C" d="M413.284 452.97L413.719 453.119C416.281 456.638 435.59 484.129 435.846 485.411C435.586 485.705 434.898 486.456 434.593 486.643C431.661 488.449 420.961 497.118 418.199 496.839C417.082 496.206 416.548 495.271 415.766 494.224C418.674 491.58 425.666 487.018 429.11 484.658C427.142 482.213 424.25 477.967 422.544 475.277C422.464 475.243 422.388 475.197 422.304 475.176C421.226 474.906 411.016 482.651 409.385 483.696C408.467 482.345 407.313 481.043 407.436 479.438C408.806 477.999 416.712 473.185 419.11 471.241L419.397 471.005C416.953 467.69 413.6 463.146 411.591 459.672C408.294 462.463 401.13 467.497 397.514 469.673C396.424 468.319 395.321 467.34 395.479 465.604C396.935 463.431 410.415 454.62 413.284 452.97Z"/><path fill="#2F303C" d="M267.321 498.008C272.521 498.647 284.485 498.38 289.933 498.066C290.092 500.659 289.917 504.212 289.84 506.854C289.54 517.029 290.37 527.908 289.392 537.992C287.476 538.296 270.406 538.327 268.517 537.948C267.95 537.338 267.473 536.497 267.556 535.658C267.835 532.84 270.553 533.178 272.395 533.233C276.266 533.369 280.139 533.426 284.013 533.403L284.051 521.178C278.999 521.074 273.945 521.064 268.892 521.149C268.915 519.711 268.925 518.273 268.92 516.835C273.764 516.597 279.149 516.629 284.035 516.556C283.989 512.914 283.907 506.396 284.211 502.944C278.864 502.669 272.587 502.809 267.195 502.967C267.073 501.454 266.95 499.452 267.321 498.008Z"/><path fill="#2F303C" d="M487.597 345.582C500.754 349.411 512.642 354.841 525.364 359.053C523.126 365.596 520.173 372.489 517.834 379.23C516.4 378.808 514.933 378.332 513.503 377.885C514.681 373.201 517.238 367.147 518.904 362.387C515.44 361.418 511.709 359.927 508.328 358.645L507.576 358.452C506.749 359.111 503.035 370.722 502.235 372.715C501.294 372.366 498.948 371.561 498.835 370.821C498.454 368.336 502.261 358.992 503.069 356.747C500.508 356.051 492.429 353.156 490.337 351.836C488.589 357.081 486.256 363.515 484.112 368.603C483.275 368.238 480.235 367.002 480.332 366.405C480.923 362.773 486.334 348.028 487.597 345.582Z"/><path fill="#2F303C" d="M280.52 29.9893C287.569 30.292 294.75 30.2929 301.871 30.5697C301.977 32.0816 301.923 33.7132 301.911 35.2377C296.343 35.1698 290.776 34.9959 285.215 34.7164C285.442 38.4087 285.232 43.2207 285.03 46.9093C290.12 46.9773 295.21 47.0811 300.299 47.2207C300.267 48.7084 300.152 50.3178 300.071 51.8147C296.732 51.8087 287.837 51.7539 284.826 51.3231C284.835 52.6909 284.768 54.1208 284.725 55.4931C284.443 58.9037 284.628 61.6817 283.98 65.2523C289.241 65.3781 294.609 65.3358 299.836 65.8066C301.338 65.9419 301.11 68.8539 300.816 69.8193C299.575 70.7733 281.714 69.7676 279.002 69.6285L279.984 42.5399C280.059 40.2485 279.958 31.5455 280.52 29.9893Z"/><path fill="#2F303C" d="M390.755 469.009C391.987 468.802 392.11 468.768 393.026 469.259C393.786 470.468 393.724 472.389 393.835 473.905C393.019 473.907 392.203 473.944 391.39 474.016C386.683 474.42 378.731 477.742 380.006 483.606C381.971 493.443 396.804 485.199 402.432 490.531C411.858 499.46 403.227 510.061 392.899 511.692C390.731 511.875 389.633 511.954 389.302 509.378C388.9 506.252 393.793 506.728 395.641 505.833C397.341 505.009 398.933 503.791 400.02 502.243C400.761 501.352 401.187 499.258 400.768 498.1C397.876 490.111 384.478 497.054 378.483 491.989C373.72 487.965 373.324 481.306 376.383 476.793C379.628 472.006 385.43 469.96 390.755 469.009Z"/><path fill="#2F303C" d="M134.635 444.392C143.571 447.9 151.871 453.885 152.173 464.374C152.472 474.762 142.26 486.12 131.652 486.083C124.441 486.058 119.603 483.61 114.566 478.624C111.324 474.775 110.798 474.097 115.365 471.424C117.795 474.886 121.265 478.126 125.114 479.919C136.225 485.093 150.25 470.266 145.555 459.337C143.211 453.881 138.035 450.799 132.788 448.614C133.242 446.842 133.424 445.738 134.635 444.392Z"/><path fill="#2F303C" d="M175.101 53.5632C175.958 53.4847 177.558 53.5143 178.474 53.5011L178.851 57.7302C174.655 58.5401 169.884 59.1035 167.479 63.1589C166.049 65.5709 167.649 69.6365 170.196 70.5636C175.676 72.6482 182.879 69.2785 188.107 72.7688C195.238 77.5299 194.745 86.0573 188.553 91.2911C185.174 94.1469 182.856 94.7918 178.736 95.7836C176.165 96.0413 172.447 96.1936 173.891 92.1596C176.049 89.6716 183.226 92.1101 186.892 85.6881C187.71 84.2322 187.9 82.5059 187.418 80.907C184.49 71.1423 164.806 82.7617 162.022 68.9248C160.174 59.7437 167.384 55.2355 175.101 53.5632Z"/><path fill="#2F303C" d="M261.441 30.2938C263.484 30.1008 267.237 30.2613 269.177 30.9752C270.019 32.1108 269.791 33.7954 268.87 34.8328C267.861 35.1408 263.671 35.0525 262.296 35.0651C252.184 35.158 246.298 42.7142 247.452 52.6039C248.233 59.2976 252.107 65.2563 259.424 66.4498C264.8 67.3268 267.105 65.2263 271.745 64.6778C272.553 65.0296 272.649 65.3076 273.143 66.0376L273.308 66.2863L273.412 66.771C274.244 70.8173 267.647 70.5148 264.952 71.0988C245.062 75.4093 235.385 52.7846 245.535 38.057C249.198 32.7416 255.089 31.0405 261.441 30.2938Z"/><path fill="#2F303C" d="M305.937 495.897C329.434 493.569 334.56 528.336 314.306 535.645C310.748 536.929 303.837 537.773 300.155 536.829C299.018 536.537 299.27 533.483 299.975 532.382C300.928 531.912 300.406 532.05 301.645 532.21C305.102 532.435 308.549 532.419 311.861 531.268C315.237 530.095 318.096 527.771 319.657 524.525C321.693 520.289 321.683 514.498 320.125 510.104C317.819 503.599 311.835 500.125 305.04 500.807C303.182 500.994 296.765 503.3 295.767 502.793C295.113 502.461 294.598 502.032 294.441 501.273C294.277 500.481 294.605 499.599 295.117 498.996C296.953 496.832 303.194 496.237 305.937 495.897Z"/><path fill="#2F303C" d="M433.611 89.8144C440.044 89.3318 444.327 91.1956 449.322 95.3186C450.812 96.5485 454.48 100.706 454.589 102.465C454 103.502 452.455 104.565 451.465 105.359C436.322 81.4307 415.544 103.241 420.474 115.952C423.131 121.515 427.038 124.347 432.45 126.902C431.856 128.97 431.746 129.265 430.692 131.049C428.1 129.945 425.641 128.553 423.361 126.897C406.495 114.474 414.912 92.1572 433.611 89.8144Z"/><path fill="#2F303C" d="M187.932 477.827C189.63 478.168 191.25 479.104 192.702 480.012C191.791 482.167 189.865 485.528 188.745 487.782L179.921 505.733C178.555 508.557 176.458 512.763 175.563 515.672C172.348 514.527 157.599 508.102 156.017 505.74C155.673 504.015 156.348 503.461 157.338 501.979C159.098 502.622 160.402 503.131 162.099 503.914C163.627 504.43 170.709 508.207 172.091 509.14C173.045 506.638 176.378 499.941 177.699 497.644C174.97 496.477 167.018 493.055 165.171 491.214C164.613 489.63 165.556 488.178 166.254 486.617L179.54 493.364C182.127 489.139 185.176 480.588 187.932 477.827Z"/><path fill="#2F303C" d="M393.43 57.5618L393.876 57.7527C397.095 59.1129 409.082 65.6894 411.96 67.8338C412.13 69.1185 410.674 70.6731 409.893 71.6536C407.496 70.8229 398.684 65.6113 396.065 64.0439C394.936 66.7995 391.456 72.5113 389.817 75.351C394.761 77.2217 398.193 79.642 402.596 82.4922C401.738 84.2181 401.347 86.0346 399.185 85.5143C395.469 83.8021 391.498 81.296 387.739 79.3364C385.06 83.1441 381.344 90.3592 378.83 94.7083C377.134 93.7978 375.827 93.0626 374.212 92.0238C375.475 89.0073 380.898 79.8406 382.668 76.7969C384.64 73.4075 391.616 59.5856 393.43 57.5618Z"/><path fill="#2F303C" d="M218.881 489.978C220.953 490.244 222.346 490.622 224.379 491.152C223.735 494.18 222.337 498.628 221.476 501.758C219.326 509.392 217.278 517.055 215.333 524.744C217.37 525.416 225.206 526.973 225.937 528.795C228.505 535.204 216.4 530.351 213.715 529.563C208.076 528.073 202.457 526.511 196.858 524.878C197.076 523.574 197.241 521.973 198.1 520.983C200.056 520.181 207.479 522.833 209.73 523.531C210.521 519.678 212.773 512.515 213.859 508.445C214.837 504.784 217.515 492.925 218.881 489.978Z"/><path fill="#2F303C" d="M343.816 38.3408C346.281 38.7582 349.926 40.1006 352.383 40.8429C358.781 42.7753 365.731 45.5959 372.124 47.2852C371.534 49.033 371.083 50.1641 370.329 51.8497C366.687 50.6645 362.398 49.331 358.893 47.919C358.192 51.8833 353.653 64.4073 352.177 69.0833C350.745 72.8857 349.368 77.2777 348.02 81.1696C346.293 80.8239 344.562 80.5022 342.826 80.2044C344.388 73.8921 346.741 67.121 348.769 60.9152C350.084 56.8893 351.948 50.04 353.693 46.372C351.679 45.7344 344.513 43.7086 343.197 42.553C342.666 40.9489 343.207 39.9248 343.816 38.3408Z"/><path fill="#2F303C" d="M378.37 50.0598C380.059 50.742 381.734 51.4601 383.392 52.2136C381.487 58.3928 378.08 64.8631 375.347 70.7169C372.603 76.6581 369.99 82.6596 367.512 88.7167C365.964 88.2379 364.61 87.5082 362.592 86.907C363.489 83.2139 368.74 71.5533 370.522 67.5569C372.529 63.054 376.157 54.0496 378.37 50.0598Z"/><path fill="#2F303C" d="M164.056 464.701C165.962 465.424 166.823 466.056 168.516 467.175C167.251 469.854 163.216 475.957 161.481 478.729C156.762 486.164 152.176 493.682 147.726 501.281C146.001 500.292 144.624 499.489 142.986 498.366C143.982 495.979 145.297 494.139 146.675 491.969C151.971 483.625 156.924 475.056 162.229 466.719C162.724 465.94 163.363 465.301 164.056 464.701Z"/><path fill="#2F303C" d="M199.835 483.203C201.69 483.728 203.155 484.305 204.955 485.005C202.605 489.867 200.807 495.936 198.867 501.01C196.178 508.044 193.105 515.104 190.785 522.248C188.983 521.814 187.483 521.139 185.816 520.363C186.247 517.797 198.478 484.685 199.835 483.203Z"/><path fill="#2F303C" d="M420.743 73.374C422.575 74.2433 423.501 74.9585 425.067 76.1907C423.491 79.3537 417.672 87.564 415.31 90.8833C411.476 96.2731 406.684 103.844 402.654 108.777C400.649 107.657 399.937 107.209 398.146 105.784C401.808 99.9379 406.769 93.5532 410.671 87.6879C412.732 84.5889 418.605 75.641 420.743 73.374Z"/><defs><linearGradient id="gradient_0" gradientUnits="userSpaceOnUse" x1="78.072968" y1="175.7384" x2="75.686722" y2="180.94415"><stop offset="0" stop-color="white" stop-opacity="0"/><stop offset="1" stop-color="#EFEDEF" stop-opacity="0.031372551"/></linearGradient></defs><path fill="url(#gradient_0)" d="M62.1411 170.114C65.0192 171.004 69.1298 172.164 72.0747 172.784L72.4996 173.016L72.5439 173.39L73.0738 173.549C72.2873 173.509 72.4166 173.42 71.7149 173.761L71.6687 174.757C74.1048 176.865 89.057 186.095 89.5869 187.301L89.3499 187.949L62.1411 170.114Z"/></svg>