<?xml version="1.0" encoding="utf-8" ?><svg xmlns="http://www.w3.org/2000/svg" xmlns:xlink="http://www.w3.org/1999/xlink" width="473" height="181" viewBox="0 0 473 181"><path fill="#5C5B5D" d="M89.7061 28.8946C91.5169 28.6559 93.6771 28.7105 95.5027 28.7067C121.027 28.6538 144.03 45.9344 152.636 69.7008C154.574 75.0509 156.254 78.8217 151.56 83.3433C151.089 83.4978 150.614 83.6367 150.134 83.7597C148.281 84.2204 145.433 84.3338 144.091 82.8399C140.716 78.9151 139.475 73.3423 137.27 68.6511C128.179 49.3038 103.543 38.2623 82.7595 43.3782C71.2723 46.2727 62.7992 51.5001 54.7698 59.9887C51.8597 63.0652 50.6307 65.4264 48.7433 69.1043C51.8667 69.6228 54.4747 70.2513 51.3769 73.7182C47.4922 78.1445 43.7943 84.1617 39.234 87.7452C37.3098 89.2572 24.1672 72.0741 25.0618 70.0753C26.8322 68.6057 31.0689 69.2741 33.3716 69.4363C35.5047 63.5929 38.6752 58.1826 42.7307 53.4658C44.4266 51.4763 47.0631 48.2402 48.9392 46.5475C61.5719 35.1495 73.0468 30.2226 89.7061 28.8946Z"/><path fill="#A8CD66" d="M147.086 93.9659C147.133 93.9834 147.18 94.001 147.227 94.0185C148.167 94.3852 149.026 94.9308 149.758 95.625C152.005 97.7813 160.196 108.951 161.558 111.946C158.595 112.144 155.716 112.103 152.753 112.02C151.089 118.094 145.664 125.752 141.611 130.516C128.638 144.455 114.271 152.209 94.8832 152.922C92.6737 152.982 90.463 152.984 88.2533 152.93C85.84 152.754 83.3252 152.607 80.9055 152.239C58.8803 148.889 38.1132 130.322 32.5385 108.736C31.5895 104.261 31.1704 99.5032 36.7924 98.3344C42.7531 96.9085 44.7686 104.098 46.4074 108.542C49.6132 117.235 55.3101 125.547 63.2481 130.717C74.2432 137.879 89.0337 142.059 102.143 139.099C112.784 136.696 123.425 130.818 130.882 122.784C133.83 119.578 136.154 115.857 138.518 112.251C137.089 112.256 133.504 112.593 133.317 110.809C134.262 108.063 144.387 95.8167 147.086 93.9659Z"/><path fill="#A8CD66" d="M423.589 75.0279C433.226 74.364 441.585 81.6186 442.284 91.2528C442.983 100.887 435.759 109.272 426.127 110.007C416.446 110.745 408.007 103.475 407.305 93.7911C406.602 84.1069 413.902 75.6953 423.589 75.0279ZM425.555 101.782C438.744 99.3524 433.835 81.8475 424.116 83.0417C421.338 83.5579 419.495 84.3469 417.805 86.7823C416.272 88.9656 415.684 91.6743 416.172 94.2967C416.629 96.7333 418.043 98.8855 420.097 100.272C421.777 101.388 423.548 101.864 425.555 101.782Z"/><path fill="#A8CD66" d="M290.237 75.5554C291.835 75.4346 293.53 75.3825 295.123 75.5401C299.091 75.9325 302.458 77.8088 304.973 80.8874C307.316 83.7553 308.964 87.6849 308.571 91.4444C308.445 92.644 308.009 93.9369 307.02 94.6965C304.996 96.2515 288.762 95.9204 285.5 95.4848C287.143 98.8145 288.954 101.925 293.11 102.102C297.222 102.278 300.235 99.3283 304.279 99.5371C312.369 104.814 295.571 113.964 284.423 107.057C280.754 104.817 278.141 101.195 277.17 97.0074C275.329 89.129 278.749 79.4333 286.742 76.4844C287.798 76.0948 289.13 75.8132 290.237 75.5554ZM285.621 89.7277C288.056 89.8019 290.282 89.8545 292.716 89.7974C295.196 89.8171 297.974 89.7744 300.435 89.8604C299.117 86.5339 297.365 82.8339 293.312 82.558C289.015 83.2224 286.594 85.5126 285.621 89.7277Z"/><path fill="#5C5B5D" d="M202.43 76.3615C212.407 75.0171 220.925 90.1419 216.417 94.2991C214.424 95.0662 194.425 95.0849 191.813 94.6284C194.646 104.968 201.885 108.388 211.11 102.375C212.338 101.491 213.411 100.836 214.905 101.367C219.776 106.309 202.622 114.806 192.659 106.321C189.382 103.5 187.368 99.4852 187.066 95.1713C186.277 84.58 191.602 77.1237 202.43 76.3615ZM191.62 91.2392C193.846 90.8088 200.747 91.1773 203.499 91.1547C206.464 91.1374 209.705 91.1797 212.642 91.0085C210.444 84.8479 208.674 79.9684 200.972 80.5337C194.933 81.8828 193.554 85.9994 191.62 91.2392Z"/><path fill="#A8CD66" d="M328.396 75.3448L328.567 75.3239C333.55 74.7568 344.838 78.3885 340.137 85.2099C337.559 88.2451 333.128 84.2475 330.746 83.4808C323.427 81.1248 317.878 91.0569 321.71 96.9995C323.551 100.433 326.323 102.331 330.364 101.436C334.407 100.542 336.809 96.8566 340.823 100.12C343.973 105.95 335.109 109.025 330.912 109.601C326.293 110.247 321.607 109.024 317.891 106.205C310.583 100.59 309.421 89.1113 314.939 81.7473C318.196 77.3995 323.182 75.9662 328.396 75.3448Z"/><path fill="#A8CD66" d="M375.151 75.3532C383.048 74.3776 395.963 81.4954 385.043 86.7342C383.228 86.1009 381.49 84.842 379.726 84.0369C375.443 82.0823 371.262 83.8836 369.351 88.0774C368.199 90.604 368.1 93.485 369.076 96.0847C371.765 103.056 377.387 102.549 382.584 99.6315C384.221 98.7123 386.087 98.7601 387.839 99.5275C388.5 100.148 389.425 101.086 389.376 101.986C389.131 106.432 382.588 109.138 379.128 109.425C373.712 109.874 369.438 108.982 365.421 105.719C361.966 102.964 359.771 98.9286 359.334 94.5307C358.296 84.1904 364.866 76.3807 375.151 75.3532Z"/><path fill="#A8CD66" d="M397.585 63.5339C398.418 63.4767 399.216 63.4455 400.009 63.7592C400.973 64.1403 401.649 65.0548 402.059 65.9764C403.119 68.3621 403.235 104.644 402.259 106.92C401.624 108.401 399.999 109.008 398.595 109.519C396.057 109.374 393.728 107.803 393.598 105.066C393.373 100.324 393.537 95.5494 393.513 90.796C393.462 85.7738 393.446 80.7514 393.464 75.729C393.475 72.7569 393.398 68.8072 393.872 65.955C395.141 64.615 395.946 64.2762 397.585 63.5339Z"/><path fill="#5C5B5D" d="M222.826 77.0208L222.905 77.0142C223.457 76.9724 225.975 76.917 226.173 77.4078C229.563 85.8067 220.943 105.492 236.62 104.951C250.22 104.481 242.472 81.2365 245.963 77.3746C246.314 76.9793 246.817 76.7514 247.346 76.7476C247.879 76.7444 249.022 77.0755 249.293 77.4582C250.427 79.0564 250.024 84.9143 249.998 86.9375C249.923 90.5646 250.365 106.765 249.496 108.55C248.522 109.537 246.832 109.481 245.734 108.754C244.845 107.298 244.998 105.623 245.024 103.959C240.336 109.424 234.352 112.014 227.296 108.092C219.757 103.162 222.562 92.3202 221.955 84.6965C221.783 82.5328 221.792 78.7141 222.826 77.0208Z"/><path fill="#A8CD66" d="M265.555 82.045C266.505 80.3702 267.453 78.3682 268.817 77.0176C270.784 75.0708 274.171 75.5594 275.93 77.5553C276.627 78.3558 276.966 79.4068 276.868 80.4639C276.308 85.98 267.054 82.0581 265.764 95.0308C265.617 98.3039 266.181 101.943 265.503 105.146C265.221 106.479 264.618 107.739 263.422 108.479C262.304 109.171 260.812 109.336 259.549 109.007C258.74 108.796 257.991 108.353 257.572 107.61C255.794 104.458 255.896 81.8712 257.117 78.0594C257.505 76.8459 258.555 76.298 259.611 75.7616C259.791 75.7503 259.97 75.7427 260.15 75.7389C264.494 75.6477 265.486 78.252 265.555 82.045Z"/><path fill="#A8CD66" d="M348.622 75.5028C351.358 75.2826 352.183 75.7988 354.255 77.4987C355.606 81.308 354.828 87.2316 354.916 91.3417C355.005 95.5098 355.004 99.8958 354.875 104.073C354.768 107.52 354.463 107.952 351.395 109.145C350.204 109.227 348.858 108.981 347.806 108.402C346.926 107.917 346.45 107.312 346.177 106.348C345.365 103.481 345.125 79.3885 346.345 77.2941C346.365 77.2602 346.386 77.2269 346.406 77.1931C346.898 76.3634 347.802 75.9536 348.622 75.5028Z"/><path fill="#A8CD66" d="M74.024 79.2973C79.1152 78.1768 84.1526 81.3894 85.2836 86.4784C86.4147 91.5673 83.2123 96.6113 78.1257 97.7528C73.0243 98.8975 67.9625 95.6838 66.8282 90.5801C65.6939 85.4764 68.9179 80.4212 74.024 79.2973Z"/><path fill="#A8CD66" d="M105.32 79.1176C110.466 78.6265 115.052 82.3616 115.612 87.5008C116.173 92.6399 112.499 97.2753 107.368 97.9045C103.987 98.319 100.645 96.8819 98.6195 94.1429C96.5944 91.4038 96.2001 87.7869 97.5875 84.6759C98.9749 81.5649 101.929 79.4413 105.32 79.1176Z"/><path fill="#A8CD66" d="M349.409 63.5507C350.657 63.4852 352.057 63.6209 353.151 64.2664C354.259 64.9072 355.062 65.9694 355.375 67.2112C355.657 68.3516 355.454 69.5582 354.812 70.5426C353.824 72.0696 352.678 72.3957 351.055 72.7155C349.775 72.8896 348.394 72.6467 347.29 71.9647C346.186 71.2946 345.396 70.2095 345.098 68.9524C344.359 65.7259 346.652 64.1737 349.409 63.5507Z"/></svg>