<?xml version="1.0" encoding="utf-8" ?><svg xmlns="http://www.w3.org/2000/svg" xmlns:xlink="http://www.w3.org/1999/xlink" width="418" height="410" viewBox="0 0 418 410"><path d="M153.809 410C151.517 408.566 145.139 406.995 142.334 406.165C139.526 405.33 136.742 404.414 133.986 403.42C126.453 400.775 118.242 396.957 111.112 393.295C63.0017 368.589 26.8886 325.337 10.5024 273.941C-7.25213 218.252 -0.397033 159.198 28.9003 108.626C56.3843 61.9939 101.204 28.1312 153.571 14.4335C206.357 0.69727 262.445 8.65578 309.326 36.5342C355.424 64.018 388.879 108.511 402.485 160.427C416.005 212.651 408.402 268.1 381.323 314.758C359.453 352.003 326.427 381.431 286.916 398.879C281.424 401.302 275.821 403.467 270.127 405.367C267.769 406.159 257.312 409.093 255.981 410L153.809 410ZM211.377 404.126C317.513 400.598 400.681 311.678 397.115 205.544C393.55 99.4101 304.601 16.2733 198.468 19.8769C92.3882 23.4787 9.30237 112.373 12.8664 218.454C16.4304 324.535 105.295 407.652 211.377 404.126Z"/><path d="M196.599 28.0566C298.17 23.4403 384.255 102.027 388.889 203.597C393.523 305.167 314.951 391.266 213.382 395.917C111.789 400.57 25.6635 321.974 21.0284 220.38C16.3934 118.786 95.004 32.6741 196.599 28.0566ZM207.626 390.071C305.931 388.612 384.456 307.766 383.052 209.46C381.648 111.155 300.846 32.5843 202.54 33.9332C104.155 35.2831 25.5086 116.163 26.9138 214.547C28.3191 312.931 109.243 391.532 207.626 390.071Z"/><path d="M61.3006 127.958C72.1331 128.46 85.6084 128.072 96.6073 128.06L161.219 128.019L182.101 128.015C187.904 128.017 195.363 127.905 201.016 128.893C209.013 130.291 219.016 134.833 225.568 139.573C238.903 149.416 247.791 164.144 250.286 180.53C256.042 170.227 262.974 159.377 269.11 149.193L276.919 136.214C278.344 133.868 280.079 130.832 281.698 128.677C287.203 128.22 294.493 128.635 300.087 128.738C304.695 128.822 310.516 128.609 314.914 129.109C319.725 135.365 327.384 149.308 331.895 156.735L357.806 199.211C362.717 207.265 367.486 215.452 372.583 223.384C371.838 225.793 365.795 235.625 364.178 238.195C361.809 241.959 358.173 248.459 355.637 251.966C351.888 252.134 347.817 252.111 344.06 252.047C322.022 251.672 299.664 252.615 277.667 251.865C277.272 247.75 277.521 241.49 277.614 237.23L333.483 237.177C342.451 237.175 355.025 237.541 363.693 237.033C360.846 232.763 357.974 227.605 355.214 223.162C345.627 207.585 336.139 191.948 326.751 176.251L308.321 146.251C304.978 140.694 301.261 134.576 298.394 128.801C296.916 132.473 292.895 138.297 290.786 141.808C286.769 148.498 282.755 155.189 278.77 161.9C275.501 166.875 272.102 172.726 268.98 177.858C263.498 186.784 258.065 195.739 252.679 204.724C246.982 214.219 240.922 225.509 233.234 233.351C223.383 243.399 209.771 250.163 195.746 251.553C189.265 252.196 181.016 252.002 174.341 251.995L141.198 251.947C140.928 249.84 141.018 245.552 141.019 243.338L141.026 228.601L141.015 178.985C145.972 179.199 151.013 178.894 155.912 179.134C156.153 183.176 155.966 189.209 155.969 193.366L155.993 221.878C155.997 226.071 155.821 233.089 156.237 237.065C157.507 237.154 158.962 237.195 160.242 237.173C173.477 236.949 187.158 238.03 200.225 235.705C208.423 234.246 216.441 229.133 222.32 223.255C231.203 214.276 236.184 202.155 236.181 189.525C236.128 176.347 231.524 165.336 222.262 155.989C207.735 141.331 189.716 141.972 170.497 141.979L145.699 141.996L75.9823 142.001C75.5882 172.972 76.1953 204.081 75.966 235.069C75.9246 240.661 76.1367 246.298 75.894 251.884C71.0964 252.035 66.2945 251.98 61.5016 251.719C61.2059 246.933 61.3458 241.341 61.3565 236.481L61.389 212.805C61.4102 184.717 61.6745 156.007 61.3006 127.958Z"/><path d="M81.3415 147.754C106.996 148.149 133.827 147.784 159.533 147.734L178.953 147.691C185.436 147.678 191.622 147.359 197.996 148.697C205.572 150.282 212.539 153.995 218.078 159.402C226.229 167.307 230.823 178.182 230.811 189.537C230.861 201.331 226.225 211.923 217.884 220.091C205.937 231.787 195.654 232.044 180.358 232.032L162.076 232.024C162.019 229.283 162.023 226.493 162.041 223.751C162.138 208.845 161.88 193.895 162.086 178.994C166.85 179.163 172.152 179.06 176.962 179.051C177.244 187.668 176.973 197.766 176.963 206.483C176.963 209.91 176.881 213.779 177.138 217.159C187.862 217.793 200.165 217.731 208.009 209.51C213.369 203.891 216.454 197.791 216.478 189.917C216.453 182.474 213.487 175.343 208.227 170.076C199.154 160.991 187.967 161.938 176.19 161.959L157.787 161.976L95.9761 161.964C95.942 167.484 95.8283 173.45 96.0615 178.929C100.532 179.155 106.011 179.037 110.536 179.036L135.442 179.014C135.475 183.772 135.458 188.531 135.389 193.289C127.115 192.994 86.3356 194.373 81.7347 192.545C80.7334 190.054 81.0221 152.908 81.3415 147.754Z"/><path d="M298.199 143.107C298.385 143.202 298.571 143.297 298.756 143.393C302.382 149.021 307.994 158.385 311.26 163.813L341.68 214.242L348.231 225.078C349.62 227.375 351.153 230.172 352.838 232.201C345.726 232.058 338.672 232.208 331.561 232.217C318.307 232.356 305.052 232.292 291.8 232.023C287.128 231.958 282.275 232.038 277.626 231.832C277.374 227.78 277.272 221.185 277.952 217.232C292.769 217.052 307.619 217.297 322.439 217.182C323.674 217.173 324.896 217.119 326.128 217.041C319.54 205.524 312.437 194.257 305.524 182.925C303.151 178.885 300.736 174.871 298.279 170.881C283.956 195.362 268.665 219.356 254.325 243.844C252.787 246.47 250.923 249.411 249.173 251.905C245.31 252.28 236.327 251.986 232.066 251.949C236.429 244.275 241.425 236.265 245.993 228.685C255.915 212.177 265.925 195.721 276.022 179.319L289.323 157.39C291.87 153.126 295.25 146.907 298.199 143.107Z"/><path d="M81.2004 199.499C98.8099 200.133 117.796 198.91 135.389 199.717C135.588 204.216 135.478 209.477 135.518 214.035C122.599 213.866 109.465 214.001 96.5197 213.977C96.3884 214.15 96.257 214.324 96.1257 214.497C95.3804 225.236 96.0654 241.806 95.7896 251.992C91.1172 251.885 86.0753 251.976 81.3747 251.978C80.9509 246.033 81.1839 237.924 81.1708 231.791C81.1015 221.027 81.1114 210.263 81.2004 199.499Z"/><path d="M314.032 277.445C324.349 278.019 341.826 273.918 342.103 289.267C342.18 293.545 341.52 296.616 338.583 299.827C332.638 304.397 321.371 302.654 314.024 302.906C313.88 294.532 314.012 285.839 314.032 277.445ZM320.993 297.92C324.064 297.878 330.44 298.129 332.837 296.2C334.07 294.409 334.701 293.123 334.871 290.927C335.59 281.669 327.652 282.513 321.217 282.484C320.7 285.837 320.953 294.262 320.993 297.92Z"/><path d="M262.525 277.387C265.124 277.282 267.726 277.254 270.326 277.302C273.899 277.366 279.551 277.357 282.058 280.162C283.816 282.129 283.601 283.834 283.466 286.208C282.312 288.271 281.582 288.889 279.732 290.383C280.833 291.193 281.658 291.629 282.196 292.975C283.402 295.998 283.393 299.711 283.656 302.965C281.195 302.668 278.083 303.457 276.329 302.059C275.805 301.201 275.919 300.875 275.955 299.813C275.967 299.626 275.979 299.438 275.989 299.251C276.366 291.893 269.241 293.405 263.976 293.48C264.156 296.173 264.034 299.97 264.021 302.745C261.713 302.738 259.355 302.788 257.044 302.814L257.023 277.397C258.799 277.532 260.733 277.434 262.525 277.387ZM264.036 288.505C267.445 288.534 272.002 288.76 275.197 288.027C279.087 280.875 268.021 282.565 264.296 282.466C264.012 284.743 264.027 286.236 264.036 288.505Z"/><path d="M75.0184 277.472C80.5449 277.735 86.3299 277.27 91.8968 277.514C99.3193 277.839 103.057 280.988 100.013 288.597C99.1378 289.341 98.1344 289.915 97.1547 290.517C101.783 293.481 99.7468 297.158 101.629 302.822L95.4378 302.77C94.4517 302.703 94.8604 302.87 94.1187 302.388C93.1821 300.832 93.2072 296.388 92.8508 294.089C88.8221 293.445 85.8794 293.503 81.7993 293.494C81.9735 295.978 81.7765 300.149 81.7367 302.776C79.5639 302.724 77.2409 302.755 75.0554 302.751C74.8379 294.61 74.9826 285.657 75.0184 277.472ZM81.8083 288.489C85.4076 288.677 89.1601 288.907 92.6562 287.904C97.2316 280.81 85.0419 282.663 81.6256 282.374C82.0172 284.256 81.8565 286.536 81.8083 288.489Z"/><path d="M144.672 276.843C149.617 276.263 155.165 277.824 158.492 281.736C163.283 287.37 156.179 286.275 152.517 286.128C151.663 284.504 151.412 284.054 150.119 282.789C145.829 281.479 141.616 281.547 139.108 285.954C138.005 287.882 137.726 290.174 138.333 292.312C139.715 297.281 144.315 299.565 149.156 297.957C151.928 297.036 152.573 295.431 153.817 293.055C152.189 293.128 149.879 293.321 148.304 293.059C147.119 292.861 147.033 289.165 148.497 288.558C152.366 288.518 156.236 288.504 160.105 288.516C159.99 290.922 160.496 301.743 159.648 302.715C158.701 303.003 157.839 302.67 156.837 302.433C156.357 301.556 156.042 300.705 155.671 299.779C150.967 304.532 140.108 304.367 134.943 300.538C129.618 296.589 129.406 286.884 133.293 281.904C136.117 278.287 140.37 277.364 144.672 276.843Z"/><path d="M185.886 276.848C190.619 276.445 198.781 277.299 200.727 283.318C200.899 283.851 200.541 284.307 200.254 284.716C198.346 285.793 195.4 285.118 193.288 284.716C192.944 284.17 192.315 283.136 191.872 282.7C189.894 280.754 182.314 280.197 182.406 284.235C184.978 289.173 201.358 285.576 201.875 293.811C202.362 301.591 196.423 302.699 190.249 303.049C185.804 303.587 175.483 303.338 174.795 296.529C174.548 294.083 180.74 294.832 182.216 295.079L183.684 297.464C184.468 297.908 185.473 298.31 186.362 298.456C188.481 298.802 194.071 298.229 194.329 295.602C191.972 290.38 176.159 294.555 175.153 286.383C174.161 278.323 179.703 277.591 185.886 276.848Z"/><path d="M104.858 277.559C112.473 277.411 120.396 277.514 128.035 277.507L128.029 282.493C122.617 282.369 116.924 282.684 111.538 282.442C111.653 284.108 111.561 285.865 111.51 287.541C116.537 287.449 121.931 287.544 127.006 287.509C127.095 289.075 127.052 290.57 127.023 292.135C124.073 292.441 117.791 292.125 114.618 292.039C113.624 292.176 112.654 292.073 111.648 292.016C111.473 293.754 111.48 296.208 111.433 298.002C115.279 297.7 124.231 297.662 128.124 297.89C128.261 299.593 128.185 301.092 128.127 302.79C121.198 303.2 111.826 302.731 104.514 302.894C104.608 299.024 104.236 279.636 104.858 277.559Z"/><path d="M229.954 277.512C237.721 277.674 245.742 277.294 253.463 277.641C253.499 279.191 253.916 280.976 252.733 282.052C250.294 282.818 239.842 282.668 236.997 282.44C237.167 283.812 237.111 286.184 237.116 287.625C241.197 287.316 248.144 287.555 252.543 287.502C252.509 288.986 252.537 290.575 252.536 292.069L240.938 292.024L237.087 291.991C237.244 293.901 237.189 295.989 237.083 297.902C242.152 297.707 248.725 297.917 253.881 297.934C253.775 299.513 253.759 301.179 253.719 302.768C245.859 302.673 237.883 302.754 230.014 302.767L229.954 277.512Z"/><path d="M287.03 277.463C289.596 277.833 294.203 277.645 296.97 277.602C301.458 277.496 305.948 277.505 310.436 277.628C310.467 279.231 310.301 280.513 310.127 282.109C306.706 282.691 297.777 282.508 293.994 282.481C294.112 283.863 294.031 286.044 294.02 287.486C299.184 287.542 304.347 287.545 309.51 287.493C309.478 289.053 309.518 290.717 309.528 292.286C306.472 291.991 301.931 292.071 298.76 292.036C297.061 292.086 295.659 292.055 293.958 291.986C294.078 293.991 294.094 296.001 294.009 298.007C299.516 297.899 305.025 297.873 310.534 297.927L310.49 302.859C307.888 302.66 304.053 302.77 301.353 302.776C296.564 302.768 291.776 302.795 286.988 302.857L287.03 277.463Z"/><path d="M202.067 277.544C210.541 277.796 219.239 277.289 228.012 277.551C227.999 281.053 227.893 282.904 223.598 282.666C221.905 282.572 220.14 282.492 218.44 282.43C218.725 285.073 218.536 290.349 218.514 293.188L218.465 302.824C216.636 302.649 213.524 302.784 211.601 302.811C211.099 296.294 211.335 289.065 211.543 282.522C208.656 282.662 204.898 282.442 202.011 282.298C201.979 280.613 201.986 279.226 202.067 277.544Z"/><path d="M165.054 277.462C167.367 277.551 169.498 277.526 171.809 277.494C171.983 285.772 171.813 294.33 171.813 302.641C170.862 302.93 166.372 302.817 165.003 302.811C164.915 294.362 164.932 285.911 165.054 277.462Z"/><path d="M285.309 285.097C285.473 285.17 285.666 285.329 285.821 285.441C285.623 287.705 286.037 291.104 285.216 293.174C284.834 294.135 284.885 293.962 284.867 295.105C282.84 288.065 285.419 289.881 285.309 285.097Z"/><path d="M102.476 287.14L102.825 287.536C102.85 290.498 103.011 295.51 102.7 298.519C102.666 298.851 102.446 298.839 102.064 298.997C102.017 296.188 101.852 292.265 101.839 289.412C101.838 289.31 102.4 287.413 102.476 287.14Z"/><path d="M299.215 284.181C302.546 284.302 305.586 284.134 308.762 285.104C306.124 285.234 303.889 285.298 301.25 285.264L301.18 285.008C300.722 284.515 299.899 284.376 299.215 284.181Z"/><path d="M222.961 218.027C223.248 218.492 223.2 218.303 223.278 218.816C222.443 220.06 220.836 221.284 219.657 222.281L219.114 222.164C219.524 221.349 222.226 218.695 222.961 218.027Z"/><path d="M301.25 285.264C300.307 285.391 297.477 285.502 296.848 284.803C297.719 284.257 298.194 284.292 299.215 284.181C299.899 284.376 300.722 284.515 301.18 285.008L301.25 285.264Z"/><path d="M186.053 284.375C187.264 284.146 189.314 283.88 190.323 284.657C188.669 284.869 187.487 285.21 186.053 284.375Z"/><path d="M173.351 294.903L173.642 295.154C173.972 296.592 173.816 298.087 173.618 299.53L173.427 299.329C173.084 298.134 173.296 296.23 173.351 294.903Z"/><path d="M285.391 299.197C285.977 299.748 285.739 302.479 285.72 303.385L285.296 303.037C285.037 301.944 285.281 300.376 285.391 299.197Z"/><path d="M173.219 283.691C173.222 282.795 173.11 282.021 173.544 281.276C173.964 281.761 173.891 282.553 173.849 283.185C173.824 283.545 173.792 283.905 173.754 284.263L173.219 283.691Z"/><path d="M255.558 276.425C255.946 277.811 255.763 278.734 255.603 280.138C254.965 278.962 255.172 277.647 255.558 276.425Z"/><path d="M312.076 277.115L312.598 277.377C312.997 278.219 312.765 278.898 312.617 279.856L312.414 279.775C312.066 278.999 312.113 277.995 312.076 277.115Z"/><path d="M173.275 286.029L173.78 286.043C173.767 286.769 173.855 287.646 173.46 288.198C173.104 287.477 173.232 286.853 173.275 286.029Z"/><path d="M285.141 295.122C285.945 295.921 285.723 296.732 285.7 297.811C285.09 297.12 285.187 296.074 285.141 295.122Z"/><path d="M173.219 283.691L173.754 284.263L173.78 286.043L173.275 286.029L173.219 283.691Z"/><path d="M312.361 298.683L312.574 298.864C312.942 299.59 312.776 300.252 312.703 301.095L312.451 300.898C312.116 300.283 312.299 299.42 312.361 298.683Z"/><path d="M342.28 338.651L342.529 339.158C342.338 340.582 335.587 346.358 334.257 347.772C333.522 348.553 330.975 351.194 330.209 351.828L330.015 351.142C330.281 350.311 340.779 340.053 342.28 338.651Z"/><path d="M293.057 398.779L293.445 398.923L293.341 399.359C290.654 401.155 290.056 400.696 287.62 401.766L287.42 401.856L287.086 401.694C287.442 401.122 291.837 399.381 293.057 398.779Z"/><path d="M313.128 387.818L313.477 388.131L313.303 388.53C312.33 389.255 311.368 390.152 310.185 390.236L310.047 390.134L310.02 389.785C310.921 388.877 311.986 388.421 313.128 387.818Z"/><path d="M281.932 403.51L282.166 403.884L281.909 404.258C281.118 404.501 280.923 404.565 280.212 404.996L280.055 405.093L279.844 404.508C280.254 403.965 281.241 403.747 281.932 403.51Z"/></svg>