<?xml version="1.0" encoding="utf-8" ?><svg xmlns="http://www.w3.org/2000/svg" xmlns:xlink="http://www.w3.org/1999/xlink" width="446" height="386" viewBox="0 0 446 386"><path fill="#0E0D0E" d="M213.885 38.1047C219.469 37.6121 227.403 38.0806 232.925 38.4492C271.093 41.0198 307.265 56.4408 335.546 82.1993C363.416 107.218 382.432 140.591 389.747 177.321C406.489 261.504 359.985 346.205 278.585 375.224C261.617 381.273 245.917 384.123 227.956 385.11C185.189 387.56 139.838 371.262 107.66 343.128C72.8165 312.506 51.5145 269.333 48.4116 223.049C45.4794 176.881 60.907 131.424 91.3346 96.5786C98.966 87.9386 105.929 81.6833 114.855 74.6504C144.971 50.9239 176.153 40.4766 213.885 38.1047ZM231.336 377.886C323.218 371.96 392.852 292.597 386.781 200.726C380.71 108.854 301.237 39.3454 209.375 45.5625C117.719 51.7657 48.3999 131.022 54.4576 222.687C60.5153 314.353 139.661 383.798 231.336 377.886Z"/><path fill="#0E0D0E" d="M108.959 114.313C109.965 114.211 110.977 114.177 111.988 114.212C114.879 114.342 117.6 115.616 119.551 117.755C122.243 120.703 122.716 123.924 122.537 127.753C128.715 123.672 135.331 124.14 139.983 130.264C142.205 133.135 143.137 136.798 142.557 140.382C142.323 141.893 140.639 145.191 139.882 146.314C137.934 149.203 126.458 166.121 124.617 167.437L124.101 167.263C120.075 164.544 115.719 161.231 111.717 158.347L86.0942 139.699C87.8124 137.072 90.1898 134.045 92.1195 131.423C95.6113 126.679 99.0496 121.128 103.431 117.191C105.254 115.554 106.655 114.899 108.959 114.313ZM113.526 147.69C116.346 149.149 119.63 151.83 122.158 153.806L123.685 155.045C126.116 151.996 128.183 149.07 130.397 145.898C134.254 140.371 134.466 134.113 125.986 133.77C120.852 135.962 116.936 144.071 113.526 147.69ZM98.1481 136.582C101.069 138.299 103.444 140.391 106.123 142.021L107.008 142.753C107.693 142.591 113.034 134.926 113.892 133.579C116.984 128.724 115.83 123.008 109.089 123.516C106.271 124.955 100.225 133.733 98.1481 136.582Z"/><path fill="#0E0D0E" d="M158.401 73.8074C158.906 73.7667 159.411 73.7359 159.917 73.7149C163.319 73.5849 166.749 75.0022 169.213 77.3236C171.806 79.7887 173.297 83.1937 173.351 86.7709C173.453 91.593 171.17 94.3357 168.039 97.6209L168.06 97.9569C171.983 98.7274 174.308 98.9594 177.853 100.921C182.38 103.427 186.926 105.998 191.51 108.389C189.103 110.06 184.08 112.946 181.45 114.088C176.052 111.792 169.99 107.576 164.314 105.475C159.111 103.549 157.474 104.798 152.786 106.981C153.458 108.196 154.125 109.414 154.785 110.635C157.146 115.236 160.056 120.26 162.666 124.735C159.916 126.146 156.84 127.647 154.348 129.434C151.901 125.98 146.745 116.094 144.419 111.817C140.295 104.238 134.863 95.2926 131.041 87.6672C134.628 85.1279 139.441 82.8882 143.384 80.7813C148.008 78.3107 153.271 74.7697 158.401 73.8074ZM143.364 90.0851C144.512 91.85 148.504 99.6832 149.493 100.203L149.872 100.031C155.468 97.1689 162.168 94.5683 164.44 88.4188C163.265 85.4639 161.334 82.3776 157.689 82.7796C152.735 84.2036 147.98 87.8479 143.364 90.0851Z"/><path fill="#0E0D0E" d="M172.058 304.304C185.08 303.096 200.658 312.027 196.71 327.077C192.635 326.281 190.635 325.662 186.748 324.175C187.045 322.83 187.247 321.644 187.461 320.282C183.476 310.925 170.183 311.375 170.989 316.181C172.33 324.18 191.505 329.783 191.077 340.999C190.713 350.532 185.242 356.329 176.148 356.632C167.639 356.298 159.84 353.922 154.475 346.755C150.974 342.078 151.404 336.388 152.361 330.902C155.58 331.606 158.588 332.4 161.766 333.246C161.664 337.07 161.209 339.992 163.981 343.255C167.192 347.034 174.368 349.645 178.64 346.02C180.377 344.546 180.436 342.539 180.435 340.392C175.181 332.994 163.54 329.698 161.384 320.435C159.52 312.421 164.372 306.047 172.058 304.304Z"/><path fill="#0E0D0E" d="M215.015 59.1112C216.599 59.0128 217.875 59.0569 219.467 59.1096C221.624 62.7512 225.641 72.7877 227.49 77.1981C231.28 86.2397 237.005 97.1717 240.05 106.178C236.631 106.174 233.212 106.215 229.795 106.301C228.281 103.282 226.758 98.8659 225.248 95.5474C222.706 95.5528 219.244 95.8806 216.688 96.0686C214.12 96.3315 208.615 96.3784 205.986 96.3376C205.567 99.2791 203.764 104.461 202.783 107.472C199.485 107.532 195.878 107.529 192.616 107.792C193.813 102.865 197.024 94.6182 198.796 89.5936L209.352 59.4099C211.015 59.2373 213.3 59.1952 215.015 59.1112ZM208.906 88.5292C211.035 88.1331 214.725 88.1984 217.01 88.196C218.793 88.0197 220.193 87.8983 222.002 87.8724C221.231 85.9452 215.254 71.4134 214.552 70.9141C212.838 76.3058 210.998 83.3792 208.906 88.5292Z"/><path fill="#0E0D0E" d="M269.104 68.5351C276.598 68.0264 285.447 72.0877 290.072 78.1045C292.092 80.7318 293.914 89.1445 291.05 91.1123C289.196 91.1815 284.104 89.0255 282.4 88.0897C282.271 86.4001 282.412 84.3461 282.481 82.6249C279.749 79.4952 276.848 77.7747 272.896 76.9032C269.962 76.2561 267.705 78.4613 267.758 81.1005C267.797 83.0598 272.131 86.5428 273.431 87.5682C279.547 92.3951 287.047 97.7664 285.714 106.646C284.91 112.003 280.479 116.98 275.228 118.363C273.81 118.736 272.266 118.759 270.803 118.817C265.44 118.552 258.326 115.936 254.376 112.29C248.084 106.484 247.654 100.996 249.368 93.2948C252.507 93.6943 255.399 94.7639 258.186 96.2163C258.166 97.582 258.108 99.0705 258.23 100.416C258.503 103.412 259.974 106.145 262.526 107.791C266.115 110.106 272.973 111.083 275.482 106.739C277.344 103.513 272.716 99.6894 270.548 97.92C265.789 93.8936 259.528 89.8914 258.2 83.3731C257.551 80.3029 258.167 77.1009 259.909 74.4905C261.975 71.384 265.476 69.2692 269.104 68.5351Z"/><path fill="#0E0D0E" d="M269.513 303.803C270.657 304.706 271.548 310.313 271.808 312.052C266.652 313.302 261.521 315.086 256.429 316.572C254.27 317.203 251.27 318.277 249.128 318.642C249.952 322.483 251.013 326.269 252.303 329.979C258.781 328.544 265.685 325.68 272.625 324.058C273.211 326.837 274.123 329.602 275.047 332.286C268.362 334.228 261.596 336.724 254.842 338.127C255.799 340.636 257.094 345.684 257.896 348.441C261.815 360.334 262.363 358.037 251.506 361.801C249.645 357.377 247.212 348.148 245.654 343.161L240.681 326.909C239.424 322.873 237.57 317.51 236.888 313.442C247.296 310.32 259.107 306.191 269.513 303.803Z"/><path fill="#0E0D0E" d="M339.961 117.21C341.425 117.722 344.47 123.43 344.651 125.176C343.999 126.558 315.915 142.807 311.849 145.454C312.692 146.621 315.436 151.504 316.255 152.98C318.029 156.173 322.556 162.472 323.764 165.518C323.186 166.673 318.555 169.599 317.271 169.855C315.31 167.715 312.202 162.121 310.565 159.391L299.624 141.194C308.659 136.011 317.627 130.711 326.526 125.296C330.568 122.846 335.884 119.273 339.961 117.21Z"/><path fill="#0E0D0E" d="M355.898 192.351C358.783 192.181 362.058 193.101 364.384 194.753C372.005 200.168 372.021 215.271 363.515 219.939C361.459 221.067 359.954 221.4 357.667 221.742C354.348 221.648 350.007 220.915 347.621 218.503C338.907 209.692 342.492 193.335 355.898 192.351ZM358.111 218.081C365.294 216.462 366.753 209.407 365.276 203.101C364.073 197.97 360.118 195.461 355.065 195.771C352.216 196.429 350.16 197.674 348.559 200.244C345.327 205.434 346.449 213.734 351.873 217.049C353.913 218.296 355.799 218.145 358.111 218.081Z"/><path fill="#0E0D0E" d="M240.563 192.562C244.1 192.238 246.902 192.235 250.049 194.209C257.089 198.626 258.019 209.324 253.816 215.965C251.786 219.172 248.709 220.89 245.054 221.658C241.581 221.966 238.473 221.473 235.53 219.573C226.857 213.974 227.223 198.107 236.838 193.661C238.154 193.052 239.147 192.823 240.563 192.562ZM244.807 218.033C254.537 214.998 254.934 201.664 246.762 196.594C245.105 195.566 243.166 195.657 241.274 195.81C234.085 197.813 232.435 204.623 234.045 211.507C235.319 216.956 239.646 218.295 244.807 218.033Z"/><path fill="#0E0D0E" d="M315.769 192.565C320.342 192.548 330.648 192.113 334.046 194.76C341.021 200.192 340.478 211.175 335.551 217.869C335.428 218.002 335.303 218.132 335.175 218.259C331.428 221.963 321.119 221.257 315.709 221.238C315.544 218.788 315.281 193.991 315.769 192.565ZM319.587 217.948C324.192 217.502 328.222 218.447 332.116 215.837C335.952 211.22 336.731 202.575 331.868 198.268C328.665 195.432 323.581 196.882 319.655 196.268C319.518 203.27 319.591 210.903 319.587 217.948Z"/><path fill="#0E0D0E" d="M213.291 313.245C216.685 313.369 220.08 313.475 223.475 313.56C223.551 318.332 222.7 323.21 222.74 327.83C222.844 339.712 221.727 351.723 221.77 363.555L211.642 363.436C211.446 359.088 212.004 352.987 212.143 348.493L213.291 313.245Z"/><path fill="#0E0D0E" d="M317.371 94.6697C318.235 94.7335 323.873 100.321 324.866 101.242C313.821 112.115 302.988 124.028 292.028 135.133C290.41 135.114 286.025 130.175 284.704 128.768C288.846 123.968 293.721 119.337 298.144 114.785C304.595 108.146 311.215 101.575 317.371 94.6697Z"/><path fill="#0E0D0E" d="M139.295 192.846C145.833 192.714 160.222 190.685 160.325 200.677C160.405 208.428 154.582 209.587 148.312 209.721C146.522 209.681 144.424 209.865 142.613 209.979C142.764 213.205 142.56 217.825 142.508 221.143C141.472 221.093 140.09 221.186 139.022 221.228C138.885 218.039 138.554 194.14 139.295 192.846ZM142.712 206.276L142.978 206.255C147.124 205.966 151.232 207.263 155.027 204.704C157.385 201.395 156.632 199.878 154.067 197.044C149.396 196.337 146.884 196.721 142.595 196.415C142.936 198.94 142.742 203.535 142.712 206.276Z"/><path fill="#0E0D0E" d="M279.526 192.809C280.785 192.736 282.247 192.837 283.524 192.893C283.44 200.853 283.619 208.814 283.546 216.774C283.533 218.183 283.547 219.593 283.403 220.996L279.631 221.07C276.223 217.335 268.089 204.219 264.868 199.307C265.16 205.828 264.786 214.397 264.765 221.103L261.074 221.041C260.891 217.227 260.609 195.023 261.466 192.82C262.28 192.779 263.312 192.644 264.1 192.853C265.965 193.348 277.931 212.073 279.534 214.7C279.207 207.407 279.205 200.103 279.526 192.809Z"/><path fill="#0E0D0E" d="M297.66 192.547C298.921 192.501 301.177 192.475 301.582 193.554C302.876 196.998 312.51 218.768 312.554 220.781L312.101 221.129C307.027 221.908 306.447 216.558 305.152 212.686C304.292 212.734 303.424 212.765 302.562 212.802C299.667 212.74 296.638 212.787 293.731 212.789C292.713 215.604 291.609 218.388 290.421 221.135L286.642 220.995C287.417 217.692 295.972 194.584 297.66 192.547ZM294.642 209.509C296.492 209.385 297.911 209.383 299.75 209.404C301.046 209.331 302.429 209.226 303.719 209.238C303.018 207.202 300.42 198.94 299.159 197.696C297.718 201.429 296.235 205.945 294.642 209.509Z"/><path fill="#0E0D0E" d="M85.0431 192.718C85.6746 192.714 86.4246 192.675 87.0319 192.877C89.4975 193.698 100.818 211.537 102.637 214.801C103.264 207.859 102.773 201.113 103.17 194.207C103.268 192.51 104.966 192.634 106.239 193.062C106.788 193.819 106.777 218.39 106.397 221.246L102.475 221.173C98.1079 214.91 91.7191 205.824 87.7974 199.514C87.897 202.424 88.0934 218.458 87.4534 220.152C87.158 220.934 86.7775 221.145 86.0646 221.441C85.0685 221.33 84.4109 220.749 84.356 219.715C84.3071 216.458 84.0969 212.162 84.2816 209.003C84.4617 205.922 83.4287 194.803 85.0431 192.718Z"/><path fill="#0E0D0E" d="M121.317 192.333C125.688 192.053 130.657 193.444 132.448 197.968C132.999 199.358 132.376 200.775 130.91 201.243C129.666 201.024 129.413 200.481 128.694 199.526C126.964 197.225 126.091 195.643 122.87 195.619C120.517 195.555 118.555 196.607 116.949 198.256C113.385 201.936 120.795 204.02 123.313 204.597C127.045 205.453 132.361 206.94 133.6 211.158C134.284 213.482 133.363 216.834 131.664 218.591C128.993 221.354 125.841 221.549 122.177 221.674C115.332 221.096 112.308 219.043 111.125 212.127L114.468 211.606C116.532 216.238 119.064 218.628 124.423 217.975C126.496 217.772 128.139 217.086 129.352 215.322C133.325 209.6 121.2 208.558 117.799 207.097C107.908 202.844 111.623 193.66 121.317 192.333Z"/><path fill="#0E0D0E" d="M165.533 192.856C170.899 193.243 178.215 192.38 183.758 192.784C184.759 192.857 184.857 192.837 185.365 193.451C185.481 194.57 185.567 194.986 185.334 196.12C184.346 196.717 171.147 196.478 168.814 196.441C169.177 198.859 168.885 202.198 169.147 204.907C173.349 204.718 178.409 204.832 182.653 204.954C183.625 204.982 183.939 205.259 184.466 205.921C184.636 206.911 184.566 207.11 184.351 208.102C183.38 208.884 173.14 208.488 171.187 208.505L168.961 208.469C169.009 211.572 169.028 214.676 169.016 217.78C174.268 217.463 180.445 217.798 185.731 217.845C186.582 217.853 186.31 220.126 185.957 220.716C184.022 221.354 168.37 221.234 165.392 221.203C165.324 220.437 165.187 217.117 165.247 216.558C165.562 213.62 164.705 194.034 165.533 192.856Z"/><path fill="#0E0D0E" d="M202.332 192.326C206.995 191.979 211.764 194.037 214.086 198.406C214.441 199.073 214.252 199.809 213.963 200.465C213.258 201.254 212.38 201.35 211.318 201.639C210.556 200.507 209.73 199.18 208.855 198.164C205.842 194.609 200.862 194.832 197.544 197.792C193.261 201.456 193.159 211.783 196.997 215.726C200.26 219.077 205.526 219.049 208.872 215.789C209.938 214.45 210.748 212.303 211.842 211.393C213.059 211.124 214.93 212.016 215.021 213.239C215.207 215.747 211.707 218.692 209.945 219.841C202.182 224.902 191.546 220.027 190.369 210.751C189.174 201.329 192.172 193.761 202.332 192.326Z"/><path fill="#0E0D0E" d="M220.809 192.69C221.176 192.685 221.542 192.685 221.909 192.689C222.972 192.703 223.275 192.715 223.989 193.445C224.383 195.203 224.138 218.969 223.747 221.028L220.34 221.116C220.181 217.371 219.926 195.12 220.809 192.69Z"/><path fill="#0E0D0E" d="M74.9026 193.037C75.6041 192.952 76.0512 192.951 76.7605 192.948C77.1586 193.171 77.5427 193.262 77.5672 193.817C77.7459 197.861 78.6 218.713 76.9893 221.277C76.8593 221.3 76.7288 221.321 76.5979 221.339C75.4316 221.5 75.2232 221.353 74.4371 220.772C73.2339 218.555 74.313 198.508 74.053 194.644C74.0085 193.982 74.4948 193.499 74.9026 193.037Z"/><path fill="#0E0D0E" d="M194.475 351.953C204.035 352.935 205.437 352.23 202.305 362.399C200.937 363.058 194.941 361.625 193.127 361.204C193.249 358.661 194.052 354.633 194.475 351.953Z"/><path fill="#0E0D0E" d="M287.547 337.478L287.704 337.523C288.311 338.059 291.555 344.667 292.217 345.923C289.721 347.433 287.109 348.742 284.406 349.839C282.65 348.881 280.267 344.006 279.053 342.003C281.344 341.014 285.176 338.753 287.547 337.478Z"/><path fill="#0E0D0E" d="M238.77 353.4L239.219 353.468C239.972 354.379 240.403 360.89 240.566 362.587C237.536 362.85 235.076 363.452 231.868 363.576C231.652 363.626 231.566 363.509 231.267 363.365C230.582 361.871 230.334 356.412 230.193 354.42C233.639 353.804 235.329 353.516 238.77 353.4Z"/><path fill="#0E0D0E" d="M146.111 22.314C161.877 20.6956 167.243 44.9123 150.223 48.6953C142.046 49.3542 137.115 45.2567 135.512 37.0559C134.054 29.5927 138.537 23.4717 146.111 22.314ZM150.467 45.4312C152.5 44.8947 155.204 43.5792 155.982 41.5642C159.043 33.6371 154.281 24.9718 145.482 25.5248C135.574 28.9361 137.649 40.5925 145.572 45.0974C147.078 45.9535 148.817 45.716 150.467 45.4312Z"/><path fill="#0E0D0E" d="M186.384 11.3533C193.609 11.4913 196.308 17.2035 197.118 23.5655C198.254 32.4784 193.044 36.8915 184.693 37.7563C183.095 38.0119 179.696 38.7902 178.302 38.6104C177.116 36.638 174.122 16.4979 173.916 13.1651C178.037 12.804 181.932 11.6239 186.384 11.3533ZM177.241 15.8749C178.831 19.0348 180.403 31.1123 180.915 35.2772C182.495 34.8788 183.584 34.7054 185.205 34.4744C187.821 33.9918 190.448 33.5252 192.027 31.1623C195.305 26.2582 192.803 13.9953 185.46 14.5995C182.334 14.7976 180.098 15.5783 177.241 15.8749Z"/><path fill="#0E0D0E" d="M111.894 71.3576C106.96 65.7881 101.652 56.8463 97.4121 50.5881C95.9877 48.4855 110.365 41.2309 112.696 40.5751C117.64 41.868 120.188 44.5531 119.173 49.9392C118.251 51.647 117.861 52.2931 116.609 53.7524C120.023 53.764 128.079 56.2781 130.291 58.3303C129.259 59.5371 128.142 59.9497 126.724 60.608C123.63 59.1939 117.813 56.9298 114.522 56.2301C111.95 57.2146 110.707 58.0627 108.471 59.7008C109.466 61.1726 114.599 68.2218 114.528 69.5358C113.907 70.3419 112.814 70.8355 111.894 71.3576ZM101.636 50.4807C103.091 51.8943 105.427 55.4379 106.469 57.2874C107.758 56.3398 109.225 55.1942 110.56 54.3397C114.427 51.8638 119.679 45.9473 111.68 44.515C106.394 46.1035 105.611 48.3125 101.636 50.4807Z"/><path fill="#0E0D0E" d="M411.82 146.298L412.213 146.532C412.606 147.277 413.2 148.856 413.43 149.767C414.861 155.428 419.785 166.679 410.722 168.499C406.41 169.366 405.072 167.478 402.792 164.375C401.832 166.347 395.997 174.771 393.787 174.605C392.995 173.756 392.812 173.014 392.403 171.927C392.893 170.966 393.089 170.676 393.748 169.819C396.586 166.818 398.941 163.955 400.749 160.208C400.635 158.334 400.095 156.026 399.615 154.217C396.715 154.597 389.97 156.783 388.486 156.48C387.919 155.808 387.68 154.619 387.419 153.728C393.958 150.762 404.619 148.979 411.82 146.298ZM402.222 152.733C403.688 156.803 403.885 160.212 406.564 163.728C408.038 164.69 410.843 165.806 411.924 163.722C413.537 160.614 411.734 153.923 410.645 150.662C410.413 150.576 410.323 150.504 410.103 150.513C407.752 151.511 404.736 152.329 402.222 152.733Z"/><path fill="#0E0D0E" d="M294.765 22.3234C296.963 22.6888 305.349 26.6943 307.386 27.8564C315.502 32.487 311.649 42.4113 302.157 40.822C304.141 45.4826 304.769 49.6817 304.749 54.6759L301.615 53.8983C301.1 52.2911 300.749 50.3041 300.405 48.6259C299.166 40.6523 299.135 40.7878 292.414 36.6331C291.648 38.9723 290.423 41.5649 289.342 43.785C288.355 45.812 287.05 47.591 284.789 46.0678C284.628 45.3886 284.625 45.0948 284.937 44.4133C288.274 37.1306 291.324 29.5447 294.765 22.3234ZM304.49 38.0594C306.483 37.2315 308.802 35.6063 307.691 33.2086C306.096 29.7692 300.216 27.7668 296.895 26.4776C295.833 29.1612 294.811 31.5621 293.445 34.116C296.713 35.2992 301.25 37.8756 304.49 38.0594Z"/><path fill="#0E0D0E" d="M22.878 168.955C26.4044 169.54 30.2046 169.809 33.755 170.388C38.6104 171.181 42.8721 172.056 47.798 172.395C47.5957 173.545 47.431 174.765 47.2554 175.925C42.0027 174.84 33.7716 174.151 28.2554 173.443C31.6067 175.558 46.832 181.696 46.1803 185.381C43.8233 188.512 27.9211 188.835 27.119 190.588C27.61 190.969 32.5855 191.901 33.5616 191.98C37.2095 192.741 41.039 193.143 44.7452 193.504C44.5825 194.652 44.6969 195.721 44.7688 196.877C43.8389 196.664 42.8961 196.572 41.9514 196.449C34.3811 195.467 26.7602 194.772 19.2293 193.511C19.24 191.318 19.2764 190.48 19.6266 188.302C24.0201 187.075 37.9385 184.602 42.5388 184.148C38.0168 182.513 25.1444 175.842 21.2675 173.319C21.5334 171.737 21.6837 170.07 22.878 168.955Z"/><path fill="#0E0D0E" d="M35.7929 129.427C38.4709 129.551 56.9301 137.368 59.8378 139.127C59.2935 140.499 58.8611 142.116 57.306 142.441C50.1005 143.947 42.4513 145.706 35.243 146.933C37.7404 147.886 41.0144 149.429 43.5474 150.521C45.7681 151.478 50.9943 153.484 52.7201 154.609C53.2935 155.868 52.6881 156.805 51.5518 157.449C48.4035 156.666 28.8134 149.516 28.0218 147.421C28.1906 146.331 28.65 145.822 29.2653 144.901C31.3887 143.85 49.4905 140.409 52.5795 140.123C49.722 138.493 35.2181 133.482 34.4635 131.644C34.6008 130.672 35.1483 130.204 35.7929 129.427Z"/><path fill="#0E0D0E" d="M393.9 175.928C396.37 175.945 418.732 181.113 421.164 182.108C421.305 183.017 421.537 184.333 421.248 185.224C420.642 187.093 410.976 191.859 408.892 193.054C405.027 195.162 401.315 197.739 397.357 199.747C396.459 194.123 399.404 193.861 403.935 191.799C401.892 181.938 406.083 181.407 394.251 179.852C394.193 178.601 394.024 177.189 393.9 175.928ZM406.855 190.038C408.966 188.977 411.411 187.759 413.404 186.516C414.702 185.79 416.093 185.044 417.349 184.262C413.482 183.053 409.578 183.029 405.595 181.656C406.259 184.055 406.65 187.509 406.855 190.038Z"/><path fill="#0E0D0E" d="M211.052 8.82177C211.859 8.80234 214.204 8.66969 214.632 9.52228C218.018 16.2726 220.778 23.1039 223.626 30.1408C224.365 31.9673 225.721 35.832 221.412 33.6698C220.536 33.2306 218.521 27.9009 217.969 26.5594C216.642 26.7361 215.048 26.68 213.688 26.6719C211.473 26.7148 209.484 26.7453 207.267 26.66C206.613 29.6693 205.772 31.8351 204.739 34.7524C203.51 34.6294 202.237 34.6422 200.999 34.6272C202.507 29.1211 207.942 15.3354 210.224 9.37465C210.547 9.1594 210.823 8.97511 211.052 8.82177ZM208.274 24.0141C209.579 23.9571 210.883 23.8921 212.187 23.8189C213.628 23.7824 215.443 23.6849 216.849 23.7828C216.381 22.4909 213.012 12.581 212.31 12.1269C211.06 16.1209 209.714 20.0844 208.274 24.0141Z"/><path fill="#0E0D0E" d="M244.43 9.46597C245.278 9.45324 246.464 9.36804 247.205 9.86826C248.737 10.903 254.357 33.8373 254.985 36.9189C253.711 36.7902 252.749 36.802 251.472 36.8105C250.503 34.5072 249.497 30.4223 248.87 27.9838C247.484 28.0027 245.252 27.7237 243.811 27.5866C241.653 27.4483 240.724 27.3883 238.63 26.868C237.75 28.9454 236.555 33.082 234.309 33.9063C233.625 34.1572 232.562 34.1656 231.917 33.8004C231.683 33.668 231.65 33.7002 231.62 33.4453C231.444 31.9643 242.479 11.6798 244.43 9.46597ZM239.95 24.2766C241.157 24.3455 242.122 24.3712 243.308 24.6278C244.851 24.8179 246.583 24.9904 248.102 25.2313C247.737 23.3713 246.17 14.2959 245.403 13.4452C243.573 16.9967 241.834 20.7917 239.95 24.2766Z"/><path fill="#0E0D0E" d="M82.544 62.1035C84.2678 60.688 88.7206 56.6031 90.062 55.7662L92.5824 58.2413C88.6463 61.6328 85.3587 65.3493 81.6661 68.5764C83.2927 70.9177 84.3335 72.0181 86.5253 73.8396C89.0226 71.4658 91.5782 68.9323 94.2187 66.7205C95.4644 65.6771 96.5661 64.8162 98.147 65.5802C99.6912 68.0252 92.7709 72.3783 91.4918 74.1897C91.1867 74.6218 89.4477 76.1856 88.99 76.5635C90.8754 78.5953 92.747 80.6398 94.6049 82.6968C97.2929 80.2522 103.983 73.4717 106.618 72.0483L108.066 74.404C106.182 76.4113 96.1649 86.4226 94.2339 87.231C92.3507 86.6017 77.8777 70.7417 76.1262 68.3729C78.3866 66.5988 80.2183 64.6683 82.1506 62.5512L82.544 62.1035Z"/><path fill="#0E0D0E" d="M270.741 15.0584C275.352 14.7546 280.086 15.9605 282.946 19.8387C284.112 21.4193 284.968 23.9785 284.259 25.8993C284.041 26.1074 283.826 26.4607 283.527 26.3337C281.489 25.4688 280.518 22.5758 279.051 20.9845C276.967 18.7223 276.062 18.5009 273.219 18.2584C266.969 17.725 263.565 23.3211 263.331 28.9135C262.881 34.8991 267.688 38.4701 273.302 38.5574C276.429 38.6061 278.95 37.1552 278.799 33.6831C278.784 33.3267 278.708 33.4116 278.412 33.1381C276.33 32.4634 273.672 32.4142 272.403 31.2097C270.624 26.1241 281.146 30.3416 283.183 30.9449C282.96 32.9722 282.089 37.7733 281.117 39.3513C278.481 43.6325 268.041 41.7402 264.571 39.3391C258.02 34.8051 258.533 25.806 262.611 19.8073C264.608 16.8693 267.385 15.644 270.741 15.0584Z"/><path fill="#0E0D0E" d="M55.8428 97.2852C57.6784 97.1687 61.4533 97.1805 60.8135 100.113C59.5104 101.455 56.8865 100.747 54.9 101.368C52.3538 102.164 49.8873 107.194 51.0056 109.487C54.0557 115.74 60.677 104.933 64.8544 103.529C72.358 101.008 76.7057 108.543 73.3084 114.651C70.8816 118.928 70.0554 120.512 65.006 122.004C63.1778 122.105 60.64 122.39 59.4192 120.852C59.1976 116.157 64.3427 119.305 67.0434 117.363C69.6538 115.485 70.5006 112.96 71.3636 109.983C66.8248 101.193 61.5879 113.028 55.9482 114.583C48.3305 116.683 45.1903 109.957 48.4984 103.811C50.2168 100.618 52.3423 98.4325 55.8428 97.2852Z"/><path fill="#0E0D0E" d="M354.851 59.905C355.574 60.1481 356.936 60.8262 357.684 61.1744C355.188 65.9019 346.884 72.0209 344.52 77.2114C344.19 78.4178 344.28 80.4042 344.982 81.4036C352.897 92.6633 360.835 75.3773 367.304 71.1311L367.55 70.9722C368.389 71.7497 369.355 72.3428 369.659 73.3702C369.606 74.1126 369.251 74.3522 368.734 74.9081C361.49 81.8964 352.354 98.2296 341.523 82.3144C339.444 79.2588 340.72 74.9348 342.972 72.3271C345.388 69.5297 351.897 61.4859 354.851 59.905Z"/><path fill="#0E0D0E" d="M400.319 118.979C400.474 118.972 400.733 118.952 400.88 118.987C401.436 119.119 401.641 119.664 401.803 120.159C403.087 124.069 386.412 127.246 383.935 132.048C383.219 133.437 383.295 134.93 383.728 136.388C384.265 138.199 385.171 139.891 386.921 140.788C391.758 143.268 402.754 135.917 407.84 134.209C408.404 135.098 408.928 135.71 408.921 136.737C408.434 137.719 408.506 137.454 407.471 138.162C403.84 140.193 398.424 141.973 394.859 143.925C385.13 149.252 377.879 138.573 380.663 130.294C382.057 126.151 395.562 120.74 400.319 118.979Z"/><path fill="#0E0D0E" d="M333.399 45.1033C345.148 44.9895 347.86 57.8329 344.276 59.1188C343.122 58.9923 341.976 58.7271 342.017 57.3528C342.253 49.5052 335.516 45.5549 329.067 50.1076C326.612 51.8408 323.947 57.1175 323.442 60.1783C323.091 62.3016 325.035 64.9308 326.491 66.4028C330.647 69.8539 332.767 67.2953 336.846 66.4578C337.803 66.2613 339.229 67.3782 339.109 68.6381C337.634 70.1646 334.415 71.3054 332.3 71.4994C329.416 71.7743 326.545 70.8659 324.344 68.9826C321.89 66.8714 320.387 63.8637 320.171 60.6342C319.59 52.9251 325.566 45.6209 333.399 45.1033Z"/><path fill="#0E0D0E" d="M72.4731 73.4128C73.447 73.9078 74.2349 74.5838 75.1004 75.255C73.7786 77.1058 71.2112 79.9335 69.6284 81.9505C72.0175 83.6678 85.2546 94.8261 85.8217 96.5509C85.9649 96.9867 85.8687 97.5301 85.6354 97.9214C85.2162 98.6246 84.9769 98.7554 84.2423 98.9968C82.8026 98.8443 78.8722 95.2234 77.5948 94.1416C74.1944 91.0445 70.5465 87.9743 67.0534 84.9599C65.7825 86.3384 60.6834 93.5006 59.2854 88.913C59.6264 86.7937 70.4948 74.8995 72.4731 73.4128Z"/><path fill="#0E0D0E" d="M385.161 95.0945C386.43 95.1852 387.363 95.8819 387.989 96.9062C389.093 98.7116 397.207 110.534 397.244 111.852C396.641 112.846 395.872 113.264 394.914 113.943C393.355 111.69 391.422 109.065 390.3 106.613C388.501 108.098 381.721 112.171 379.609 113.458C377.147 115.3 373.962 117.281 371.344 119.171C370.598 118.226 369.866 117.269 369.148 116.302C373.415 112.523 382.772 107.783 388.117 103.532C386.59 100.96 382.873 98.0093 385.161 95.0945Z"/><path fill="#0E0D0E" d="M375.494 80.9343C376.689 81.1639 377.393 82.0143 377.509 83.1821C376.897 84.7284 362.175 96.0076 359.871 97.4699C360.122 97.7321 360.369 97.999 360.61 98.2702C361.928 99.7601 367.432 106.374 367.347 107.875C366.751 108.698 366.167 108.829 365.22 109.234C363.365 107.078 356.552 98.3955 355.385 96.3393C357.257 94.664 361.103 91.8182 363.177 90.1788C366.641 87.4405 371.767 83.1526 375.494 80.9343Z"/><path fill="#0E0D0E" d="M41.1586 117.867C43.538 118.592 48.2885 121.336 50.6808 122.619C55.1931 125.04 60.0528 127.516 64.3872 130.188C63.6086 131.314 63.2657 131.888 62.6415 133.107C58.4522 132.494 45.8774 124.403 41.541 122.346C38.8831 121.085 39.6913 119.712 41.1586 117.867Z"/><path fill="#0E0D0E" d="M124.088 32.707C125.445 33.1583 136.222 53.0731 137.317 55.0788C136.522 55.6343 135.396 56.2495 134.539 56.7514C134.433 56.7273 134.345 56.7099 134.238 56.6526C133.25 56.1198 122.124 36.534 121.087 34.0636L124.088 32.707Z"/><path fill="#0E0D0E" d="M321.268 35.4597C322.228 35.5231 322.582 35.4487 323.284 36.0362C324.217 38.5219 314.025 53.4785 312.795 56.7387C312.531 57.4366 311.678 58.6383 311.017 59.0952C310.244 58.5774 309.071 58.107 308.199 57.7161C310.036 54.239 312.017 50.7095 313.88 47.2391C315.693 43.8617 318.092 37.5018 321.268 35.4597Z"/><path fill="#0E0D0E" d="M26.0015 156.44C33.0627 157.363 43.7108 162.29 51.0515 163.133C50.4015 164.602 50.1534 165.146 49.8149 166.696C49.3716 166.666 45.8056 165.779 45.3876 165.636C42.4121 164.613 26.1569 161.195 25.2326 158.9C25.2572 157.826 25.5436 157.388 26.0015 156.44Z"/><path fill="#0E0D0E" d="M82.1506 62.5512C77.0768 61.2473 78.6394 54.5935 82.2149 55.8221C83.7261 57.7826 82.1075 60.8832 82.544 62.1035L82.1506 62.5512Z"/><path fill="#0E0D0E" fill-opacity="0.015686275" d="M108.299 70.361C110.464 71.3204 111.998 74.2341 109.516 75.9218L110.034 74.9138C109.88 72.1416 108.515 72.6346 108.299 70.361Z"/><path fill="#0E0D0E" fill-opacity="0.019607844" d="M178.671 40.0773C180.714 40.787 181.566 39.9868 182.495 40.4333L182.201 40.812C181.311 41.0162 178.763 41.628 178.144 40.9628L178.671 40.0773Z"/><path fill="#0E0D0E" fill-opacity="0.36862746" d="M302.592 56.2068C303.168 56.0105 304.058 56.3965 304.604 56.6036L304.669 57.0408C303.842 57.2641 303.525 56.9762 302.594 56.6618L302.592 56.2068Z"/><path fill="#0E0D0E" fill-opacity="0.7764706" d="M391.215 174.147L391.587 174.475C391.947 175.615 391.943 175.819 391.94 177.022L391.463 176.761C391.078 176.014 391.203 175.032 391.215 174.147Z"/><path fill="#0E0D0E" fill-opacity="0.19215687" d="M359.449 105.33L359.849 105.276C360.529 106.116 360.65 106.255 361.026 107.261C360.329 106.925 359.649 106.085 359.449 105.33Z"/><path fill="#0E0D0E" fill-opacity="0.027450981" d="M282.644 47.2276C283.826 47.426 284.415 47.8802 285.414 48.5078C283.954 48.4545 283.681 48.2565 282.644 47.2276Z"/></svg>