<?xml version="1.0" encoding="utf-8" ?><svg xmlns="http://www.w3.org/2000/svg" xmlns:xlink="http://www.w3.org/1999/xlink" width="480" height="320" viewBox="0 0 480 320"><path fill="#D0AE54" d="M238.146 66.1207C241.551 65.5084 244.026 67.4743 246.685 69.3897C264.031 81.8817 274.527 102.751 271.21 124.236C270.755 127.184 265.741 127.284 265.479 124.325C265.313 122.169 265.766 119.946 265.821 117.79C265.963 112.17 265.168 105.075 262.77 99.9678C255.718 103.579 249.151 108.445 244.105 114.589C241.722 117.49 240.368 117.843 237.663 115.358C222.751 98.8545 202.795 93.8224 181.313 96.1564C179.469 96.3567 177.935 91.5795 180.501 90.9975C189.902 88.8654 203.592 89.5611 212.684 92.6736L212.808 92.3804C216.915 82.8576 225.504 74.5353 233.991 68.8143C235.083 68.0782 237.101 66.5421 238.146 66.1207ZM229.022 80.5142C231.513 81.6159 234 82.7183 236.339 84.1292C240.117 86.4092 248.8 90.4029 241.534 94.7831C238.81 93.2948 236.601 91.1452 233.956 89.4275C231.226 87.6541 227.485 86.3091 224.895 84.6711C223.453 86.7322 219.359 92.3677 218.426 94.4263C221.039 95.7419 223.666 97.0269 226.308 98.2811C230.765 100.834 237.14 105.66 240.546 109.507C245.496 102.805 253.318 98.3084 260.529 94.5344C256.412 86.679 250.534 79.5225 243.252 74.3909C242.43 73.8114 240.595 72.5249 239.723 72.1944C235.744 74.9693 232.636 77.1824 229.022 80.5142Z"/><path fill="#D0AE54" d="M192.761 103.362C202.838 103.156 212.77 105.787 221.424 110.955C223.77 112.359 229.903 115.406 225.756 118.51C223.47 120.22 219.115 116.307 217.01 115.124C211.069 111.787 205.538 110.514 198.849 109.558C198.115 114.62 199.097 122.484 200.576 127.356C201.59 130.696 202.642 133.293 203.451 136.845C199.897 138.295 196.154 139.33 192.545 140.789C182.812 144.722 174.496 150.953 167.507 158.734C163.96 163.018 158.935 170.59 157.338 175.892C155.198 182.997 150.572 178.745 150.834 177.017C151.942 169.738 157.846 160.913 162.325 155.125C163.938 153.041 167.281 150.143 169.272 148.079C162.888 139.702 157.958 125.484 158.449 114.932C165.224 108.11 183.226 103.772 192.761 103.362ZM166.457 130.7C168.808 129.166 186.997 117.167 185.824 126.365C185.651 127.719 181.288 129.298 179.944 129.868C175.649 131.828 172.617 133.297 168.674 135.985C169.823 137.509 173.15 143.004 173.847 144.761C178.098 141.028 183.487 138.187 188.711 136.054C191.216 135.031 193.88 134.268 196.334 133.105C193.483 127.569 191.62 115.803 192.719 109.733L192.476 109.369L192.132 109.407C184.242 109.849 176.681 111.708 169.491 114.966C166.347 116.392 164.018 116.546 164.57 120.546C165.036 123.925 166.04 127.388 166.457 130.7Z"/><path fill="#D0AE54" d="M267.981 70.7233C271.358 70.2844 273.788 75.0015 275.318 77.5234C280.269 85.6896 283.245 94.1043 285.047 103.449C296.178 102.299 309.954 107.083 319.39 112.759C322.784 114.8 321.477 119.235 321.054 122.669C319.926 131.838 316.895 139.104 312.04 146.886C310.613 149.253 310.307 149.457 308.051 151.034C306.576 150.445 305.345 149.746 304.1 148.775C298.685 144.548 293.288 141.643 286.713 139.605C284.236 138.837 279.251 137.733 277.315 136.399C277.092 134.024 278.545 128.897 278.996 126.245C280.778 116.108 280.078 105.691 276.954 95.8841C274.765 88.9162 271.782 82.8817 267.724 76.8601C266.798 75.4867 265.472 74.3831 265.706 72.7444C266.251 71.7837 267.064 71.3469 267.981 70.7233ZM283.531 132.737C290.718 134.407 297.104 136.71 303.169 140.918C304.352 141.739 306.22 142.857 307.227 143.842C310.893 136.778 312.082 134.539 314.137 126.69C314.666 123.638 315.175 120.583 315.664 117.525C313.01 114.974 305.9 112.509 302.407 111.295C302.881 115.425 302.903 119.309 302.697 123.431C302.545 126.467 302.767 128.348 299.264 128.837C298.361 128.963 297.557 128.593 297.015 127.886C296.666 127.428 296.454 126.882 296.401 126.309C296.274 124.818 296.685 121.51 296.737 119.874C296.842 116.535 296.694 113.512 296.401 110.189C293.104 109.411 289.063 109.107 285.658 109.007C285.591 117.162 286.663 124.735 283.531 132.737Z"/><path fill="#D0AE54" d="M212.011 186.257C215.227 186.798 216.391 187.644 215.608 191.149C213.637 199.971 215.415 207.381 217.608 215.958C224.165 212.685 230.162 209.006 234.891 203.32C235.789 202.241 237.239 200.744 238.597 200.379C240.928 200.497 244.506 205.32 246.535 207.103C259.065 217.999 275.393 223.502 291.963 222.415C294.408 222.273 299.581 222.453 296.732 227.367C295.921 228.765 290.965 228.497 289.184 228.491C281.645 228.52 270.622 226.954 263.612 224.038C257.648 233.695 250.07 241.843 239.497 246.465C239.075 246.338 238.658 246.193 238.248 246.031C228.155 241.993 216.75 229.292 212.815 219.213C209.404 211.113 208.025 201.759 209.164 193.031C209.497 190.483 209.199 187.359 212.011 186.257ZM220.288 220.974C223.811 227.391 228.804 232.41 234.546 236.879C236.902 238.713 238.549 240.441 241.379 238.638C243.563 237.247 245.687 235.298 247.839 234.065C245.779 233.187 244.046 231.607 242.284 230.191C238.857 227.484 231.901 222.85 238.401 219.442C239.131 219.722 240.107 220.106 240.668 220.642C244.275 224.089 247.95 226.964 251.944 229.964C253.297 228.213 256.804 223.207 258.04 221.851C249.926 217.599 245.214 214.846 238.804 207.907C232.987 214.207 228.316 217.538 220.288 220.974Z"/><path fill="#D0AE54" d="M326.68 136.992C329.976 136.87 331.215 139.115 330.411 142.104C326.894 155.185 318.978 164.803 307.672 171.973C308.584 174.153 310.036 176.504 311.143 179.064C314.373 186.57 316.726 195.226 316.477 203.433C316.396 206.073 311.333 207.742 309.276 208.592C298.986 212.863 287.726 214.249 276.708 212.6C266.636 211.008 255.547 205.913 248.821 198.044C247.012 195.928 249.493 194.364 251.079 193.416C254.687 194.74 255.226 196.4 258.113 198.561C262.247 201.655 267.526 204.443 272.554 205.727C273.543 205.98 276.273 206.806 277.016 206.368L277.049 205.812C277.147 201.38 276.986 197.618 276.017 193.188C275.395 190.182 273.61 187.099 273.282 184.073C273.131 182.676 275.965 181.396 277.247 181.823C279.219 182.481 279.71 184.823 280.296 186.507C282.496 192.832 283.699 200.925 282.622 207.567C292.478 207.357 301.83 206.352 310.773 201.678C309.921 197.198 309.407 192.888 308.42 188.34C304.821 191.626 297.549 194.885 292.751 195.427C290.748 195.26 289.01 191.739 291.229 190.749C296.775 188.275 301.457 186.692 306.3 182.843C305.193 180.071 300.701 172.487 300.329 170.883C302.02 168.701 305.326 166.841 307.516 165.174C314.724 159.703 320.966 152.366 323.564 143.562C324.189 141.445 324.803 138.171 326.68 136.992Z"/><path fill="#D0AE54" d="M171.081 170.413C172.287 170.433 175.397 171.843 174.92 173.166C171.782 181.863 167.627 191.47 168.49 200.899C168.639 202.523 177.996 204.811 179.671 205.468L179.943 205.576C179.095 201.499 178.572 192.287 180.505 188.338C181.537 186.083 186.073 187.255 185.925 189.372C185.526 195.083 185.186 200.717 185.626 206.457C189.691 206.977 191.675 207.107 195.757 206.882L195.702 206.5C194.736 200.121 195.318 187.266 198.303 181.46C199.414 179.3 205.299 179.412 202.996 186.404C200.883 192.82 201.362 202.222 202.052 208.992C203.818 216.121 204.883 222.269 208.563 228.85C210.336 232.373 213.178 235.285 214.86 238.819C216.241 241.722 211.073 242.987 209.927 241.588C203.773 234.074 198.118 222.628 196.831 212.981C186.719 213.071 178.067 211.778 168.706 207.772C166.347 206.762 163.932 205.701 162.005 203.992C161.862 196.058 164.687 175.504 171.081 170.413Z"/><path fill="#985873" d="M271.247 149.424C277.355 149.699 287.844 148.026 285.424 158.874C285.028 160.654 282.853 161.874 281.306 162.569C282.591 164.874 288.12 171.327 288.222 173.085C287.579 173.268 284.669 173.012 283.819 172.96C281.65 171.813 277.627 164.804 275.893 162.393C275.923 165.366 275.617 168.648 276.09 171.48C274.545 171.457 272.989 171.536 271.444 171.596C271.579 166.554 271.727 154.026 271.247 149.424ZM279.483 159.14C283.578 155.589 280.066 153.544 276.167 153.35C275.643 154.227 275.773 158.526 275.994 159.589C276.882 159.818 278.613 159.437 279.483 159.14Z"/><path fill="#985873" d="M200.778 149.377C201.501 149.475 202.226 149.566 202.951 149.653C205.114 156.784 206.542 164.156 208.912 171.347L203.913 171.522C203.555 170.136 203.238 168.648 202.913 167.245C200.798 167.415 197.165 167.292 194.938 167.283C194.587 167.18 194.543 167.237 194.146 167.273C193.165 168.102 192.82 170.078 191.999 170.971C191.333 171.696 187.523 171.502 186.46 171.5C190.822 164.474 194.063 156.697 198.598 149.827C198.845 149.453 200.324 149.406 200.778 149.377ZM195.684 163.427L198.213 163.285C199.557 163.322 200.792 163.334 202.13 163.526C201.467 161.764 200.454 157.43 200.188 155.521L199.898 155.195C198.708 157.685 197.154 161.194 195.684 163.427Z"/><path fill="#985873" d="M251.625 149.281C254.185 149.757 262.34 149.566 265.101 149.282C265.037 150.683 265.058 152.092 265.064 153.495C261.981 153.406 259.067 153.594 255.91 153.415C256.038 155.264 255.997 156.44 255.917 158.273L263.649 157.964C263.579 159.676 263.583 160.354 263.81 162.044C262.153 161.751 257.931 161.59 256.262 161.93C255.861 162.62 255.997 163.146 255.975 164.042C255.973 165.083 255.942 166.124 255.882 167.163C256.624 167.475 263.706 167.307 265.135 167.296C265.064 168.789 265.055 169.778 265.139 171.268C260.484 171.382 256.138 171.319 251.439 171.572C251.607 165.445 251.417 159.29 251.458 153.16C251.466 151.993 251.34 150.386 251.625 149.281Z"/><path fill="#985873" d="M218.576 149.302C220.909 149.144 224.599 149.211 226.343 150.98C226.591 152.08 226.132 152.662 225.789 153.719C225.405 154.903 223.379 154.097 222.461 153.697C220.55 152.865 217.592 152.847 217.976 155.883C219.493 158.395 232.003 160.346 226.463 168.898C225.18 170.878 222.917 171.342 220.767 171.674C218.572 171.801 212.435 171.726 213.117 168.467C213.208 168.032 214.109 166.385 214.368 165.91C217.288 167.507 217.858 167.434 221.189 167.442C227.967 163.221 214.595 162.209 213.642 157.373C212.747 152.83 214.398 150.534 218.576 149.302Z"/><path fill="#985873" d="M231.154 149.551C234.353 149.863 243.548 149.521 247.232 149.466C247.225 151.061 247.307 152.022 247.491 153.611C246.561 153.646 241.829 153.721 241.38 154.151C241.124 157.05 241.343 162.885 241.336 166.063C241.343 167.998 241.383 169.587 241.522 171.517C239.988 171.408 238.333 171.503 236.786 171.553C236.649 168.31 236.526 156.526 236.927 153.747L231.009 153.744C230.839 152.481 230.436 150.599 231.154 149.551Z"/><path fill="#985873" d="M207.058 142.12C207.583 141.969 207.602 142.019 208.113 142.174L208.237 142.569C207.831 143.407 207.278 144.165 206.604 144.809C204.869 146.482 204.483 146.624 202.305 146.556C201.817 146.769 201.788 146.725 201.272 146.659L201.088 146.249C201.303 144.987 202.684 143.241 203.461 142.22L207.058 142.12Z"/></svg>