<?xml version="1.0" encoding="utf-8" ?><svg xmlns="http://www.w3.org/2000/svg" xmlns:xlink="http://www.w3.org/1999/xlink" width="480" height="320" viewBox="0 0 480 320"><path fill="#A77433" d="M284.916 113.28C287.445 112.893 291.472 113.014 294.153 113.015L308.677 113.022L330.325 113.03C335.052 113.033 342.315 112.951 346.861 113.633C349.89 114.111 352.76 115.309 355.23 117.125C366.233 125.249 364.49 135.016 364.497 147.174L364.509 173.057L364.528 206.206C364.53 213.046 364.853 220.705 363.938 227.373C362.695 236.429 354.015 244.46 344.984 245.375C340.354 245.844 335.76 245.811 331.135 245.778L314.989 245.695L254.849 245.737C255.327 245.585 255.491 245.599 255.984 245.549C256.011 244.592 253.719 243.245 254.369 241.116C254.843 240.366 255.293 240.295 256.116 240.003L320.984 239.953C329.005 239.903 337.458 240.308 345.364 239.46C351.19 238.835 357.08 232.083 357.953 226.465C358.634 222.076 358.413 217.774 358.395 213.346L358.34 195.212C358.308 175.786 358.413 156.35 358.362 136.919C358.425 131.854 357.707 127.322 353.84 123.655C351.816 121.736 349.023 120.012 346.238 119.583C339.922 118.61 332.827 118.941 326.445 118.943L293.225 118.946C291.133 118.943 281.655 118.961 280.076 118.651C280.193 117.326 282.88 114.957 283.945 114.056C284.261 113.788 284.585 113.529 284.916 113.28Z"/><defs><linearGradient id="gradient_0" gradientUnits="userSpaceOnUse" x1="233.82001" y1="60.272133" x2="240.34586" y2="89.018532"><stop offset="0" stop-color="#8C5622"/><stop offset="1" stop-color="#AD7E37"/></linearGradient></defs><path fill="url(#gradient_0)" d="M253.069 60.5697C252.889 60.3377 252.713 60.1029 252.54 59.8654C251.951 59.0467 251.955 58.9875 252.083 58.1986C254.407 56.5581 259.229 59.0345 261.264 60.5466C261.086 61.707 260.871 62.3864 260.526 63.5126C261.633 65.0982 262.089 65.6332 263.597 66.8359C262.256 67.2441 260.105 67.262 259.604 68.5139C259.81 69.4221 260.785 70.5524 261.379 71.3362C260.6 71.865 259.91 72.4712 259.19 73.0777C259.785 76.9092 260.882 81.0183 261.556 85.0272C261.826 90.9802 261.825 94.9608 257.523 99.6338C255.312 102.035 252.724 103.554 249.828 104.975C248.742 105.508 246.972 105.734 246.417 106.859C245.641 108.437 245.695 110.419 245.215 112.106L245.048 112.175C244.382 112.459 244.459 112.419 243.907 112.807C242.555 113.759 240.46 113.242 238.934 113.691L238.14 113.647L237.834 112.006C236.24 107.023 235.583 105.315 230.477 103.138C223.469 100.151 223.184 93.3786 222.726 86.6022C222.543 86.5122 222.122 86.3799 221.91 86.3058C220.775 87.1199 221.505 87.8448 220.392 88.7261L220.038 88.5243C219.497 87.3272 219.305 86.2187 219.029 84.9434C218.007 85.8046 217.498 86.8284 216.354 87.6047L215.876 87.3664C214.617 85.4599 215.947 81.8644 216.369 79.5877C215.514 79.5998 214.878 81.5632 213.499 82.0143L213.151 81.7395C212.896 79.9734 214.083 76.4969 214.954 74.8752C215.436 73.9774 216.628 72.7278 216.927 71.7443C214.816 70.5316 210.252 74.5706 208.749 76.0589C209.947 71.235 211.671 66.1443 216.538 64.107C222.721 61.6433 232.544 63.1444 233.953 70.8746C234.841 75.7448 234.264 79.5164 239.337 81.555C243.97 78.9302 243.215 75.9033 244.193 71.1947C245.338 65.6809 248.634 63.444 253.069 60.5697Z"/><defs><linearGradient id="gradient_1" gradientUnits="userSpaceOnUse" x1="242.53185" y1="83.766312" x2="239.59485" y2="113.35866"><stop offset="0" stop-color="#C99E4A"/><stop offset="1" stop-color="#FBD15B"/></linearGradient></defs><path fill="url(#gradient_1)" d="M222.726 86.6022C228.454 84.2702 245.373 85.192 252.12 85.3677C255.165 85.447 258.495 85.2453 261.556 85.0272C261.826 90.9802 261.825 94.9608 257.523 99.6338C255.312 102.035 252.724 103.554 249.828 104.975C248.742 105.508 246.972 105.734 246.417 106.859C245.641 108.437 245.695 110.419 245.215 112.106L245.048 112.175C244.382 112.459 244.459 112.419 243.907 112.807C242.555 113.759 240.46 113.242 238.934 113.691L238.14 113.647L237.834 112.006C236.24 107.023 235.583 105.315 230.477 103.138C223.469 100.151 223.184 93.3786 222.726 86.6022Z"/><path fill="#794729" d="M247.003 153.485C248.745 153.413 249.466 153.557 251.148 153.844C254.269 153.745 258.587 153.195 260.987 155.493C261.268 155.763 262.409 157.257 262.816 157.731C264.04 159.325 265.184 160.942 266.68 162.282C267.206 161.206 266.645 155.42 266.402 154.035C268.212 153.948 270.158 153.938 271.979 153.899L273.134 153.904C274.255 154.192 273.948 153.97 274.664 154.657C275.259 156.127 275.635 172.388 275.434 174.087C275.825 175.268 276.135 176.388 275.888 177.63C275.643 177.955 275.481 178.304 275.078 178.423C268.453 180.394 265.968 176.295 263.835 171.07C263.148 169.713 261.447 166.282 260.169 165.764L259.994 166.949L260.224 174.005C260.617 175.812 260.775 176.729 260.946 178.594C256.966 179.811 254.612 179.033 251.215 176.923C250.493 177.364 250.201 178.916 249.569 178.923C242.732 178.997 235.602 179.529 228.886 178.144C227.58 178.025 227.466 177.356 226.988 176.259C226.982 174.878 227.321 173.065 227.358 171.547C227.501 165.688 227.875 159.927 226.933 154.13C232.846 153.764 241.587 154.322 247.003 153.485ZM235.944 171.206C238.618 171.346 246.005 171.993 248.251 170.948C249.505 171.058 249.368 170.86 250.252 171.524C250.704 172.351 250.562 173.992 250.548 175.007L250.923 174.93C251.54 174.174 251.212 163.302 251.371 161.47C248.706 161.473 245.862 161.524 243.217 161.376C243.099 162.883 247.185 167.737 243.968 169.211C241.706 170.248 238.266 168.51 236.193 170.113C236.007 170.614 235.961 170.656 235.944 171.206Z"/><path fill="#794729" d="M251.148 153.844C254.269 153.745 258.587 153.195 260.987 155.493C261.268 155.763 262.409 157.257 262.816 157.731C264.04 159.325 265.184 160.942 266.68 162.282C267.206 161.206 266.645 155.42 266.402 154.035C268.212 153.948 270.158 153.938 271.979 153.899L273.134 153.904C274.255 154.192 273.948 153.97 274.664 154.657C275.259 156.127 275.635 172.388 275.434 174.087C275.825 175.268 276.135 176.388 275.888 177.63C275.643 177.955 275.481 178.304 275.078 178.423C268.453 180.394 265.968 176.295 263.835 171.07C263.148 169.713 261.447 166.282 260.169 165.764L259.994 166.949L260.224 174.005C259.525 174.636 258.938 175.292 258.014 175.462L257.151 175.664C254.697 175.743 252.915 175.585 250.548 175.007L250.923 174.93C251.54 174.174 251.212 163.302 251.371 161.47C252.138 158.353 251.883 156.836 251.148 153.844Z"/><path fill="#BFB09E" d="M273.134 153.904C274.255 154.192 273.948 153.97 274.664 154.657C275.259 156.127 275.635 172.388 275.434 174.087C275.825 175.268 276.135 176.388 275.888 177.63C275.643 177.955 275.481 178.304 275.078 178.423C268.453 180.394 265.968 176.295 263.835 171.07C266.715 171.767 264.516 175.912 271.936 176.007C272.454 171.444 272.038 159.027 271.979 153.899L273.134 153.904Z"/><path fill="#A77433" d="M273.134 153.904C274.255 154.192 273.948 153.97 274.664 154.657C275.259 156.127 275.635 172.388 275.434 174.087C274.8 174.766 274.217 175.574 273.372 175.815L273.056 175.613C272.989 174.235 273.315 172.569 273.233 171.277C272.863 165.484 273.249 159.624 273.134 153.904Z"/><path fill="#A77433" d="M258.241 165.537C258.606 166.296 258.724 166.738 259.499 167.098L259.994 166.949L260.224 174.005C259.525 174.636 258.938 175.292 258.014 175.462C257.895 172.783 258.02 168.143 258.241 165.537Z"/><path fill="#BFB09E" d="M257.151 175.664C256.873 173.784 256.72 161.898 257.342 160.54L257.721 160.574L258.197 161.369C258.155 162.884 258.14 164.007 258.241 165.537C258.02 168.143 257.895 172.783 258.014 175.462L257.151 175.664Z"/><path fill="#BFB09E" d="M267.575 166.507C265.968 164.375 262.528 160.251 262.816 157.731C264.04 159.325 265.184 160.942 266.68 162.282L266.942 162.418C267.259 163.764 267.402 165.136 267.575 166.507Z"/><path fill="#B19175" d="M258.197 161.369C258.932 162.533 259.944 164.016 260.44 165.262C260.362 165.431 260.288 165.664 260.169 165.764L259.994 166.949L259.499 167.098C258.724 166.738 258.606 166.296 258.241 165.537C258.14 164.007 258.155 162.884 258.197 161.369Z"/><path fill="#BD9C7C" d="M248.251 170.948C249.505 171.058 249.368 170.86 250.252 171.524C250.704 172.351 250.562 173.992 250.548 175.007C252.915 175.585 254.697 175.743 257.151 175.664L258.014 175.462C258.938 175.292 259.525 174.636 260.224 174.005C260.617 175.812 260.775 176.729 260.946 178.594C256.966 179.811 254.612 179.033 251.215 176.923C250.493 177.364 250.201 178.916 249.569 178.923C242.732 178.997 235.602 179.529 228.886 178.144C232.349 177.203 235.814 177.912 237.378 177.231C239.309 177.257 246.321 177.765 247.537 177.043C247.971 176.268 247.916 176.612 247.753 175.754C248.458 174.746 247.488 172.178 248.251 170.948Z"/><path fill="#B19175" d="M247.003 153.485C248.745 153.413 249.466 153.557 251.148 153.844C251.883 156.836 252.138 158.353 251.371 161.47C248.706 161.473 245.862 161.524 243.217 161.376C242.672 161.029 240.064 161.042 239.466 161.475L238.841 161.691C237.12 162.265 235.635 162.121 233.926 161.68C233.47 161.592 233.56 161.552 233.17 161.157C233.012 160.21 232.925 160.531 233.34 159.815C235.581 158.214 244.424 158.825 247.551 158.96C247.573 156.773 247.603 155.596 247.003 153.485Z"/><path fill="#ECD5A5" d="M233.926 161.68C235.239 160.823 237.324 160.594 238.637 161.545L238.841 161.691C237.12 162.265 235.635 162.121 233.926 161.68Z"/><defs><linearGradient id="gradient_2" gradientUnits="userSpaceOnUse" x1="241.90073" y1="170.36797" x2="236.10814" y2="164.62111"><stop offset="0" stop-color="#BE9F7B"/><stop offset="1" stop-color="#A4826C"/></linearGradient></defs><path fill="url(#gradient_2)" d="M239.466 161.475C240.064 161.042 242.672 161.029 243.217 161.376C243.099 162.883 247.185 167.737 243.968 169.211C241.706 170.248 238.266 168.51 236.193 170.113C236.007 170.614 235.961 170.656 235.944 171.206L235.884 171.451C235.065 171.62 233.871 171.619 233.007 171.651C232.931 169.757 232.657 167.823 233.776 166.29C234.595 165.775 239.29 165.988 240.743 165.927C241.584 165.504 241.33 165.76 241.759 164.993C241.639 163.408 240.061 163.538 239.466 161.475Z"/><path fill="#BD9C7C" d="M233.776 166.29C234.595 165.775 239.29 165.988 240.743 165.927L240.866 166.5C240.134 167.513 235.581 166.833 234.165 166.709L233.776 166.29Z"/><path fill="#BFB09E" d="M226.988 176.259C227.864 175.307 233.208 175.829 234.625 175.958C238.933 175.817 243.43 175.816 247.753 175.754C247.916 176.612 247.971 176.268 247.537 177.043C246.321 177.765 239.309 177.257 237.378 177.231C235.814 177.912 232.349 177.203 228.886 178.144C227.58 178.025 227.466 177.356 226.988 176.259Z"/><path fill="#B19175" d="M226.988 176.259C227.864 175.307 233.208 175.829 234.625 175.958C233.72 176.011 231.593 175.964 231.061 176.429L231.17 176.795C232.695 177.215 235.598 177.036 237.378 177.231C235.814 177.912 232.349 177.203 228.886 178.144C227.58 178.025 227.466 177.356 226.988 176.259Z"/><defs><linearGradient id="gradient_3" gradientUnits="userSpaceOnUse" x1="157.78316" y1="179.91049" x2="113.61513" y2="177.98494"><stop offset="0" stop-color="#C68F44"/><stop offset="1" stop-color="#E8B251"/></linearGradient></defs><path fill="url(#gradient_3)" d="M155.124 245.773C135.287 245.752 115.517 248.221 115.107 220.316C115.015 214.037 115.139 207.598 115.148 201.311L115.159 163.188C115.173 157.623 115.158 152.058 115.113 146.492C115.027 138.674 114.266 130.309 118.239 123.278C125.683 110.105 141.682 113.416 154.311 113.156C154.634 114.71 155.243 116.84 154.782 118.313C154.261 118.664 154.206 118.653 153.574 118.77C145.866 118.783 131.765 117.649 126.042 123.258C119.541 129.631 120.975 142.796 120.987 151.297C121.083 172.053 120.92 192.811 121.039 213.567C121.079 220.697 120.516 229.586 126.017 234.919C132.819 241.512 143.478 239.801 152.315 240.1C152.984 240.504 154.524 240.381 155.387 240.378C155.473 242.759 155.468 243.386 155.124 245.773Z"/><path fill="#EEBE60" d="M241.316 189.831C243.216 189.542 246.005 189.41 247.919 189.555C254.76 190.071 261.461 187.918 266.19 194.136C270.795 198.964 266.828 199.712 267.523 202.045C268.278 202.456 268.553 202.561 269.171 203.184C269.483 205.657 264.496 208.896 264.223 210.375C264.62 211.099 265.669 212.796 265.89 213.422L266.606 214.653C266.89 215.48 267.094 215.847 266.853 216.705C265.115 219.328 259.779 217.95 257.185 217.363C256.809 216.74 256.246 215.874 255.946 215.243C255.613 213.887 254.944 212.669 254.571 211.245C253.593 209.863 253.31 209.834 251.687 209.871C251.923 212.611 252.101 215.081 252.195 217.828L251.943 217.789C249.051 217.364 240.15 219.123 241.516 214.465C242.12 212.739 241.592 210.038 242.456 207.995L242.49 207.14L242.179 206.99C240.388 208.496 240.362 214.236 238.252 216.492C235.993 218.235 232.487 217.838 229.827 217.491L229.465 217.443C230.195 216.742 231.496 215.992 232.389 215.435C235.163 213.885 236.172 213.453 237.641 210.697L238.069 209.191C238.393 207.435 238.829 204.468 240.533 203.554C241.461 203.534 241.091 203.467 242.007 204.002C242.175 204.471 242.259 204.663 242.481 205.11C243.066 204.355 242.717 202.782 242.114 202.092C242.285 201.328 242.219 198.746 242.218 197.829C241.73 195.409 242.109 192.997 241.316 189.831Z"/><defs><linearGradient id="gradient_4" gradientUnits="userSpaceOnUse" x1="253.13461" y1="189.14276" x2="253.62735" y2="195.25551"><stop offset="0" stop-color="#C28B39"/><stop offset="1" stop-color="#DDAB52"/></linearGradient></defs><path fill="url(#gradient_4)" d="M241.316 189.831C243.216 189.542 246.005 189.41 247.919 189.555C254.76 190.071 261.461 187.918 266.19 194.136C264.997 194.27 263.31 195.232 262.441 195.144C259.807 194.877 250.296 192.816 248.397 194.803C244.424 194.931 242.349 193.166 242.218 197.829C241.73 195.409 242.109 192.997 241.316 189.831Z"/><path fill="#BD9C7C" d="M246.956 206.493C247.114 206.796 247.436 207.478 247.645 207.687L248.225 207.588C249.19 208.37 250.792 208.934 250.866 208.996C251.127 209.315 251.355 209.67 251.687 209.871C251.923 212.611 252.101 215.081 252.195 217.828L251.943 217.789C249.051 217.364 240.15 219.123 241.516 214.465C242.12 212.739 241.592 210.038 242.456 207.995L242.758 208.276C243.608 208.255 246.106 206.935 246.956 206.493Z"/><path fill="#CA954A" d="M246.956 206.493C247.114 206.796 247.436 207.478 247.645 207.687C248.045 209.536 248.151 213.222 248.149 215.236C245.641 215.148 243.955 215.159 241.516 214.465C242.12 212.739 241.592 210.038 242.456 207.995L242.758 208.276C243.608 208.255 246.106 206.935 246.956 206.493Z"/><defs><linearGradient id="gradient_5" gradientUnits="userSpaceOnUse" x1="260.85626" y1="215.17828" x2="259.39804" y2="207.34474"><stop offset="0" stop-color="#A9713D"/><stop offset="1" stop-color="#D5A048"/></linearGradient></defs><path fill="url(#gradient_5)" d="M262.706 205.866C262.589 206.618 262.411 206.888 261.998 207.525C261.804 209.428 263.937 212.933 265.89 213.422L266.606 214.653C266.89 215.48 267.094 215.847 266.853 216.705C265.115 219.328 259.779 217.95 257.185 217.363C256.809 216.74 256.246 215.874 255.946 215.243C255.613 213.887 254.944 212.669 254.571 211.245C254.963 210.634 254.981 210.519 255.198 209.815C254.977 209.337 254.713 208.893 254.453 208.435L254.013 207.256C254.597 207.584 254.906 207.822 255.556 207.922C256.909 207.989 258.687 207.926 260.073 207.917L261.248 206.625L262.706 205.866Z"/><path fill="#BD9C7C" d="M257.042 214.373C258.75 215.364 264.774 215.337 266.606 214.653C266.89 215.48 267.094 215.847 266.853 216.705C265.115 219.328 259.779 217.95 257.185 217.363C256.809 216.74 256.246 215.874 255.946 215.243L257.042 214.373Z"/><path fill="#D5A050" d="M255.198 209.815C256.008 211.256 257.132 212.782 257.042 214.373L255.946 215.243C255.613 213.887 254.944 212.669 254.571 211.245C254.963 210.634 254.981 210.519 255.198 209.815Z"/><path fill="#BD9C7C" d="M257.836 210.054C259.298 210.624 259.602 211.926 259.406 213.42C257.506 212.763 257.615 211.902 257.836 210.054Z"/><path fill="#F1CD80" d="M249.283 196.207L249.362 196.159C250.261 195.614 250.48 195.678 251.493 195.772C252.56 196.537 253.357 197.636 254.267 197.915C254.834 197.187 255.228 196.549 256.084 196.188C256.967 196.172 257.738 196.896 257.644 197.715L257.411 197.742C256.666 197.836 256.419 197.843 255.731 198.185C255.395 198.939 255.468 198.628 255.593 199.507C256.083 199.496 256.724 199.381 257.026 199.627C255.129 199.72 250.131 200.174 248.378 200.523C248.049 200.241 248.1 200.394 248.017 200.067L248.332 200.226L248.73 200.09C249.171 198.946 248.939 197.262 249.207 195.87L249.283 196.207Z"/><path fill="#F0C56E" d="M249.283 196.207L249.362 196.159C250.261 195.614 250.48 195.678 251.493 195.772C250.882 196.084 250.513 197.625 249.713 198.576L249.419 198.506C249.144 197.425 249.145 197.288 249.283 196.207Z"/><path fill="#CA954A" d="M237.641 210.697C238.002 211.512 238.213 211.774 238.042 212.64C237.567 213.496 236.679 213.948 235.843 214.494C236.521 215.04 237.67 215.915 238.252 216.492C235.993 218.235 232.487 217.838 229.827 217.491L229.465 217.443C230.195 216.742 231.496 215.992 232.389 215.435C235.163 213.885 236.172 213.453 237.641 210.697Z"/><path fill="#F1CD80" d="M261.248 206.625C261.057 206.097 261.063 206.137 261.174 205.586C262.303 204.612 264.912 200.951 266.162 201.677C266.508 203.24 263.572 206.164 262.706 205.866L261.248 206.625Z"/><path fill="#F0C56E" d="M251.041 208.252C250.399 208.167 250.678 208.282 250.166 207.907L250.361 207.48C251.755 206.829 252.582 206.99 254.013 207.256L254.453 208.435C253.645 209.111 252.117 208.423 251.041 208.252Z"/><path fill="#ECD5A5" d="M248.397 194.803C249.183 195.326 248.981 195.034 249.207 195.87C248.939 197.262 249.171 198.946 248.73 200.09L248.332 200.226L248.017 200.067C248.008 198.595 247.854 196.053 248.397 194.803Z"/><path fill="#EEBE60" d="M150.365 192.726C149.144 182.07 162.112 179.738 170.035 181.146C173.53 181.767 176.562 182.794 180.17 183.086L180.94 183.216C181.925 183.124 181.564 183.038 182.363 183.459C182.963 184.572 182.685 185.894 182.559 187.164L182.186 193.629L180.091 194.94C179.606 194.697 178.065 193.977 177.752 193.677C177.198 193.27 176.573 192.954 175.968 192.622C171.34 191.457 168.949 191.174 164.192 192.529C171.421 193.764 179.204 195.029 183.59 201.725C184.241 202.72 184.443 203.04 184.575 204.246C184.311 206.143 184.079 206.015 182.498 207.411C182.069 207.79 181.195 208.232 180.628 208.297C179.664 207.922 173.315 208.9 171.121 207.44L171.194 207.145C172.141 206.836 172.913 206.594 173.766 206.065L173.702 206.304L173.867 206.327L174.112 205.915L173.762 205.058C164.591 202.386 153.777 204.034 150.365 192.726Z"/><defs><linearGradient id="gradient_6" gradientUnits="userSpaceOnUse" x1="165.12297" y1="181.24904" x2="165.12646" y2="190.74719"><stop offset="0" stop-color="#9B622A"/><stop offset="1" stop-color="#C79347"/></linearGradient></defs><path fill="url(#gradient_6)" d="M150.365 192.726C149.144 182.07 162.112 179.738 170.035 181.146C173.53 181.767 176.562 182.794 180.17 183.086L180.94 183.216C181.925 183.124 181.564 183.038 182.363 183.459C182.963 184.572 182.685 185.894 182.559 187.164L182.186 193.629L180.091 194.94C179.606 194.697 178.065 193.977 177.752 193.677C177.198 193.27 176.573 192.954 175.968 192.622C176.278 192.106 177.113 191.097 177.515 190.582L177.52 190.296C172.352 188.154 163.016 184.892 158.413 189.475C158.195 190.149 158.022 190.695 157.744 191.354C154.986 190.167 153.18 189.394 150.617 191.418C150.5 191.917 150.439 192.22 150.365 192.726Z"/><path fill="#F0C56E" d="M178.658 190.599L179.067 190.878C180.42 190.264 180.612 187.437 182.559 187.164L182.186 193.629L180.091 194.94C179.606 194.697 178.065 193.977 177.752 193.677C177.198 193.27 176.573 192.954 175.968 192.622C176.278 192.106 177.113 191.097 177.515 190.582L178.545 190.823L178.658 190.599Z"/><path fill="#F1CD80" d="M177.515 190.582L178.545 190.823C178.374 191.815 178.29 192.845 177.752 193.677C177.198 193.27 176.573 192.954 175.968 192.622C176.278 192.106 177.113 191.097 177.515 190.582Z"/><path fill="#CA954A" d="M180.94 183.216C181.925 183.124 181.564 183.038 182.363 183.459C182.963 184.572 182.685 185.894 182.559 187.164C180.612 187.437 180.42 190.264 179.067 190.878L178.658 190.599L178.545 190.823L177.515 190.582L177.52 190.296C178.497 187.835 179.382 185.624 180.17 183.086L180.94 183.216Z"/><path fill="#ECD5A5" d="M180.17 183.086L180.94 183.216C181.192 183.627 181.27 183.551 181.12 183.999C180.337 186.339 179.32 188.169 178.658 190.599L178.545 190.823L177.515 190.582L177.52 190.296C178.497 187.835 179.382 185.624 180.17 183.086Z"/><path fill="#CA954A" d="M164.893 188.855C165.422 188.699 165.383 188.706 165.92 188.838L165.631 189.229C163.458 190.278 162.97 190.462 160.562 190.618C160.2 190.676 159.636 190.731 159.354 190.43L159.601 190.059C161.501 188.998 162.805 188.957 164.893 188.855Z"/><path fill="#EEBE60" d="M214.127 194.038C213.993 192.647 213.825 191.4 213.619 190.016L213.862 189.774C215.605 189.345 228.144 189.497 230.55 190.23C231.419 190.495 232.027 190.795 232.819 191.261C235.102 192.443 238.002 195.74 239.21 197.923C240.267 199.723 240.798 200.463 242.114 202.092C242.717 202.782 243.066 204.355 242.481 205.11C242.259 204.663 242.175 204.471 242.007 204.002C241.091 203.467 241.461 203.534 240.533 203.554C238.829 204.468 238.393 207.435 238.069 209.191L237.641 210.697C236.172 213.453 235.163 213.885 232.389 215.435C231.496 215.992 230.195 216.742 229.465 217.443C224.137 217.851 220.28 217.948 214.994 217.267L213.189 215.674L213.752 214.6L213.949 214.467C213.91 211.773 214.166 208.921 214.269 206.197C214.308 202.427 214.368 197.747 214.127 194.038ZM230.418 207.869C231.266 205.54 231.148 203.46 230.862 201.047C229.916 199.954 226.78 197.327 225.34 198.921C222.969 201.546 224.974 206.53 224.292 209.764C225.549 209.683 229.179 208.413 230.418 207.869Z"/><defs><linearGradient id="gradient_7" gradientUnits="userSpaceOnUse" x1="225.42894" y1="214.50533" x2="225.30182" y2="206.83345"><stop offset="0" stop-color="#A66C33"/><stop offset="1" stop-color="#DDA74B"/></linearGradient></defs><path fill="url(#gradient_7)" d="M214.269 206.197C215.003 206.725 215.965 206.496 217.049 207.018C218.115 207.531 219.532 207.973 220.656 208.36C221.34 209.364 220.616 210.303 221.419 210.724C222.399 210.49 223.473 210.323 224.292 209.764C225.549 209.683 229.179 208.413 230.418 207.869C232.291 208.16 232.961 206.935 234.528 207.443C235.144 208.251 234.735 208.259 235.018 208.989C235.742 208.975 236.365 208.882 237.002 209.182L237.106 208.981L238.069 209.191L237.641 210.697C236.172 213.453 235.163 213.885 232.389 215.435C231.496 215.992 230.195 216.742 229.465 217.443C224.137 217.851 220.28 217.948 214.994 217.267L213.189 215.674L213.752 214.6L213.949 214.467C213.91 211.773 214.166 208.921 214.269 206.197Z"/><path fill="#BD9C7C" d="M213.949 214.467C218.988 216.291 227.212 214.272 231.711 214.607L232.389 215.435C231.496 215.992 230.195 216.742 229.465 217.443C224.137 217.851 220.28 217.948 214.994 217.267L213.189 215.674L213.752 214.6L213.949 214.467Z"/><path fill="#CA954A" d="M230.418 207.869C232.291 208.16 232.961 206.935 234.528 207.443C235.144 208.251 234.735 208.259 235.018 208.989C233.123 211.546 224.478 211.137 221.419 210.724C222.399 210.49 223.473 210.323 224.292 209.764C225.549 209.683 229.179 208.413 230.418 207.869Z"/><path fill="#ECD5A5" d="M237.106 208.981L238.069 209.191L237.641 210.697C236.172 213.453 235.163 213.885 232.389 215.435L231.711 214.607C234.454 213.475 236.214 212.101 237.002 209.182L237.106 208.981Z"/><path fill="#CA954A" d="M214.127 194.038C213.993 192.647 213.825 191.4 213.619 190.016L213.862 189.774C215.605 189.345 228.144 189.497 230.55 190.23C231.419 190.495 232.027 190.795 232.819 191.261C231.358 192.418 226.579 193.167 224.607 193.382C223.389 192.934 222.693 192.177 221.328 192.23C217.46 191.62 219.696 194.113 214.516 192.992C214.365 193.36 214.241 193.652 214.127 194.038Z"/><path fill="#F1CD80" d="M237.106 208.981C238.182 205.365 237.005 198.446 237.461 197.336C238.394 197.26 238.299 197.402 239.21 197.923C240.267 199.723 240.798 200.463 242.114 202.092C242.717 202.782 243.066 204.355 242.481 205.11C242.259 204.663 242.175 204.471 242.007 204.002C241.091 203.467 241.461 203.534 240.533 203.554C238.829 204.468 238.393 207.435 238.069 209.191L237.106 208.981Z"/><path fill="#D5A050" d="M221.328 192.23C222.693 192.177 223.389 192.934 224.607 193.382C223.516 194.203 222.092 194.459 220.942 193.632C220.805 192.812 220.805 193.119 221.328 192.23Z"/><path fill="#F0C56E" d="M223.065 194.82C223.94 194.727 225.89 194.549 226.327 195.396L225.957 195.817C224.954 196.275 223.702 196.122 222.574 196.082C222.057 196.618 222.132 197.438 221.169 198.271L220.923 197.91C220.882 196.993 220.779 196.332 221.141 195.478C221.761 194.893 222.203 194.934 223.065 194.82Z"/><path fill="#EEBE60" d="M297.107 189.184C296.971 187.689 296.849 183.21 297.067 181.858C297.309 181.589 297.4 181.374 297.876 181.414C299.218 181.537 300.367 181.98 301.742 181.983C309.345 182.001 316.949 181.987 324.553 181.941C325.383 181.937 326.202 181.919 327.027 181.809C329.15 182.394 329.402 185.408 330.444 187.346C328.41 188.597 328.223 188.974 326.868 190.916C326.594 191.799 326.254 193.324 325.55 193.833C322.15 198.012 319.094 202.38 315.983 206.768C315.671 207.209 314.266 207.987 313.735 208.288C312.715 208.665 311.224 208.409 310.186 208.23L309.498 207.603C308.116 208.62 308.882 208.219 307.193 208.637C303.809 209.475 303.179 207.229 301.25 205.936C302.747 203.243 305.219 199.972 306.926 197.367C307.621 196.305 309.123 194.827 309.562 193.812C308.569 192.767 304.781 194.238 303.332 193.902C302.356 193.675 302.197 192.612 301.183 191.917L300.739 191.838C300.728 190.383 300.473 190.176 299.633 189.007C298.709 189.228 298.014 189.484 297.107 189.184Z"/><defs><linearGradient id="gradient_8" gradientUnits="userSpaceOnUse" x1="311.45773" y1="181.78233" x2="311.57739" y2="188.76743"><stop offset="0" stop-color="#9E6832"/><stop offset="1" stop-color="#BC8841"/></linearGradient></defs><path fill="url(#gradient_8)" d="M297.107 189.184C296.971 187.689 296.849 183.21 297.067 181.858C297.309 181.589 297.4 181.374 297.876 181.414C299.218 181.537 300.367 181.98 301.742 181.983C309.345 182.001 316.949 181.987 324.553 181.941C325.383 181.937 326.202 181.919 327.027 181.809C326.814 182.06 326.442 182.437 326.339 182.716C324.936 185.309 323.38 187.817 321.678 190.225L321.7 188.998L321.346 188.655C319.401 188.713 315.347 188.735 313.597 189.041C313.277 189.541 313.208 189.719 312.711 190.064C309.857 188.35 303.173 188.991 299.633 189.007C298.709 189.228 298.014 189.484 297.107 189.184Z"/><path fill="#F0C56E" d="M327.027 181.809C329.15 182.394 329.402 185.408 330.444 187.346C328.41 188.597 328.223 188.974 326.868 190.916C326.594 191.799 326.254 193.324 325.55 193.833C322.15 198.012 319.094 202.38 315.983 206.768C315.671 207.209 314.266 207.987 313.735 208.288C312.715 208.665 311.224 208.409 310.186 208.23L309.498 207.603C311.927 204.796 319.7 193.615 321.678 190.225C323.38 187.817 324.936 185.309 326.339 182.716C326.442 182.437 326.814 182.06 327.027 181.809Z"/><path fill="#D5A050" d="M327.027 181.809C329.15 182.394 329.402 185.408 330.444 187.346C328.41 188.597 328.223 188.974 326.868 190.916C325.191 191.682 324.764 192.95 323.749 193.068C322.744 191.841 323.434 191.728 322.583 190.62C323.425 188.92 327.001 184.438 326.939 182.933L326.339 182.716C326.442 182.437 326.814 182.06 327.027 181.809Z"/><path fill="#ECD5A5" d="M326.339 182.716L326.939 182.933C327.001 184.438 323.425 188.92 322.583 190.62C321.262 192.674 319.921 194.716 318.562 196.746C317.416 198.381 311.24 207.815 310.186 208.23L309.498 207.603C311.927 204.796 319.7 193.615 321.678 190.225C323.38 187.817 324.936 185.309 326.339 182.716Z"/><path fill="#CA954A" d="M322.583 190.62C323.434 191.728 322.744 191.841 323.749 193.068C324.764 192.95 325.191 191.682 326.868 190.916C326.594 191.799 326.254 193.324 325.55 193.833C321.001 193.809 320.23 196.999 318.562 196.746C319.921 194.716 321.262 192.674 322.583 190.62Z"/><path fill="#794729" d="M173.859 148.91C177.971 147.109 179.353 157.961 174.61 160.433C172.899 160.419 172.043 158.674 171.175 158.565C169.356 158.338 163.018 157.906 161.941 159.324C164.488 159.488 167.042 159.511 169.591 159.392C174.001 158.308 172.936 166.073 173.119 169.063C170.997 169.007 164.344 168.521 162.638 169.36C161.755 171.219 164.91 177.749 162.936 178.159C160.496 178.665 153.561 178.423 151.405 177.43C150.803 176.58 151.039 176.229 151.614 175.358C152.48 171.842 152.602 154.161 151.889 150.389L151.698 149.388C153.586 148.538 169.244 149.532 173.603 148.946L173.859 148.91Z"/><path fill="#B19175" d="M169.591 159.392C174.001 158.308 172.936 166.073 173.119 169.063C170.997 169.007 164.344 168.521 162.638 169.36C161.755 171.219 164.91 177.749 162.936 178.159C160.496 178.665 153.561 178.423 151.405 177.43C150.803 176.58 151.039 176.229 151.614 175.358C153.988 175.876 156.623 175.763 159.058 175.753C158.929 172.53 158.992 169 158.986 165.754C162.892 165.497 166.241 165.496 170.16 165.488C170.18 163.637 170.356 161.013 169.591 159.392Z"/><path fill="#B19175" d="M173.859 148.91C177.971 147.109 179.353 157.961 174.61 160.433C172.899 160.419 172.043 158.674 171.175 158.565C169.356 158.338 163.018 157.906 161.941 159.324L161.8 159.646L161.224 159.764C160.474 160.304 160.196 160.295 159.393 160.005C158.744 158.706 158.955 157.068 159.009 155.602C163.916 155.403 169.245 155.486 174.187 155.481C174.137 153.161 174.083 151.216 173.859 148.91Z"/><path fill="#A77433" d="M159.393 160.005C160.174 158.745 159.35 157.292 160.67 156.791C161.404 157.351 161.197 157.057 161.496 157.885C161.355 158.497 161.102 159.204 161.224 159.764C160.474 160.304 160.196 160.295 159.393 160.005Z"/><path fill="#794729" d="M276.659 176.338C277.42 171.213 277.279 163.567 277.159 158.348C277.149 157.92 276.275 155 276.096 154.393L276.455 154.103C278.686 153.593 289.217 153.55 291.834 154.199C294.516 154.864 296.046 155.828 297.551 158.217C299.535 159.963 301.036 162.773 301.24 165.439C301.421 167.793 300.794 169.047 300.421 171.21C299.908 173.867 299.58 175.54 297.186 177.19C293.145 179.975 284.732 179.481 280.042 178.46C279.361 178.311 278.684 178.148 278.01 177.972C277.299 177.494 277.098 177.055 276.659 176.338ZM285.086 161.297C285.38 164.114 285.957 168.091 285.055 170.787L285.342 171.102C287.124 171.581 289.849 170.644 290.997 169.172C292.7 166.987 292.449 164.06 292.158 161.486C291.3 161.186 290.556 161.061 289.67 160.884C287.736 161.507 287.091 161.588 285.086 161.297Z"/><path fill="#BD9C7C" d="M297.424 159.959C297.195 159.249 297.378 159.021 297.551 158.217C299.535 159.963 301.036 162.773 301.24 165.439C301.421 167.793 300.794 169.047 300.421 171.21C299.908 173.867 299.58 175.54 297.186 177.19C293.145 179.975 284.732 179.481 280.042 178.46C279.361 178.311 278.684 178.148 278.01 177.972C277.299 177.494 277.098 177.055 276.659 176.338C276.832 176.003 276.904 175.948 277.138 175.652C280.621 175.307 284.731 176.003 288.536 175.609C298.549 174.574 298.136 167.818 297.424 159.959Z"/><path fill="#B19175" d="M291.706 176.383C295.058 178.117 298.497 171.515 300.058 170.911L300.421 171.21C299.908 173.867 299.58 175.54 297.186 177.19C293.145 179.975 284.732 179.481 280.042 178.46C279.361 178.311 278.684 178.148 278.01 177.972C278.142 177.898 278.274 177.824 278.406 177.751L278.579 177.662C279.002 177.441 290.801 176.336 291.706 176.383Z"/><path fill="#A77433" d="M297.424 159.959C297.195 159.249 297.378 159.021 297.551 158.217C299.535 159.963 301.036 162.773 301.24 165.439C301.421 167.793 300.794 169.047 300.421 171.21L300.058 170.911C298.497 171.515 295.058 178.117 291.706 176.383C295.093 174.679 296.916 173.348 298.36 169.574C299.109 167.618 299.518 162.141 298.607 160.315C297.916 159.826 298.242 159.913 297.424 159.959Z"/><path fill="#B19175" d="M282.291 159.065C285.028 158.938 291.525 157.878 292.158 161.486C291.3 161.186 290.556 161.061 289.67 160.884C287.736 161.507 287.091 161.588 285.086 161.297C285.38 164.114 285.957 168.091 285.055 170.787L284.924 171.316C284.148 171.799 283.035 171.799 282.08 171.896C281.916 167.376 282.017 163.537 282.291 159.065Z"/><path fill="#A77433" d="M285.086 161.297C284.645 160.686 284.723 160.958 284.669 160.241L285.13 159.868C286.786 159.62 288.218 160.154 289.67 160.884C287.736 161.507 287.091 161.588 285.086 161.297Z"/><path fill="#794729" d="M175.281 175.173C179.473 168.194 180.951 161.115 183.914 154.208C185.374 153.422 190.33 153.788 192.37 153.767C196.379 155.733 196.137 160.042 197.848 163.871C199.28 167.076 201.933 171.794 202.173 175.294C202.497 175.957 202.253 175.758 202.821 176.018L203.321 176.514C203.233 177.297 203.267 177.821 202.782 178.417C200.343 179.533 194.729 179.242 193.416 176.49C193.395 175.326 193.471 175.584 194.173 174.436C192.855 174.498 187.123 174.376 186.606 174.659C186.17 175.976 186.989 177.504 185.415 178.296C183.552 179.234 176.251 178.41 174.944 176.962C174.723 175.988 174.802 176.254 175.281 175.173Z"/><path fill="#BD9C7C" d="M183.276 171.307C185.935 171.171 190.8 170.299 193.046 171.552C194.098 172.139 194.303 173.339 194.567 174.425L194.173 174.436C192.855 174.498 187.123 174.376 186.606 174.659C186.17 175.976 186.989 177.504 185.415 178.296C183.552 179.234 176.251 178.41 174.944 176.962C174.723 175.988 174.802 176.254 175.281 175.173C177.503 175.552 179.003 175.618 181.254 175.731C181.695 173.909 182.243 172.84 183.276 171.307Z"/><path fill="#BD9C7C" d="M192.37 153.767C196.379 155.733 196.137 160.042 197.848 163.871C199.28 167.076 201.933 171.794 202.173 175.294L201.841 175.705L201.258 175.453C200.987 175.032 190.941 154 190.958 154.095L192.37 153.767Z"/><path fill="#B19175" d="M194.173 174.436L194.567 174.425C194.716 174.877 194.746 175.343 195.25 175.516C196.599 175.978 200.079 176.244 201.258 175.453L201.841 175.705L202.173 175.294C202.497 175.957 202.253 175.758 202.821 176.018L203.321 176.514C203.233 177.297 203.267 177.821 202.782 178.417C200.343 179.533 194.729 179.242 193.416 176.49C193.395 175.326 193.471 175.584 194.173 174.436Z"/><path fill="#BD9C7C" d="M187.515 159.475C188.513 160.114 189.441 162.094 190.02 163.181C189.07 164.445 188.514 165.285 189.321 166.7C190.054 167.25 190.412 167.238 191.301 167.314L191.594 167.337L191.406 167.614L191.201 167.554C190.876 167.931 190.775 167.825 190.139 167.936C188.168 168.049 186.19 167.994 184.215 167.969C185.27 165.12 186.37 162.289 187.515 159.475Z"/><path fill="#794729" d="M203.59 152.925C210.028 154.932 216.805 153.53 223.558 153.743L224.34 153.973C225.095 154.735 225.18 155.056 225.221 156.295C225.601 158.751 224.678 159.766 223.382 161.788C221.604 164.562 219.852 167.498 217.095 169.408L216.863 169.878C218.987 170.14 221.094 169.687 222.676 169.861C227.225 169.277 226.793 175.908 225.85 178.595C224.543 179.467 221.646 178.473 219.74 178.467C214.85 178.44 209.867 178.505 204.994 178.254C204.23 177.84 203.858 177.215 203.321 176.514L202.821 176.018L203.256 175.703C205.284 171.63 209.218 165.366 211.696 161.373C208.965 161.978 204.638 162.456 203.565 159.077C203.545 157.026 203.553 154.975 203.59 152.925Z"/><path fill="#BD9C7C" d="M222.676 169.861C227.225 169.277 226.793 175.908 225.85 178.595C224.543 179.467 221.646 178.473 219.74 178.467C214.85 178.44 209.867 178.505 204.994 178.254C204.23 177.84 203.858 177.215 203.321 176.514L202.821 176.018L203.256 175.703C210.242 175.924 215.939 175.839 222.923 175.68C222.943 173.451 222.901 172.076 222.676 169.861Z"/><path fill="#CA954A" d="M204.994 178.254C207.663 176.441 217.052 176.788 219.74 178.467C214.85 178.44 209.867 178.505 204.994 178.254Z"/><path fill="#8B5232" d="M223.558 153.743L224.34 153.973C225.095 154.735 225.18 155.056 225.221 156.295C225.601 158.751 224.678 159.766 223.382 161.788C221.604 164.562 219.852 167.498 217.095 169.408L216.863 169.878C214.973 172.387 215.465 171.557 212.951 171.736C212.928 171.263 212.928 170.48 213.156 170.08C215.551 165.887 220.752 157.058 223.558 153.743Z"/><path fill="#B19175" d="M217.095 169.408C217.311 167.06 222.766 156.415 224.748 155.777L225.221 156.295C225.601 158.751 224.678 159.766 223.382 161.788C221.604 164.562 219.852 167.498 217.095 169.408Z"/><path fill="#BFB09E" d="M223.558 153.743L224.34 153.973C222.409 156.356 214.052 171.159 212.951 171.736C212.928 171.263 212.928 170.48 213.156 170.08C215.551 165.887 220.752 157.058 223.558 153.743Z"/><path fill="#BD9C7C" d="M203.565 159.077C204.734 158.652 211.998 158.943 213.542 159.043C213.117 159.618 212.168 160.97 211.696 161.373C208.965 161.978 204.638 162.456 203.565 159.077Z"/><defs><linearGradient id="gradient_9" gradientUnits="userSpaceOnUse" x1="197.6087" y1="189.85062" x2="197.84593" y2="210.22269"><stop offset="0" stop-color="#D5A245"/><stop offset="1" stop-color="#FED773"/></linearGradient></defs><path fill="url(#gradient_9)" d="M209.099 189.183C210.205 189.093 210.122 188.938 211.016 189.357C212.203 191.003 211.978 196.73 212.003 199.064C209.276 198.706 199.994 197.401 197.955 198.612C199.499 199.812 207.273 198.996 207.834 203.842C207.946 204.816 208.278 205.701 207.729 206.616C205.603 208.889 199.575 206.637 196.84 208.087C196.71 208.934 197.359 209.337 197.975 209.937L197.721 210.263C196.73 210.694 195.342 210.734 194.236 210.83C193.767 210.377 193.124 209.299 192.742 208.711C191.8 208.458 190.938 209.272 189.705 209.498C189.197 209.588 188.675 209.463 188.264 209.152C187.131 208.301 186.707 206.689 186.575 205.357C186.072 200.686 186.888 195.463 186.06 189.742C188.889 189.728 192.172 189.601 195.036 189.556C198.891 189.495 205.602 189.845 209.099 189.183Z"/><path fill="#F0C56E" d="M209.099 189.183C210.205 189.093 210.122 188.938 211.016 189.357C212.203 191.003 211.978 196.73 212.003 199.064C209.276 198.706 199.994 197.401 197.955 198.612L197.686 198.408C197.211 198.226 196.563 198.264 196.034 198.258C195.185 198.413 195.06 198.497 194.311 198.168C193.959 197.435 194.03 197.742 194.325 196.76C194.884 195.685 194.872 196.065 194.724 195.109C195.846 194.779 206.921 195.001 208.933 194.983C209.042 193.161 209.246 190.976 209.099 189.183Z"/><path fill="#EEBE60" d="M194.325 196.76C195.173 196.455 195.619 196.2 196.49 196.478C196.976 197.234 196.63 197.656 196.034 198.258C195.185 198.413 195.06 198.497 194.311 198.168C193.959 197.435 194.03 197.742 194.325 196.76Z"/><path fill="#ECD5A5" d="M194.724 195.109C194.872 196.065 194.884 195.685 194.325 196.76C194.03 197.742 193.959 197.435 194.311 198.168C195.06 198.497 195.185 198.413 196.034 198.258C196.563 198.264 197.211 198.226 197.686 198.408L197.43 199.217C193.758 201.419 190.574 197.221 194.724 195.109Z"/><defs><linearGradient id="gradient_10" gradientUnits="userSpaceOnUse" x1="281.82376" y1="188.36662" x2="285.26794" y2="208.1604"><stop offset="0" stop-color="#D3A144"/><stop offset="1" stop-color="#FEDD7C"/></linearGradient></defs><path fill="url(#gradient_10)" d="M274.144 189.643C278.362 189.401 283.582 189.782 287.877 189.581C289.461 189.507 291.64 189.676 293.16 189.408C294.556 189.544 294.981 189.742 296.16 190.58C297.027 194.225 297.084 195.216 296.948 198.968C293.389 198.75 289.687 198.608 286.153 198.35C283.994 198.275 281.616 198.192 279.483 198.56C281.83 199.033 283.649 199.217 286.041 199.455C287.669 199.86 290.433 200.23 291.128 201.661C291.699 202.838 292.807 205.457 292.637 206.757C292.477 207.006 292.252 207.639 291.106 207.836C287.847 208.396 283.974 207.505 280.656 207.609C280.657 207.609 280.344 207.893 280.252 208.16C280.345 208.946 280.419 209.448 280.381 210.253C279.495 210.754 278.321 210.582 277.301 210.49C276.847 209.34 276.923 206.458 276.88 205.07L276.542 205.155C275.138 207.617 272.107 206.005 270.416 204.714C270.205 200.002 270.47 194.472 269.928 189.927C271.175 189.76 272.857 189.715 274.144 189.643Z"/><path fill="#D5A050" d="M274.144 189.643C278.362 189.401 283.582 189.782 287.877 189.581C289.461 189.507 291.64 189.676 293.16 189.408C293.719 190.524 294.383 194.368 293.12 195.001L292.834 194.768L292.845 194.777C293.98 193.436 293.342 193.5 293.437 191.628C293.446 191.445 293.286 191.057 293.216 190.88C292.049 190.395 288.216 191.586 287.284 191.527C283.168 191.267 277.994 191.084 274.144 189.643Z"/><path fill="#EEBE60" d="M277.657 204.539C278.709 203.07 280.992 203.28 282.469 203.958L282.65 204.278C281.667 204.621 279.683 204.765 278.578 204.885C278.966 206.085 279.212 207.522 280.252 208.16C280.345 208.946 280.419 209.448 280.381 210.253C279.495 210.754 278.321 210.582 277.301 210.49C276.847 209.34 276.923 206.458 276.88 205.07L277.657 204.539Z"/><path fill="#ECD5A5" d="M277.657 204.539C278.355 205.555 278.011 209.606 277.301 210.49C276.847 209.34 276.923 206.458 276.88 205.07L277.657 204.539Z"/><path fill="#794729" d="M315.683 153.87C316.521 153.777 316.861 153.674 317.602 154.085C319.602 156.059 325.26 170.229 326.338 173.35C325.293 174.281 325 174.197 324.936 175.659C323.157 175.836 319.791 175.78 318.005 175.555L317.455 175.784L317.133 174.834C316.337 174.194 312.23 174.433 310.575 174.32C310.227 176.354 309.959 179.236 307.215 179.098C305.109 178.992 302.011 178.664 300.335 177.185C299.789 176.703 299.911 176.078 299.913 175.422C302.23 172.659 306.89 158.023 307.959 154.006C310.51 153.903 313.138 153.754 315.683 153.87Z"/><path fill="#BD9C7C" d="M305.562 175.752C308.815 169.608 310.47 170.533 316.93 170.976C317.643 173.017 317.568 173.624 318.005 175.555L317.455 175.784L317.133 174.834C316.337 174.194 312.23 174.433 310.575 174.32C310.227 176.354 309.959 179.236 307.215 179.098C305.109 178.992 302.011 178.664 300.335 177.185C299.789 176.703 299.911 176.078 299.913 175.422C302.081 175.865 303.359 175.804 305.562 175.752Z"/><path fill="#B19175" d="M315.683 153.87C316.521 153.777 316.861 153.674 317.602 154.085C319.602 156.059 325.26 170.229 326.338 173.35C325.293 174.281 325 174.197 324.936 175.659C324.737 174.203 321.899 169.134 321.146 167.31C319.317 162.879 317.299 158.393 315.683 153.87Z"/><path fill="#A77433" d="M311.855 159.988L312.247 159.758C313.018 160.166 313.874 162.93 314.181 163.818C314.733 165.214 315.175 166.456 315.654 167.874C312.956 168.587 312.365 168.653 309.74 167.966C309.308 167.836 309.469 167.904 309.112 167.584C309.094 165.325 310.69 161.929 311.855 159.988Z"/><path fill="#B19175" d="M314.181 163.818C314.733 165.214 315.175 166.456 315.654 167.874C312.956 168.587 312.365 168.653 309.74 167.966C309.951 167.724 310.163 167.291 310.328 166.996C311.087 167.042 311.179 167.035 311.863 166.706C312.329 166.091 312.254 165.836 312.278 165.016L312.59 165.568L313.17 165.416C314.015 164.563 313.908 164.895 314.181 163.818Z"/><path fill="#BD9C7C" d="M311.855 159.988C312.33 160.623 312.472 160.599 312.552 161.269L312.42 161.463C311.086 163.559 310.839 164.551 310.328 166.996C310.163 167.291 309.951 167.724 309.74 167.966C309.308 167.836 309.469 167.904 309.112 167.584C309.094 165.325 310.69 161.929 311.855 159.988Z"/><path fill="#B19175" d="M311.855 159.988L312.247 159.758C313.018 160.166 313.874 162.93 314.181 163.818C313.908 164.895 314.015 164.563 313.17 165.416L312.59 165.568L312.278 165.016C312.758 163.624 313.279 162.787 312.42 161.463L312.552 161.269C312.472 160.599 312.33 160.623 311.855 159.988Z"/><path fill="#EEBE60" d="M195.488 239.897C203.106 240.308 211.452 239.668 219.114 239.675C231.185 239.686 244.125 239.024 256.116 240.003C255.293 240.295 254.843 240.366 254.369 241.116C253.719 243.245 256.011 244.592 255.984 245.549C255.491 245.599 255.327 245.585 254.849 245.737C238.323 246.359 220.834 245.89 204.26 245.784C201.853 245.543 197.718 245.676 195.183 245.682C195.355 243.758 195.457 241.828 195.488 239.897Z"/><defs><linearGradient id="gradient_11" gradientUnits="userSpaceOnUse" x1="311.20248" y1="206.91159" x2="311.2728" y2="214.62737"><stop offset="0" stop-color="#D19A46"/><stop offset="1" stop-color="#9D672F"/></linearGradient></defs><path fill="url(#gradient_11)" d="M296.472 213.74C297.941 211.392 299.962 208.317 301.25 205.936C303.179 207.229 303.809 209.475 307.193 208.637C308.882 208.219 308.116 208.62 309.498 207.603L310.186 208.23C311.224 208.409 312.715 208.665 313.735 208.288C315.349 208.412 325.368 208.285 326.831 207.945C328.65 208.766 329.949 209.994 330.456 211.923C331.59 216.238 332.034 218.9 326.866 218.507C321.389 217.989 315.404 217.949 309.88 218.028C303.705 218.116 302.518 218.267 296.642 216.238C296.05 216.686 296.153 217.029 295.959 217.918L295.459 217.418C295.729 216.479 295.736 215.881 295.902 214.949L296.422 214.846C296.513 214.383 296.48 214.208 296.472 213.74Z"/><path fill="#B19175" d="M326.831 207.945C328.65 208.766 329.949 209.994 330.456 211.923C331.59 216.238 332.034 218.9 326.866 218.507C321.389 217.989 315.404 217.949 309.88 218.028C303.705 218.116 302.518 218.267 296.642 216.238C296.05 216.686 296.153 217.029 295.959 217.918L295.459 217.418C295.729 216.479 295.736 215.881 295.902 214.949L296.422 214.846C298.564 215.292 323.532 215.313 325.864 214.949L326.119 214.567C325.953 213.056 325.76 209.775 326.081 208.408L326.831 207.945Z"/><path fill="#CA954A" d="M326.831 207.945C328.65 208.766 329.949 209.994 330.456 211.923C331.59 216.238 332.034 218.9 326.866 218.507C326.854 217.378 326.866 212.81 326.389 211.981C326.064 212.759 326.133 213.697 326.119 214.567C325.953 213.056 325.76 209.775 326.081 208.408L326.831 207.945Z"/><defs><linearGradient id="gradient_12" gradientUnits="userSpaceOnUse" x1="164.89995" y1="214.14066" x2="165.61467" y2="205.17601"><stop offset="0" stop-color="#AF7434"/><stop offset="1" stop-color="#E4B050"/></linearGradient></defs><path fill="url(#gradient_12)" d="M150.329 211.156C150.995 209.532 152.759 204.56 153.417 203.522C155.559 204.425 157.334 205.658 159.595 206.375C164.85 208.04 169.154 208.288 173.762 205.058L174.112 205.915L173.867 206.327L173.702 206.304L173.766 206.065C172.913 206.594 172.141 206.836 171.194 207.145L171.121 207.44C173.315 208.9 179.664 207.922 180.628 208.297C181.195 208.232 182.069 207.79 182.498 207.411C184.079 206.015 184.311 206.143 184.575 204.246C184.945 207.532 184.116 210.03 183.933 213.331C183.373 213.955 182.714 214.621 182.054 215.137C177.504 218.69 151.579 218.42 150.019 212.261L150.329 211.156Z"/><defs><linearGradient id="gradient_13" gradientUnits="userSpaceOnUse" x1="165.85429" y1="206.04706" x2="171.21756" y2="219.10672"><stop offset="0" stop-color="#ECB34C"/><stop offset="1" stop-color="#BD976F"/></linearGradient></defs><path fill="url(#gradient_13)" d="M184.575 204.246C184.945 207.532 184.116 210.03 183.933 213.331C183.373 213.955 182.714 214.621 182.054 215.137C177.504 218.69 151.579 218.42 150.019 212.261L150.329 211.156C155.014 214.463 164.606 215.042 170.237 214.171C174.735 213.476 177.953 212.014 180.628 208.297C181.195 208.232 182.069 207.79 182.498 207.411C184.079 206.015 184.311 206.143 184.575 204.246Z"/><path fill="#A77433" d="M238.934 113.691C239.83 113.681 242.319 113.579 243.002 113.858C241.59 115.84 242.332 119.294 242.382 121.657C242.479 126.24 249.542 122.851 251.999 122.023C252.065 120.76 252.105 119.786 252.32 118.541C253.552 119.48 254.769 120.439 255.971 121.418C256.011 120.353 255.951 119.131 256.438 118.221L256.725 118.21C257.172 119.578 257.32 123.691 256.754 124.981L256.368 124.939C255.818 124.137 254.841 122.349 254.183 121.986C253.09 122.767 253.433 125.581 253.327 126.963C254.757 127.133 255.095 127.286 256.44 127.847C257.469 128.443 257.247 128.137 257.699 129.011C257.513 130.403 255.716 131.467 254.556 132.108L254.317 132.408C254.563 132.987 255.915 133.295 256.796 133.732L256.883 134.194C256.517 134.725 256.427 134.722 255.81 134.991C253.593 134.978 252.232 132.018 251.756 130.185L242.426 128.266C242.643 130.692 243.393 140.327 240.47 141.274L239.937 140.994C238.202 138.76 238.589 131.122 238.784 128.177C235.936 129.226 232.776 129.687 229.68 130.814C228.262 132.788 226.323 134.581 223.443 133.8C222.998 133.68 223.08 133.605 222.881 133.179C223.587 131.921 224.648 133.276 226.85 132.495C227.506 131.841 227.333 132.171 227.486 131.24C226.345 130.341 224.358 132.015 223.216 129.587C223.196 127.028 226.063 124.603 226.971 122.21C227.211 121.576 228.008 120.199 228.469 119.691C229.062 121.554 226.932 124.912 227.076 125.948C227.584 126.206 227.996 126.433 228.488 126.72L228.502 127.122C227.29 128.233 224.857 126.932 224.272 128.782C225.629 131.287 233.119 127.148 235.403 127.147C235.804 127.146 236.957 126.668 237.331 126.465C236.61 125.063 229.471 125.258 229.452 122.853C229.902 122.65 237.125 123.912 238.378 124.098C239.117 120.944 239.092 117.218 239.205 113.938C238.241 113.951 237.275 113.94 236.311 113.904C236.808 113.61 237.502 113.675 238.14 113.647L238.934 113.691ZM243.482 126.63C245.358 126.788 250.877 127.655 252.166 127.4C252.104 125.837 252.068 124.276 251.88 122.724C249.164 125.406 246.938 125.033 243.482 126.63Z"/><path fill="#8A5C11" d="M255.971 121.418C256.011 120.353 255.951 119.131 256.438 118.221L256.725 118.21C257.172 119.578 257.32 123.691 256.754 124.981L256.368 124.939C255.818 124.137 254.841 122.349 254.183 121.986C253.09 122.767 253.433 125.581 253.327 126.963L252.166 127.4C252.104 125.837 252.068 124.276 251.88 122.724L251.999 122.023C252.065 120.76 252.105 119.786 252.32 118.541C253.552 119.48 254.769 120.439 255.971 121.418Z"/><path fill="#A77433" d="M256.44 127.847C257.469 128.443 257.247 128.137 257.699 129.011C257.513 130.403 255.716 131.467 254.556 132.108C254.413 128.332 254.977 130.56 256.44 127.847Z"/><path fill="#A77433" d="M179.889 113.054C183.331 113.012 189.01 112.798 192.297 113.012C195.015 112.948 197.735 112.953 200.452 113.028C195.674 117.211 196.217 119.171 189.68 119.032L172.645 118.93C166.629 119.128 159.652 118.887 153.574 118.77C154.206 118.653 154.261 118.664 154.782 118.313C155.243 116.84 154.634 114.71 154.311 113.156C155.751 112.936 161.256 113.018 162.938 113.016L179.889 113.054Z"/><path fill="#CA954A" d="M192.297 113.012C195.015 112.948 197.735 112.953 200.452 113.028C195.674 117.211 196.217 119.171 189.68 119.032C189.253 118.549 189.546 118.602 189.843 117.991C190.439 116.762 190.032 114.878 189.889 113.523C190.29 113.14 191.657 113.089 192.297 113.012Z"/><path fill="#794729" d="M154.311 113.156C155.751 112.936 161.256 113.018 162.938 113.016L179.889 113.054C178.196 113.386 173.67 113.33 171.719 113.358L155.443 113.497C155.4 114.696 155.206 117.257 155.785 118.216C158.308 119.029 169.917 118.182 172.645 118.93C166.629 119.128 159.652 118.887 153.574 118.77C154.206 118.653 154.261 118.664 154.782 118.313C155.243 116.84 154.634 114.71 154.311 113.156Z"/><path fill="#A77433" d="M152.315 240.1C165.689 239.747 179.071 240.15 192.446 239.846C193.454 239.823 194.488 239.746 195.488 239.897C195.457 241.828 195.355 243.758 195.183 245.682C197.718 245.676 201.853 245.543 204.26 245.784C201.351 246.178 191.986 245.983 188.582 245.98C177.429 245.991 166.276 245.922 155.124 245.773C155.468 243.386 155.473 242.759 155.387 240.378C154.524 240.381 152.984 240.504 152.315 240.1Z"/><defs><linearGradient id="gradient_14" gradientUnits="userSpaceOnUse" x1="282.79694" y1="216.31178" x2="283.68311" y2="207.21062"><stop offset="0" stop-color="#9F6834"/><stop offset="1" stop-color="#D9A24D"/></linearGradient></defs><path fill="url(#gradient_14)" d="M270.127 214.695C270.599 212.349 270.099 207.536 270.416 204.714C272.107 206.005 275.138 207.617 276.542 205.155L276.88 205.07C276.923 206.458 276.847 209.34 277.301 210.49C278.321 210.582 279.495 210.754 280.381 210.253C282.153 209.852 294.383 209.35 296.084 209.992C297.04 211.316 296.415 212.161 296.472 213.74C296.48 214.208 296.513 214.383 296.422 214.846L295.902 214.949C295.736 215.881 295.729 216.479 295.459 217.418L295.959 217.918C294.934 218.433 271.997 217.647 270.552 217.005C270.047 216.276 270.136 215.578 270.127 214.695Z"/><path fill="#BD9C7C" d="M270.127 214.695C273.019 215.064 294.734 215.162 294.916 215.284C294.931 216.043 294.847 216.941 295.213 217.554L295.459 217.418L295.959 217.918C294.934 218.433 271.997 217.647 270.552 217.005C270.047 216.276 270.136 215.578 270.127 214.695Z"/><defs><linearGradient id="gradient_15" gradientUnits="userSpaceOnUse" x1="216.62512" y1="123.63866" x2="219.05295" y2="108.11193"><stop offset="0" stop-color="#BE8330"/><stop offset="1" stop-color="#F9C453"/></linearGradient></defs><path fill="url(#gradient_15)" d="M205.11 113.113C203.473 110.785 201.45 108.386 199.956 105.949C199.586 105.346 199.682 105.383 199.856 104.861L200.435 104.64C207.216 105.614 212.36 106.974 217.433 111.709C220.815 112.38 234.026 112.189 237.834 112.006L238.14 113.647C237.502 113.675 236.808 113.61 236.311 113.904C231.67 114.112 221.006 113.372 217.238 114.109C213.485 117.964 212.689 118.736 207.198 119.948C204.327 120.581 201.064 121.474 198.167 122.186C200.264 119.221 202.696 115.798 205.11 113.113Z"/><defs><linearGradient id="gradient_16" gradientUnits="userSpaceOnUse" x1="197.63177" y1="214.58598" x2="197.58821" y2="209.20677"><stop offset="0" stop-color="#A76E34"/><stop offset="1" stop-color="#C18A40"/></linearGradient></defs><path fill="url(#gradient_16)" d="M186.575 205.357C186.707 206.689 187.131 208.301 188.264 209.152C188.675 209.463 189.197 209.588 189.705 209.498C190.938 209.272 191.8 208.458 192.742 208.711C193.124 209.299 193.767 210.377 194.236 210.83C195.342 210.734 196.73 210.694 197.721 210.263L197.975 209.937C200.377 210.028 206.236 209.904 208.52 209.5C208.652 211.096 208.889 213.502 209.204 215.042C209.83 215.707 210.305 217.67 209.811 218.4C207.772 217.822 205.003 218.029 202.873 217.975C198.682 217.87 190.356 218.008 186.595 216.897C186.015 216.104 186.171 216.034 186.03 214.94C186.657 213.216 186.562 207.478 186.575 205.357Z"/><path fill="#BD9C7C" d="M186.03 214.94C188.67 215.145 191.211 215.132 193.851 215.073C198.958 214.959 204.102 215.165 209.204 215.042C209.83 215.707 210.305 217.67 209.811 218.4C207.772 217.822 205.003 218.029 202.873 217.975C198.682 217.87 190.356 218.008 186.595 216.897C186.015 216.104 186.171 216.034 186.03 214.94Z"/><path fill="#D5A050" d="M245.215 112.106C248.558 111.777 267.219 112.461 268.61 111.578C268.596 111.145 268.579 110.713 268.56 110.281C270.579 109.176 279.547 112.766 282.021 113.508C279.924 114.032 269.326 117.341 268.149 116.753C268.082 115.904 268.935 114.794 269.428 114.039C263.67 113.94 257.911 113.936 252.154 114.027C250.394 114.039 244.424 114.148 243.002 113.858C242.319 113.579 239.83 113.681 238.934 113.691C240.46 113.242 242.555 113.759 243.907 112.807C244.459 112.419 244.382 112.459 245.048 112.175L245.215 112.106Z"/><path fill="#CA954A" d="M208.52 209.5C214.02 208.073 211.371 212.987 213.752 214.6L213.189 215.674C211.537 217.132 212.734 219.224 209.811 218.4C210.305 217.67 209.83 215.707 209.204 215.042C208.889 213.502 208.652 211.096 208.52 209.5Z"/><path fill="#BD9C7C" d="M326.338 173.35C326.805 175.105 327.318 176.371 327.978 178.053C325.787 178.654 316.914 179.817 317.455 175.784L318.005 175.555C319.791 175.78 323.157 175.836 324.936 175.659C325 174.197 325.293 174.281 326.338 173.35Z"/><path fill="#8A5C11" d="M221.039 117.828C221.868 117.974 222.146 117.964 222.738 118.538C223.004 119.451 223.052 119.746 223.655 120.522L223.966 120.553C224.317 119.747 224.47 119.238 225.077 118.595L225.595 118.605C226.39 119.504 226.109 121.099 225.99 122.21C225.54 123.242 224.818 124.36 223.596 124.236C222.444 123.334 221.753 119.749 221.039 117.828Z"/><path fill="#F0C56E" d="M297.107 189.184C298.014 189.484 298.709 189.228 299.633 189.007C300.473 190.176 300.728 190.383 300.739 191.838L301.183 191.917C300.533 193.159 300.079 194.54 298.595 194.772L298.087 194.397C297.503 193.46 297.49 192.234 297.381 191.114C297.278 190.734 297.165 189.629 297.107 189.184Z"/><path fill="#CA954A" d="M297.107 189.184C298.014 189.484 298.709 189.228 299.633 189.007C300.473 190.176 300.728 190.383 300.739 191.838C299.7 191.858 298.418 191.41 297.381 191.114C297.278 190.734 297.165 189.629 297.107 189.184Z"/><path fill="#D5A050" fill-opacity="0.019607844" d="M279.483 198.56C281.616 198.192 283.994 198.275 286.153 198.35C285.742 198.425 285.665 198.385 285.371 198.66L285.241 198.675L285.91 198.951L286.041 199.455C283.649 199.217 281.83 199.033 279.483 198.56Z"/></svg>