<?xml version="1.0" encoding="utf-8" ?><svg xmlns="http://www.w3.org/2000/svg" xmlns:xlink="http://www.w3.org/1999/xlink" width="480" height="241" viewBox="0 0 480 241"><path fill="#D4A15F" d="M312.599 59.4884C319.796 53.834 326.481 58.1565 324.942 66.8685C323.82 73.2224 320.643 74.1159 316.207 77.5209C316.796 78.7899 318.008 81.1061 318.334 82.3518C322.936 80.1956 325.415 68.526 326.764 63.831C326.692 62.7928 326.625 62.5035 327.152 61.6248L327.666 61.2986C328.839 61.5685 329.873 63.7094 330.819 64.6956C330.439 70.7577 327.338 82.4506 322.54 86.824C319.186 89.8816 316.593 88.5884 312.355 89.9764C310.777 89.3147 311.401 87.4981 310.182 86.6981C305.957 86.9139 307.654 94.5264 300.505 94.8876C299.5 94.9459 298.491 94.9014 297.495 94.7549C293.604 93.7261 292.714 86.6839 292.764 83.3014C292.832 82.2891 292.73 81.4352 292.638 80.4329L291.827 83.2763C291.196 88.4334 287.777 98.7825 283.56 102.059C278.098 106.303 273.933 101.01 273.577 95.3743C273.509 93.9336 273.17 89.7774 272.904 88.5101L272.548 88.2995C272.023 93.4589 269.245 101.426 267.105 106.065C263.409 114.071 256.15 115.441 250.253 108.826C247.224 115.09 244.35 122.909 235.87 116.534C235.13 114.313 232.859 110.817 232.689 109.095C232.703 106.899 232.741 105.106 232.91 102.917C233.343 99.4248 234.205 94.8588 235.871 91.7647C236.34 90.894 237.597 90.1341 238.433 89.5823C235.933 86.1417 235.115 83.4037 236.665 79.1765C241.623 74.8121 245.668 78.6703 244.256 84.2119C243.803 85.9898 243.376 87.4975 242.794 89.2357C242.374 93.3626 242.29 105.181 243.408 108.651L243.834 108.671L244.564 107.776C245.057 106.752 247.05 101.199 247.199 100.157C248.149 93.4965 248.237 87.0532 253.88 82.3961C255.874 80.7501 258.489 80.3065 261.057 80.6742C263.902 81.4827 265.784 83.3938 266.118 86.4349C266.272 87.1679 266.307 87.9371 266.749 88.4232C267.07 87.6141 267.052 87.353 267.095 86.4932C266.995 84.5921 266.896 83.6121 267.731 81.8414C267.743 79.479 265.628 77.9485 266.22 76.0683C265.687 72.8173 265.446 69.2455 268.35 67.0346C269.504 66.7484 270.527 66.4488 271.625 67.1107C273.977 68.528 274.792 72.5109 274.379 75.0445C276.144 75.5119 278.004 72.4748 280.848 74.7572C286.097 78.879 280.812 89.4036 282.86 91.9966L283.312 92.061C285.678 87.1448 288.646 78.4018 287.698 73.0465C287.422 71.4865 286.332 68.8991 285.933 67.3214C285.747 66.5852 285.565 64.8007 285.423 63.9086C286.23 61.7262 286.61 60.7177 288.417 59.1746C290.042 58.6872 290.566 58.9822 292.197 59.5433C294.059 61.9672 294.376 63.7025 294.601 66.6998C300.98 64.9318 303.182 66.5885 303.362 73.0997C303.002 77.3324 302.833 80.6843 303.144 84.9683C304.341 81.9542 305.941 78.1788 306.443 75.0198C307.499 68.7132 307.293 64.4097 312.599 59.4884ZM263.445 99.9875C263.553 99.4157 264.593 97.2987 264.895 96.6489C265.074 95.9249 265.309 95.2709 265.145 94.5511L264.631 94.327C263.657 96.0654 261.36 98.7608 259.573 99.5087C255.95 101.024 257.327 104.953 260.561 104.613C261.655 104.497 263.371 100.864 263.445 99.9875ZM257.777 94.5896C258.685 93.5306 262.19 87.9473 259.981 87.1004C258.678 89.0778 257.492 91.7534 257.408 94.1429L257.777 94.5896ZM316.999 70.3611C318.448 68.8225 320.203 66.1392 319.624 63.927L319.079 63.6724C317.25 65.6142 316.976 67.2981 316.577 69.8865C316.796 70.3337 316.63 70.2118 316.999 70.3611Z"/><path fill="#1D3C1F" d="M258.612 110.229C266.351 106.047 268.484 94.3376 270.239 86.3939C270.606 84.507 270.172 81.795 271.081 80.0937C271.561 79.1968 273.076 79.0985 273.963 79.6819C274.855 81.231 274.433 82.9701 274.233 84.7551C273.554 84.8848 273.351 84.9147 272.704 85.203C272.349 85.7762 272.375 87.6972 272.548 88.2995C272.023 93.4589 269.245 101.426 267.105 106.065C263.409 114.071 256.15 115.441 250.253 108.826C247.224 115.09 244.35 122.909 235.87 116.534C235.13 114.313 232.859 110.817 232.689 109.095L233.681 109.007L234.976 109.023C235.714 112.135 238.28 118.884 242.611 115.404C246.778 112.055 248.409 105.397 249.176 100.298C249.275 100.764 249.38 101.23 249.491 101.694C250.471 105.769 251.416 107.985 255.048 110.208C256.143 110.276 257.495 110.233 258.612 110.229Z"/><path fill="#1D3C1F" d="M261.057 80.6742C263.902 81.4827 265.784 83.3938 266.118 86.4349C266.069 88.8956 265.849 90.5372 265.049 92.8903C264.919 93.2715 264.6 94.0009 264.631 94.327C263.657 96.0654 261.36 98.7608 259.573 99.5087C255.95 101.024 257.327 104.953 260.561 104.613C261.655 104.497 263.371 100.864 263.445 99.9875L264.686 99.9986C263.874 103.086 260.011 110.011 256.281 104.921C253.871 101.631 254.541 95.9704 255.022 92.1867C255.424 89.0185 258.53 81.0078 261.962 86.7672C262.137 87.8668 261.991 88.1289 262.607 88.8471L262.959 88.8977C263.664 85.7906 262.86 83.1778 259.905 81.8065L261.057 80.6742ZM257.777 94.5896C258.685 93.5306 262.19 87.9473 259.981 87.1004C258.678 89.0778 257.492 91.7534 257.408 94.1429L257.777 94.5896Z"/><path fill="#AE974D" d="M261.962 86.7672C262.137 87.8668 261.991 88.1289 262.607 88.8471L262.959 88.8977C262.394 93.3539 259.298 96.2456 255.56 98.2531C258.444 93.4012 261.103 94.8574 261.962 86.7672Z"/><path fill="#1D3C1F" d="M326.764 63.831C326.692 62.7928 326.625 62.5035 327.152 61.6248L327.666 61.2986C328.839 61.5685 329.873 63.7094 330.819 64.6956C330.439 70.7577 327.338 82.4506 322.54 86.824C319.186 89.8816 316.593 88.5884 312.355 89.9764C310.777 89.3147 311.401 87.4981 310.182 86.6981C305.957 86.9139 307.654 94.5264 300.505 94.8876C299.5 94.9459 298.491 94.9014 297.495 94.7549C297.221 93.8309 297.546 93.3334 298.235 92.7334C304.303 93.1242 307.204 82.3141 308.296 77.8677C308.631 79.0288 309.05 80.1639 309.551 81.2639C311.474 85.4467 313.644 87.598 318.715 85.8477C323.69 84.1307 329.534 68.3589 327.708 64.529L326.764 63.831Z"/><path fill="#1D3C1F" d="M312.599 59.4884C319.796 53.834 326.481 58.1565 324.942 66.8685C323.82 73.2224 320.643 74.1159 316.207 77.5209C316.796 78.7899 318.008 81.1061 318.334 82.3518L319.775 82.453C319.694 82.4862 319.613 82.5193 319.531 82.5525L319.39 82.6051C318.095 83.0962 317.01 83.0346 316.02 81.9779C314.267 80.1065 313.684 75.8494 313.762 73.3637C313.879 69.5962 314.147 64.6122 316.714 61.6514C317.826 60.3824 319.474 60.9134 320.324 62.1499C321.276 63.534 320.798 65.4595 320.562 67.0113L320.689 68.3312C321.136 68.2817 321.232 68.1202 321.557 67.8049C323.077 60.6651 320.749 54.9852 312.99 60.0239L312.599 59.4884ZM316.999 70.3611C318.448 68.8225 320.203 66.1392 319.624 63.927L319.079 63.6724C317.25 65.6142 316.976 67.2981 316.577 69.8865C316.796 70.3337 316.63 70.2118 316.999 70.3611Z"/><path fill="#AE974D" d="M320.562 67.0113L320.689 68.3312C321.136 68.2817 321.232 68.1202 321.557 67.8049C320.679 70.5879 318.288 72.2116 316.043 73.818L315.545 73.6525L315.442 74.0532C315.432 73.0129 318.605 70.1891 319.332 69.1408C319.886 68.3436 320.129 67.8871 320.562 67.0113Z"/><path fill="#223E22" d="M236.665 79.1765C241.623 74.8121 245.668 78.6703 244.256 84.2119C243.803 85.9898 243.376 87.4975 242.794 89.2357C242.374 93.3626 242.29 105.181 243.408 108.651L243.834 108.671L244.564 107.776L245.472 108.503C244.896 109.607 244.291 110.909 242.982 111.132C238.037 109.443 240.635 92.1375 239.168 90.2763L238.433 89.5823C235.933 86.1417 235.115 83.4037 236.665 79.1765Z"/><path fill="#D4A15F" d="M239.03 78.1486C239.803 78.3738 239.907 78.5303 240.443 79.173C242.685 81.8618 242.224 84.6742 239.848 86.8774C236.691 86.1081 236.795 82.6464 237.361 80.0915L239.03 78.1486Z"/><path fill="#1D3C1F" d="M274.5 96.1465C275.279 97.8894 277.304 101.123 279.422 100.545C286.342 98.6561 288.239 86.3016 289.695 80.297C290.198 78.2203 290.594 72.5649 291.538 71.454C296.01 70.1038 294.342 77.6348 294.03 79.9674C293.496 79.9532 293.525 79.9543 293.039 80.1843L292.529 80.0853C292.561 80.3515 292.5 80.2724 292.638 80.4329L291.827 83.2763C291.196 88.4334 287.777 98.7825 283.56 102.059C278.098 106.303 273.933 101.01 273.577 95.3743L274.5 96.1465Z"/><defs><linearGradient id="gradient_0" gradientUnits="userSpaceOnUse" x1="308.37015" y1="76.623405" x2="294.17578" y2="76.103638"><stop offset="0" stop-color="#0B1809"/><stop offset="1" stop-color="#2B5431"/></linearGradient></defs><path fill="url(#gradient_0)" d="M312.599 59.4884L312.99 60.0239C307.08 65.3791 308.661 74.7237 305.748 81.7831C304.676 84.3805 303.023 86.3958 301.467 88.7357C298.995 84.1624 300.199 80.2641 300.391 75.2596C300.595 69.9229 301.018 66.5393 294.535 68.3999C294.594 67.5313 294.482 67.8714 295.043 67.1133L294.601 66.6998C300.98 64.9318 303.182 66.5885 303.362 73.0997C303.002 77.3324 302.833 80.6843 303.144 84.9683C304.341 81.9542 305.941 78.1788 306.443 75.0198C307.499 68.7132 307.293 64.4097 312.599 59.4884Z"/><path fill="#1D3C1F" d="M279.268 76.0177C279.902 75.294 280 75.2082 280.848 74.7572C286.097 78.879 280.812 89.4036 282.86 91.9966L283.312 92.061L283.516 92.8018C284.134 92.8222 283.92 92.8378 284.531 92.3871C283.952 93.4899 282.784 95.442 281.702 95.9784C277.734 95.3183 282.218 79.5629 279.268 76.0177Z"/><path fill="#1A2016" d="M244.564 107.776C245.057 106.752 247.05 101.199 247.199 100.157C248.149 93.4965 248.237 87.0532 253.88 82.3961C255.874 80.7501 258.489 80.3065 261.057 80.6742L259.905 81.8065C257.706 81.6619 255.518 82.3074 253.935 83.8356C246.918 90.6108 250.745 99.8391 245.472 108.503L244.564 107.776Z"/><path fill="#223E22" d="M285.423 63.9086C286.23 61.7262 286.61 60.7177 288.417 59.1746L289.025 59.7909C284.236 64.0146 288.263 67.9466 288.996 72.4105C289.852 77.6238 286.502 87.4008 284.531 92.3871C283.92 92.8378 284.134 92.8222 283.516 92.8018L283.312 92.061C285.678 87.1448 288.646 78.4018 287.698 73.0465C287.422 71.4865 286.332 68.8991 285.933 67.3214C285.747 66.5852 285.565 64.8007 285.423 63.9086Z"/><path fill="#1D3C1F" d="M268.35 67.0346C269.504 66.7484 270.527 66.4488 271.625 67.1107C273.977 68.528 274.792 72.5109 274.379 75.0445C274.063 75.7712 274.073 75.9208 274.056 76.6881C273.784 76.9829 271.69 78.0016 271.193 78.2565C271.616 73.7641 271.392 71.583 269.701 67.5099C269.42 67.4453 268.662 67.1472 268.35 67.0346Z"/><path fill="#1D3C1F" d="M288.417 59.1746C290.042 58.6872 290.566 58.9822 292.197 59.5433C294.059 61.9672 294.376 63.7025 294.601 66.6998L295.043 67.1133C294.482 67.8714 294.594 67.5313 294.535 68.3999C294.334 68.6117 291.492 70.2673 291.075 70.5154C291.75 67.363 292.724 61.3614 289.025 59.7909L288.417 59.1746Z"/><path fill="#223E22" d="M292.638 80.4329C292.5 80.2724 292.561 80.3515 292.529 80.0853L293.039 80.1843C293.525 79.9543 293.496 79.9532 294.03 79.9674C294.302 85.4317 293.584 88.9596 298.235 92.7334C297.546 93.3334 297.221 93.8309 297.495 94.7549C293.604 93.7261 292.714 86.6839 292.764 83.3014C292.832 82.2891 292.73 81.4352 292.638 80.4329Z"/><path fill="#223E22" d="M267.095 86.4932L267.281 88.0095C267.722 87.2703 267.785 87.1302 268.52 86.6491C267.636 91.0109 266.566 95.9955 264.686 99.9986L263.445 99.9875C263.553 99.4157 264.593 97.2987 264.895 96.6489C265.074 95.9249 265.309 95.2709 265.145 94.5511L264.631 94.327C264.6 94.0009 264.919 93.2715 265.049 92.8903C265.849 90.5372 266.069 88.8956 266.118 86.4349C266.272 87.1679 266.307 87.9371 266.749 88.4232C267.07 87.6141 267.052 87.353 267.095 86.4932Z"/><path fill="#E9ECE3" d="M267.095 86.4932L267.281 88.0095C266.828 90.3651 266.014 94.6008 264.895 96.6489C265.074 95.9249 265.309 95.2709 265.145 94.5511L264.631 94.327C264.6 94.0009 264.919 93.2715 265.049 92.8903C265.849 90.5372 266.069 88.8956 266.118 86.4349C266.272 87.1679 266.307 87.9371 266.749 88.4232C267.07 87.6141 267.052 87.353 267.095 86.4932Z"/><path fill="#223E22" d="M326.764 63.831L327.708 64.529C325.457 68.8286 325.431 78.3628 319.775 82.453L318.334 82.3518C322.936 80.1956 325.415 68.526 326.764 63.831Z"/><path fill="#1A2016" d="M232.91 102.917C233.343 99.4248 234.205 94.8588 235.871 91.7647C236.34 90.894 237.597 90.1341 238.433 89.5823L239.168 90.2763C234.413 94.0118 235.532 98.0096 233.93 103.604C233.829 104.289 233.842 104.782 233.377 105.264C232.981 104.672 232.974 103.658 232.91 102.917Z"/><path fill="#223E22" d="M272.548 88.2995C272.375 87.6972 272.349 85.7762 272.704 85.203C273.351 84.9147 273.554 84.8848 274.233 84.7551C274.21 87.0598 273.975 94.3616 274.5 96.1465L273.577 95.3743C273.509 93.9336 273.17 89.7774 272.904 88.5101L272.548 88.2995Z"/><path fill="#223E22" d="M267.375 73.5614C268.101 77.4692 269.024 79.6102 268.863 83.6022C268.533 82.2461 268.826 82.6794 267.731 81.8414C267.743 79.479 265.628 77.9485 266.22 76.0683C267.034 75.1296 267.222 74.7638 267.375 73.5614Z"/><path fill="#41441F" d="M268.35 67.0346C268.662 67.1472 269.42 67.4453 269.701 67.5099C266.685 68.3335 266.998 70.946 267.375 73.5614C267.222 74.7638 267.034 75.1296 266.22 76.0683C265.687 72.8173 265.446 69.2455 268.35 67.0346Z"/><path fill="#223E22" d="M274.379 75.0445C276.144 75.5119 278.004 72.4748 280.848 74.7572C280 75.2082 279.902 75.294 279.268 76.0177C277.773 75.2742 276.199 75.9595 274.616 76.491C274.428 76.5541 274.242 76.6198 274.056 76.6881C274.073 75.9208 274.063 75.7712 274.379 75.0445Z"/><path fill="#1D3C1F" d="M267.731 81.8414C268.826 82.6794 268.533 82.2461 268.863 83.6022C268.8 84.3225 268.694 86.0274 268.52 86.6491C267.785 87.1302 267.722 87.2703 267.281 88.0095L267.095 86.4932C266.995 84.5921 266.896 83.6121 267.731 81.8414Z"/><path fill="#AE974D" d="M232.689 109.095C232.703 106.899 232.741 105.106 232.91 102.917C232.974 103.658 232.981 104.672 233.377 105.264C233.842 104.782 233.829 104.289 233.93 103.604C233.93 104.582 233.813 105.944 234.407 106.702C234.679 107.594 234.826 108.107 234.976 109.023L233.681 109.007L232.689 109.095Z"/><path fill="#223E22" d="M234.407 106.702C234.679 107.594 234.826 108.107 234.976 109.023L233.681 109.007C233.798 107.892 233.797 107.62 234.407 106.702Z"/><path fill="#195C2E" d="M124.033 126.989C124.4 125.112 124.614 120.937 124.873 118.738C125.585 112.659 127.232 106.726 129.758 101.15C131.628 96.9115 136.037 91.6048 140.505 90.1155C155.041 85.2699 158.105 103.583 153.069 113.247C147.602 123.739 140.242 130.798 129.233 134.85C128.878 139.144 128.984 143.704 128.994 148.034C136.903 144.569 144.93 141.997 153.667 143.88C152.561 137.348 152.394 128.267 156.181 122.557C161.864 113.987 167.724 117.921 174.454 121.257C176.649 125.808 174.027 132.45 175.006 133.9C177.039 131.181 177.983 122.658 180.839 120.913C188.454 119.908 178.762 141.06 176.756 143.935C174.223 144.592 171.344 145.741 169.271 143.656L168.577 142.973C167.416 143.301 166.624 145.995 165.682 146.973C164.653 148.042 161.7 149.319 161.48 150.722C161.71 151.676 161.81 152.097 161.868 153.069C162.016 154.384 162.159 155.051 161.4 156.087C159.122 156.565 157.927 154.264 157.107 152.545C154.936 152.624 151.507 152.693 149.464 153.002C144.439 153.763 136.45 157.115 132.844 160.703C130.142 163.495 127.398 166.251 124.141 168.411C122.309 169.626 119.492 169.712 118.379 167.442C116.632 163.877 117.332 161.014 118.424 157.463C117.172 153.29 118.407 153.961 121.08 151.347C124.4 148.1 123.524 139.845 123.936 135.221C118.008 134.033 110.621 127.033 121.333 127.05C122.248 127.051 123.123 127.037 124.033 126.989ZM131.726 121.173C136.927 116.686 141.888 110.721 144.37 104.241C145.283 101.856 146.385 97.9839 144.711 95.7606C144.418 95.617 144.203 95.4703 143.882 95.4779C133.122 98.7132 130.484 112.211 130.192 122.049L130.497 122.19C131.069 121.801 131.239 121.663 131.726 121.173ZM162.942 138.271C164.734 137.014 167.112 125.119 166.158 123.708C163.641 127.914 162.077 133.38 162.942 138.271Z"/><path fill="#1D3C1F" d="M162.24 147.484C163.907 146.333 165.497 139.588 167.219 138.194L167.707 138.252C168.674 139.818 170.175 141.823 169.271 143.656L168.577 142.973C167.416 143.301 166.624 145.995 165.682 146.973C164.653 148.042 161.7 149.319 161.48 150.722L161.238 150.468L161.296 149.64C161.965 148.696 161.886 148.941 163.106 148.419C162.806 148.056 162.573 147.818 162.24 147.484Z"/><path fill="#223E22" d="M161.868 153.069C161.656 152.476 161.635 152.319 161.137 151.95C160.811 151.947 159.835 151.956 159.663 151.651C158.312 149.249 157.027 147.055 154.643 145.528C154.164 145.22 153.927 144.579 153.87 143.996C155.783 144.352 156.718 145.934 158.599 146.685C159.817 147.171 160.956 147.293 162.24 147.484C162.573 147.818 162.806 148.056 163.106 148.419C161.886 148.941 161.965 148.696 161.296 149.64L161.238 150.468L161.48 150.722C161.71 151.676 161.81 152.097 161.868 153.069Z"/><path fill="#1D3C1F" d="M162.942 138.271C162.787 139.664 162.749 142.612 161.793 143.425C158.266 141.183 160.688 119.677 166.061 120.932C166.623 121.447 166.639 121.562 166.808 122.312C166.648 122.938 166.602 123.033 166.245 123.578L166.158 123.708C163.641 127.914 162.077 133.38 162.942 138.271Z"/><defs><linearGradient id="gradient_1" gradientUnits="userSpaceOnUse" x1="242.34386" y1="167.4706" x2="216.35751" y2="131.98163"><stop offset="0" stop-color="#B58C4B"/><stop offset="1" stop-color="#D7A25F"/></linearGradient></defs><path fill="url(#gradient_1)" d="M346.331 99.1766C348.835 98.2947 360.71 96.0249 363.368 96.1401L363.649 96.4024C363.49 97.8252 363.026 98.5828 363.837 99.9551C349.863 103.294 335.983 106.181 322.04 109.601C282.27 119.353 243.677 132.097 207.739 152.017C203.468 154.384 199.066 157.185 194.877 159.756C182.786 167.147 171.055 175.11 159.723 183.618C152.717 188.965 145.787 194.704 138.905 200.221C137.544 201.313 136.151 201.856 134.395 201.726C133.855 201.493 133.074 201.191 132.581 200.852C130.687 199.92 128.814 195.609 130.599 193.891C132.401 192.157 135.857 189.716 137.897 188.151C154.127 175.68 171.028 164.108 188.524 153.487C195.865 149.112 203.468 145.095 210.997 141.06C211.461 140.811 211.933 140.14 212.205 139.684L212.255 139.597L212.218 139.756C215.982 138.908 221.392 136.224 225.002 134.533C248.568 123.493 272.418 116.453 297.695 110.133C308.871 107.238 320.116 104.614 331.419 102.265C334.337 101.596 337.263 100.963 340.197 100.369C341.713 100.216 344.373 99.4534 346.331 99.1766Z"/><path fill="#223E22" d="M346.331 99.1766C348.835 98.2947 360.71 96.0249 363.368 96.1401L363.649 96.4024C363.49 97.8252 363.026 98.5828 363.837 99.9551C349.863 103.294 335.983 106.181 322.04 109.601C282.27 119.353 243.677 132.097 207.739 152.017C203.468 154.384 199.066 157.185 194.877 159.756C182.786 167.147 171.055 175.11 159.723 183.618C152.717 188.965 145.787 194.704 138.905 200.221C137.544 201.313 136.151 201.856 134.395 201.726C134.043 201.033 133.728 200.396 133.41 199.687L133.597 199.284L134.53 199.2C137.238 197.839 146.844 189.755 150.111 187.236C161.285 178.618 172.053 170.503 183.949 162.817C214.648 143.054 247.984 127.726 282.971 117.289C292.719 114.425 302.509 111.705 312.338 109.129C316.187 108.13 320.034 107.471 323.859 106.353C324.831 106.409 333.13 104.087 334.404 103.422L334.378 102.973C333.724 102.51 332.684 102.662 331.419 102.265C334.337 101.596 337.263 100.963 340.197 100.369C341.713 100.216 344.373 99.4534 346.331 99.1766Z"/><path fill="#666E57" d="M340.197 100.369C341.713 100.216 344.373 99.4534 346.331 99.1766C344.792 100.63 342.653 99.819 341.377 100.72L341.434 100.904C342.7 100.452 343.593 100.65 344.886 100.581C344.513 101.31 341.744 102.067 340.821 102.372L340.265 102.238C339.973 101.636 340.116 101.033 340.197 100.369Z"/><path fill="#1A2016" d="M212.218 139.756C215.982 138.908 221.392 136.224 225.002 134.533C248.568 123.493 272.418 116.453 297.695 110.133C308.871 107.238 320.116 104.614 331.419 102.265C332.684 102.662 333.724 102.51 334.378 102.973L334.404 103.422C333.13 104.087 324.831 106.409 323.859 106.353L323.939 105.93C324.898 105.736 327.961 105.183 328.574 104.613L328.344 104.291C323.527 103.552 275.978 116.883 268.073 119.29C220.495 133.776 176.227 159.782 136.904 189.976C134.741 191.637 130.377 194.721 131.579 197.604C132.076 198.836 133.367 199.162 134.53 199.2L133.597 199.284L133.41 199.687C133.728 200.396 134.043 201.033 134.395 201.726C133.855 201.493 133.074 201.191 132.581 200.852C130.687 199.92 128.814 195.609 130.599 193.891C132.401 192.157 135.857 189.716 137.897 188.151C154.127 175.68 171.028 164.108 188.524 153.487C195.865 149.112 203.468 145.095 210.997 141.06C211.461 140.811 211.933 140.14 212.205 139.684L212.255 139.597L212.218 139.756Z"/><path fill="#D4A15F" d="M215.848 58.8436C220.756 58.7991 225.255 58.2342 228.971 62.0434C234.604 67.8162 235.129 72.9803 235.471 80.6739C235.894 90.2087 229.121 99.5282 222.877 106.156C219.418 109.828 216.734 111.452 212.298 113.608C212.136 117.775 212.189 121.947 212.456 126.109C212.603 128.358 213.66 136.612 212.501 138.058C206.025 140.253 206.126 123.341 206.17 120.044C205.989 118.102 206.012 116.283 206.013 114.34C202.7 113.053 199.362 112.317 198.064 108.532C197.415 106.533 196.426 103.979 196.66 101.902L196.344 101.507C196.813 100.508 199.125 100.802 199.828 101.179C202.736 102.741 201.807 107.691 205.952 108.161C206.097 104.113 207.218 80.3422 208.312 77.7367C205.985 77.3495 200.897 86.6473 200.094 88.9285C200.285 89.9826 200.674 91.4379 200.38 92.4159C198.884 94.2664 195.609 92.7327 194.172 91.5246C192.607 90.2155 191.645 88.3243 191.509 86.289C191.448 85.2871 191.714 83.4738 192.032 82.5175C193.157 79.1649 196.537 74.1099 198.898 71.6008C202.576 67.6901 206.929 63.8197 211.548 61.1063C213.286 60.0855 213.623 58.9495 215.848 58.8436ZM211.61 76.0463C212.242 76.3562 213.872 77.081 213.898 77.8788C214.181 86.3695 212.954 95.0178 212.718 103.584C212.791 104.152 212.778 105.609 212.79 106.245C222.609 99.7887 234.098 84.1931 226.763 72.2617C225.559 71.4188 224.597 70.6913 223.453 69.7682C218.37 69.5962 212.19 72.477 209.024 76.4415C210.16 76.5027 210.502 76.3673 211.61 76.0463Z"/><path fill="#223E22" d="M215.848 58.8436C220.756 58.7991 225.255 58.2342 228.971 62.0434C234.604 67.8162 235.129 72.9803 235.471 80.6739C235.894 90.2087 229.121 99.5282 222.877 106.156C219.418 109.828 216.734 111.452 212.298 113.608C212.136 117.775 212.189 121.947 212.456 126.109C212.603 128.358 213.66 136.612 212.501 138.058C206.025 140.253 206.126 123.341 206.17 120.044C206.349 118.749 206.067 116.207 206.808 115.445L207.174 115.787C207.213 118.058 207.374 134.221 209.826 134.076C211.014 132.466 209.471 125.035 209.352 122.719C209.151 118.798 209.24 115.049 209.306 111.133C220.719 107.783 232.536 91.842 232.52 79.8535C232.51 71.8396 229.673 60.3588 219.797 60.2013C218.978 60.0976 217.915 60.0443 217.24 59.6211C217.894 59.4041 219.506 59.6888 220.278 59.7796L220.392 59.6213C219.018 58.9301 217.804 59.2821 216.083 58.8975L215.848 58.8436Z"/><path fill="#1D3C1F" d="M193.117 83.2562C192.61 85.8551 193.612 88.7844 196.031 90.0578C196.185 90.0479 196.363 90.0364 196.565 90.0234C197.286 87.8918 197.369 85.6856 198.642 83.8257C202.231 78.6373 206.394 73.7158 211.684 70.1925C217.409 66.3789 223.861 64.423 228.235 71.3907L226.763 72.2617C225.559 71.4188 224.597 70.6913 223.453 69.7682C218.37 69.5962 212.19 72.477 209.024 76.4415C207.886 77.4559 208.695 77.0096 208.312 77.7367C205.985 77.3495 200.897 86.6473 200.094 88.9285C200.285 89.9826 200.674 91.4379 200.38 92.4159C198.884 94.2664 195.609 92.7327 194.172 91.5246C192.607 90.2155 191.645 88.3243 191.509 86.289C191.448 85.2871 191.714 83.4738 192.032 82.5175C192.595 83.1936 192.305 83.0058 193.117 83.2562Z"/><path fill="#223E22" d="M211.61 76.0463C212.242 76.3562 213.872 77.081 213.898 77.8788C214.181 86.3695 212.954 95.0178 212.718 103.584C212.123 104.366 212.075 107.281 212.122 108.328C211.38 108.736 210.578 109.177 209.74 109.096C207.897 107.348 212.539 82.1051 211.26 76.764L211.61 76.0463Z"/><path fill="#1D3C1F" d="M228.235 71.3907C230.996 76.6721 230.871 81.2955 229.202 86.9638C227.038 94.313 219.159 105.169 212.122 108.328C212.075 107.281 212.123 104.366 212.718 103.584C212.791 104.152 212.778 105.609 212.79 106.245C222.609 99.7887 234.098 84.1931 226.763 72.2617L228.235 71.3907Z"/><path fill="#1A2016" d="M192.032 82.5175C193.157 79.1649 196.537 74.1099 198.898 71.6008C202.576 67.6901 206.929 63.8197 211.548 61.1063C213.286 60.0855 213.623 58.9495 215.848 58.8436L216.083 58.8975C217.804 59.2821 219.018 58.9301 220.392 59.6213L220.278 59.7796C219.506 59.6888 217.894 59.4041 217.24 59.6211C217.915 60.0443 218.978 60.0976 219.797 60.2013C209.275 60.4941 196.208 73.7763 193.117 83.2562C192.305 83.0058 192.595 83.1936 192.032 82.5175Z"/><path fill="#223E22" d="M209.024 76.4415C210.16 76.5027 210.502 76.3673 211.61 76.0463L211.26 76.764C209.983 77.514 209.436 78.2632 209.166 79.8385C207.937 87.0243 207.909 94.9625 207.459 102.258C207.346 104.078 207.245 108.643 206.751 110.096L206.102 109.758C205.71 109.044 205.856 109.128 205.952 108.161C206.097 104.113 207.218 80.3422 208.312 77.7367C208.695 77.0096 207.886 77.4559 209.024 76.4415Z"/><path fill="#1D3C1F" d="M196.66 101.902C197.382 102.097 197.466 101.982 197.821 102.493C197.597 103.77 199.121 107.298 199.914 108.368C201.661 110.011 202.152 110.454 204.499 111.175C205.395 111.387 206.015 111.439 206.626 112.117C207.217 113.114 207.131 114.588 207.174 115.787L206.808 115.445C206.067 116.207 206.349 118.749 206.17 120.044C205.989 118.102 206.012 116.283 206.013 114.34C202.7 113.053 199.362 112.317 198.064 108.532C197.415 106.533 196.426 103.979 196.66 101.902Z"/><path fill="#1D3C1F" d="M196.66 101.902L196.344 101.507C196.813 100.508 199.125 100.802 199.828 101.179C202.736 102.741 201.807 107.691 205.952 108.161C205.856 109.128 205.71 109.044 206.102 109.758L206.751 110.096L205.84 110.031C199.665 109.108 201.345 106.039 197.98 102.65L197.821 102.493C197.466 101.982 197.382 102.097 196.66 101.902Z"/><path fill="#195C2E" d="M193.961 33.3379C203.096 21.2884 207.756 29.9718 209.231 29.2496C218.604 24.6622 227.632 35.535 221.22 42.8392C220.387 43.722 219.318 44.8006 218.343 45.7675C219.731 48.0497 221.178 52.5652 222.385 55.1722C214.752 55.3551 212.47 56.7877 206.024 61.159C205.007 61.8489 200.596 66.2862 200.076 65.6112C198.268 63.2645 195.958 56.2773 195.069 53.5383C191.911 53.1782 189.877 53.168 187.135 51.4952C183.086 48.2911 183.476 44.0592 184.054 39.4389C187.869 34.5183 189.355 35.4123 193.961 33.3379Z"/><path fill="#223E22" d="M210.728 35.9782C210.794 43.7218 208.528 45.1447 201.788 47.5328C200.209 48.0921 196.181 52.0951 195.069 53.5383C191.911 53.1782 189.877 53.168 187.135 51.4952C187.899 50.5945 187.843 50.4009 189.129 50.2626C190.864 50.0761 192.993 50.3307 194.624 49.7263C196.493 49.0335 197.542 46.8561 199.164 45.7736C201.671 44.2029 205.165 44.6802 207.219 42.2054C208.892 40.1892 209.189 38.1038 210.728 35.9782Z"/><path fill="#1D3C1F" d="M215.082 47.4832C215.237 47.6221 215.253 47.6357 215.463 47.6726C218.074 48.1325 218.011 48.7947 219.229 50.8424L218.962 51.3139C217.491 49.9464 217.768 47.3382 214.644 48.2192L214.445 48.2769C212.28 48.8725 211.386 49.5856 208.649 50.1464C209.204 49.5094 213.975 47.8805 215.082 47.4832Z"/><defs><linearGradient id="gradient_2" gradientUnits="userSpaceOnUse" x1="345.42624" y1="49.416737" x2="333.17618" y2="48.47657"><stop offset="0" stop-color="#194927"/><stop offset="1" stop-color="#1F6434"/></linearGradient></defs><path fill="url(#gradient_2)" d="M341.006 70.3079C332.091 66.7794 331.348 38.6729 335.896 30.9516C337.028 29.0311 340.239 27.4377 342.426 28.3854C344.744 29.3963 343.555 34.2664 343.229 36.1892C341.689 42.2119 341.591 48.4352 341.601 54.6063C341.604 57.1571 341.386 61.7343 342.457 63.9134C343.562 66.1621 348.292 68.7623 342.444 70.3098C341.959 70.1677 341.517 70.2589 341.006 70.3079Z"/><path fill="#195C2E" d="M176.526 98.5245C178.838 98.4419 179.274 98.5977 181.192 99.8771C182.893 102.872 183.408 106.798 183.196 110.181C182.996 113.352 182.091 117.986 179.55 120.101C178.221 121.207 177.987 121.148 176.269 121.001C175.79 120.826 175.76 120.772 175.374 120.422C174.049 116.584 177.981 115.53 177.975 111.662C177.312 111.035 175.962 110.877 175.107 110.536C172.155 109.358 172.34 104.383 173.322 101.958C174.075 100.098 174.735 99.3377 176.526 98.5245Z"/><path fill="#195C2E" d="M341.006 70.3079C341.517 70.2589 341.959 70.1677 342.444 70.3098C342.861 70.8729 344.307 71.8804 344.928 72.3421C344.966 72.4237 345.004 72.5059 345.04 72.5887C347.133 77.3964 346.574 81.5081 341.512 83.711C335.118 81.2015 335.429 73.6742 341.006 70.3079Z"/><path fill="#E9ECE3" fill-opacity="0.015686275" d="M292.638 80.4329C292.73 81.4352 292.832 82.2891 292.764 83.3014C292.336 83.5151 292.437 83.432 291.827 83.2763L292.638 80.4329Z"/></svg>