<?xml version="1.0" encoding="utf-8" ?><svg xmlns="http://www.w3.org/2000/svg" xmlns:xlink="http://www.w3.org/1999/xlink" width="480" height="233" viewBox="0 0 480 233"><path d="M134.855 160.921C131.46 165.432 126.8 170.143 121.887 172.903C116.492 175.902 110.127 176.639 104.19 174.952C99.4965 173.614 95.5259 170.469 93.149 166.207C83.2089 148.244 102.398 113.922 121.778 108.755C124.562 108.013 126.999 108.592 129.703 109.375C132.626 111.377 133.496 111.904 135.316 115.156C139.267 122.591 135.672 134.851 128.25 139.097C126.37 140.172 124.385 139.885 122.309 139.647C120.226 138.873 119.832 138.277 118.582 136.509C120.917 133.381 124.302 130.983 126.579 127.561C128.302 124.972 132.163 118.51 129.886 115.532C128.547 115.077 126.799 114.633 125.674 115.887C120.216 118.678 110.764 129.245 108.573 134.946C104.947 139.935 101.486 154.57 102.819 159.972C108.359 182.302 125.636 165.318 133.076 154.562C138.356 146.929 139.846 134.806 150.229 132.765C170.335 128.814 170.191 150.606 164.137 163.331C170.779 158.927 169.327 155.616 171.579 148.755C172.246 146.726 174.237 143.431 175.427 141.549C175.478 141.514 176.954 139.85 177.091 139.692C178.99 137.514 179.878 136.665 182.281 135.16C186.802 132.889 191.691 130.832 196.666 133.238C201.729 135.966 203.399 140.419 200.869 145.961C199.741 148.432 195.488 150.634 193.054 147.383C192.68 146.884 194.421 144.667 194.954 144.071C196.948 141.845 198.313 137.961 193.815 138.151C191.286 138.391 187.568 142.879 186.033 145.157C181.726 151.545 179.238 160.552 180.75 168.285C187.505 175.599 197.128 167.159 199.696 160.234C200.688 157.559 201.279 154.866 202.004 152.118C202.91 148.778 203.848 145.446 204.816 142.124C205.651 139.23 206.349 135.953 208.581 133.786C209.77 132.632 210.903 132.598 212.412 132.175C214.804 133.676 215.7 134.164 217.497 136.343C217.678 139.265 217.182 141.195 216.001 143.819C214.359 147.469 206.901 169.375 211.149 170.817C212.567 170.523 213.734 168.467 214.599 167.383C220.011 160.603 218.304 151.361 220.688 143.456C221.294 141.445 221.885 135.639 223.613 134.727C226.724 133.085 231.637 136.534 233.166 139.237C232.848 144.265 230.289 149.975 229.107 155.199C229.68 154.674 230.248 153.627 230.647 152.878C234.925 144.829 243.157 125.106 254.942 134.808C255.762 135.542 256.235 137.447 255.984 138.46C253.533 148.363 247.814 157.734 247.971 168.26C247.983 169.074 247.989 170.209 248.63 170.808C248.928 170.877 249.27 171.02 249.52 170.866C254.933 167.537 255.121 160.249 256.407 154.859C257.16 151.788 257.794 149.765 259.05 146.771C262.764 137.919 270.677 129.355 281.129 133.041C283.718 133.954 285.533 136.599 286.483 139.265C287.657 136.265 287.729 134.919 291.229 134.927C293.487 135.737 295.802 136.693 296.955 138.992C297.43 142.706 295.285 147.08 294.042 150.612C292.938 153.823 291.944 157.07 291.064 160.349C290.415 162.735 288.209 169.822 291.694 170.681C296.936 169.443 299.245 153.273 303.747 152.897C304.94 153.261 305.613 153.355 306.238 154.362C306.409 157.04 299.819 169.523 297.472 171.935C295.759 173.689 293.86 176.01 291.175 175.999C281.06 175.953 280.856 169.853 280.576 162.075C274.5 171.007 267.577 180.04 257.372 168.892C255.148 172.602 251.931 176.359 247.112 175.865C234.152 174.537 238.385 158.57 240.309 150.162C240.97 147.275 242.584 144.359 242.991 141.36L243.006 141.247C237.13 148.736 232.132 161.084 228.885 169.932C227.979 171.507 227.465 176.385 225.882 177.179C222.55 178.849 218.95 172.469 217.999 170.682C211.566 178.368 204.93 177.812 200.404 168.521C197.263 171.746 194.706 174.029 190.231 175.316C181.856 177.725 172.267 174.712 169.718 165.574C167.439 167.133 164.622 167.633 161.969 168.079C159.01 171.261 155.22 175.398 150.714 175.846C139.445 176.967 136.352 170.055 134.855 160.921ZM268.811 168.446C276.011 162.507 280.724 153.13 282.185 143.943C282.583 141.444 281.869 138.389 279.059 137.736C278.457 137.901 277.748 138.116 277.188 138.387C271.823 140.98 261.865 165.556 266.958 168.654C267.831 168.786 267.971 168.722 268.811 168.446ZM156.722 161.139C157.561 161.57 158.39 161.975 159.176 162.499C160.795 157.713 162.679 152.682 162.74 147.585C162.798 142.691 162.284 136.842 156.131 136.559C150.535 137.56 148.232 144.456 149.134 149.482C149.891 153.703 153.116 158.721 156.722 161.139ZM153.252 169.521C154.189 168.783 155.167 167.973 156.172 167.342C148.594 163.695 146.183 154.397 145.386 153.902C142.866 159.935 143.856 176.941 153.252 169.521Z"/><path d="M161.008 91.2147C166.667 78.9211 178.489 57.6246 191.703 52.4687C193.923 51.6026 197.82 50.9854 200.052 52.014C201.095 52.4869 201.899 53.367 202.275 54.4487C202.728 55.7731 202.521 57.1397 202.196 58.464C201.334 61.9858 199.638 65.2947 198.324 68.6621C196.508 73.316 194.914 78.1995 193.665 83.0367C191.487 91.4642 190.48 97.8695 190.451 106.611C190.444 108.655 190.22 112.915 192.287 114.06C192.758 114.321 193.303 114.335 193.804 114.167C195.18 113.705 196.139 112.191 196.713 110.945C198.595 106.857 198.45 101.908 199.502 97.5675C200.422 93.7742 206.444 77.0448 209.826 75.7509C211.324 75.1782 213.217 75.5623 214.623 76.2248C216.014 76.8804 217.193 77.9849 217.702 79.4589C218.035 80.4216 218.017 81.3771 217.752 82.3494C216.918 85.4034 215.087 88.2409 213.808 91.1368C212.339 94.4605 205.283 111.159 208.057 113.648C211.167 114.198 215.562 107.047 216.651 104.616C216.95 104.273 218.346 101.957 218.645 101.473C222.225 95.7484 225.265 89.7031 227.724 83.4151C228.726 80.4211 230.117 76.2152 234.259 77.5909C236.944 78.4827 239.742 81.5692 239.409 84.5634C238.81 89.9431 235.157 95.0109 234.091 100.25C233.528 103.02 231.237 111.627 233.37 113.735C235.703 114.45 236.801 112.084 237.811 110.432C240.231 106.471 240.141 101.956 241.027 97.562C242.612 90.3816 246.9 81.9335 253.473 78.1157C257.24 75.9864 262.307 74.8097 266.536 75.8328C271.534 77.042 273.884 82.7452 272.403 87.3568C269.883 95.208 258.926 99.155 251.75 100.441C251.056 103.85 250.071 108.465 252.06 111.611C254.27 115.105 258.552 114.493 261.593 112.214C269.44 106.333 273.374 96.0992 278.496 87.9422C281.401 83.3158 286.456 69.4949 293.48 78.0672C293.776 78.4583 294.248 79.6143 294.414 80.1253C295.625 83.861 297.54 87.2349 299.042 90.8521C301.559 96.9116 304.916 102.182 303.167 108.949C303.146 109.029 303.124 109.11 303.103 109.19C302.039 111.653 301.698 112.491 299.846 114.443C293.466 121.165 278.767 120.507 278.152 109.213C278.372 107.16 277.929 104.772 278.989 102.874C279.884 101.27 282.952 100.924 284.341 101.873C287.281 103.879 282.486 108.007 283.563 110.794C284.161 112.339 285.001 113.126 286.428 113.971C288.726 115.253 292.132 114.122 293.229 111.725C295.684 106.362 291.861 99.4532 290.007 94.4884C288.774 91.1696 287.624 87.8209 286.555 84.4455C285.404 87.3966 283.946 89.9346 282.376 92.836C275.315 105.89 263.675 126.506 246.026 116.162C243.698 114.798 242.014 115.871 242.151 112.445C239.48 115.534 236.44 119.149 231.986 118.977C223.054 118.632 222.906 110.652 222.961 104.193C219.755 109.526 214.739 118.743 207.826 119.08C204.164 119.259 201.997 117.124 199.524 114.858C192.559 122.077 184.711 119.254 180.867 110.857C177.009 102.431 180.566 89.8791 182.381 81.1978C183.923 73.826 186.715 65.8228 189.644 58.7207C188.091 60.0903 185.992 61.9697 184.69 63.5281C177.979 69.9058 166.334 89.3297 163.577 98.0662C161.868 102.252 160.213 106.982 159.175 111.396C158.597 113.855 159.018 117.737 157.528 119.792C157.379 119.996 157.073 120.066 156.832 120.082C154.847 120.217 152.829 119.35 151.474 117.931C147.778 114.058 147.472 107.896 147.593 102.86C147.74 96.6809 148.604 90.3651 149.643 84.2721C150.243 80.748 155.452 58.7769 157.377 57.0473C158.271 56.2437 159.495 55.9127 160.677 56C162.939 56.1668 165.117 57.6296 166.561 59.3135C167.585 60.508 167.551 61.6357 167.289 63.1306C166.778 66.0419 165.21 68.6329 164.214 71.3912C162.041 77.4101 160.375 84.4582 159.922 90.8469C159.438 92.0711 159.203 94.3053 158.926 95.7127C160.144 94.0226 160.222 92.8087 161.008 91.2147ZM252.945 95.7332C253.932 95.2925 255.305 94.6291 256.307 94.3268C261.428 92.4165 265.058 89.3971 267.675 84.5233C269.23 81.6272 265.956 81.3924 264.067 81.5307C258.477 84.8135 255.818 90.106 252.945 95.7332Z"/><path d="M320.285 51.7866C329.774 52.1075 327.871 59.6018 324.521 65.0369C324.151 65.6371 323.738 66.6123 323.416 67.2557C325.457 67.4699 334.927 68.9159 331.945 72.4572C330.421 73.4971 323.909 72.6782 321.683 72.5226C318.772 80.0012 313.912 101.6 315.331 108.96C318.751 126.696 333.393 90.9889 334.731 88.6522C324.285 85.1569 324.474 74.6612 336.223 75.1944C341.779 75.4465 341.878 82.0117 341.182 86.4643C346.304 88.2054 351.125 88.275 356.522 90.5938C353.945 94.3731 344.613 110.166 348.089 114.202C350.957 115.289 355.584 106.74 355.701 104.549C356.071 97.6564 357.049 93.5639 360.295 87.3692C364.674 79.0105 372.27 72.2956 382.082 76.4832C384.722 77.627 385.811 80.8878 386.547 83.5571C387.407 80.2801 387.659 75.4454 392.483 78.0272C395.228 79.4966 396.268 80.8942 397.151 83.7779C396.607 86.6545 395.282 89.8637 394.342 92.6947C392.59 97.9721 390.968 102.75 390.078 108.254C389.745 110.173 389.123 112.809 391.093 113.892C395.695 114.014 399.216 99.4878 402.148 96.545C402.51 96.1822 403.511 95.6273 404.004 95.7736C408.243 97.0316 404.488 102.742 403.558 105.17C401.461 109.229 399.158 114.053 395.502 116.931C391.137 120.278 385.066 119.485 381.893 114.913C379.801 111.9 379.884 108.838 380.428 105.414C377.587 110.174 371.649 117.4 365.599 116.753C361.741 116.341 359.772 114.523 357.384 111.798C353.616 118.978 342.376 122.852 338.971 113.353C336.559 106.625 340.964 97.9144 344.117 91.8778C342.38 91.3372 340.889 90.8701 339.204 90.1941L339.168 90.3271C336.891 98.635 330.455 112.168 322.965 116.86C317.804 120.093 309.882 117.889 307.26 112.258C302.099 101.174 307.589 82.9321 310.936 71.925C309.125 72.0366 306.679 72.0697 304.831 72.1023C302.276 72.1473 296.457 74.0368 294.845 72.0911C294.614 71.5181 294.508 71.0814 294.64 70.4578C296.492 61.7066 306.448 64.528 312.937 65.5775C313.966 62.2328 315.417 57.8836 316.859 54.6881C317.621 52.9975 318.583 52.3 320.285 51.7866ZM377.597 81.3642C372.801 84.3287 366.537 97.9489 366.066 103.482C365.723 104.636 363.909 111.84 367.408 111.72C374.244 111.486 389.819 79.7742 377.597 81.3642ZM335.387 84.9736C336.599 83.9535 337.221 79.1588 333.544 79.0232C333.444 79.0194 333.343 79.0177 333.243 79.0182C330.799 81.3015 333.395 83.6698 335.387 84.9736Z"/><path d="M312.081 150.238C320.576 149.269 332.298 151.279 340.687 148.966C347.132 147.081 351.246 141.61 357.967 140.288C369.191 138.036 381.048 139.617 392.224 141.461C394.989 141.917 405.428 143.993 406.051 146.909C405.694 147.324 404.959 147.519 404.435 147.518C399.848 147.507 395.442 147.686 390.862 148.005C390.116 147.993 389.346 147.902 388.691 148.224C389.427 148.996 392.472 148.975 393.498 148.775L393.569 149.746C393.39 150.024 393.306 150.017 392.996 150.192C391.395 150.266 387.111 150.815 386.424 149.266C386.568 148.77 386.701 148.477 386.554 147.961C382.244 147.909 379.569 148.356 375.311 148.857C373.581 148.9 367.847 148.807 366.716 149.446C367.545 149.848 373.132 149.748 374.381 149.736C377.38 150.195 384.564 150.402 386.5 150.871C387.55 151.105 393.059 151.751 393.962 151.647C396.819 152.074 404.978 152.494 406.539 154.019C406.558 157.012 386.503 157.011 383.133 157.665C379.484 157.992 375.832 158.285 372.178 158.543C369.836 158.542 366.928 158.612 364.644 159.053L364.482 159.234C367.282 159.676 369.002 159.678 371.84 159.607C374.771 159.698 377.698 159.875 380.619 160.137C388.785 160.696 397.195 161.097 405.371 161.719C406.059 161.771 406.26 162.006 406.468 162.591C406.379 162.887 406.233 163.104 405.997 163.301C400.933 167.525 372.712 169.344 365.186 168.891C361.784 168.686 358.509 168.064 355.293 166.931C349.03 164.726 345 159.083 339.036 157.861C330.115 156.032 321.064 157.932 312.099 156.975C311.964 154.773 312.044 152.452 312.081 150.238Z"/><path d="M111.856 89.3585C114.021 89.1418 118.11 89.4384 120.37 89.4857C127.498 89.6348 134.544 90.2405 141.64 90.8763C141.478 94.6865 141.628 98.9641 141.687 102.813C140.318 102.765 136.755 103.248 135.182 103.41C129.939 103.951 125.481 104.502 120.187 104.462C112.462 104.508 104.299 104.861 96.6865 103.272C93.0783 102.519 87.5718 97.4658 91.2418 94.0151C95.9042 89.6313 105.659 89.6275 111.856 89.3585Z"/><path d="M312.115 160.77C316.218 160.436 319.833 163.449 320.244 167.545C320.655 171.642 317.709 175.313 313.621 175.8C310.908 176.123 308.232 174.956 306.623 172.747C305.014 170.539 304.723 167.634 305.861 165.151C307 162.667 309.391 160.992 312.115 160.77ZM314.82 169.518C315.603 170.17 316.406 170.793 317.065 171.57C317.428 169.514 318.021 166.58 316.538 164.889C312.21 159.958 304.583 166.401 308.909 171.671C309.456 172.338 310.41 173.001 311.293 173.063C312.146 173.093 313.838 173.082 314.593 172.721C314.582 172.516 314.278 172.367 314.038 172.221C313.154 171.684 312.905 170.989 312.438 170.066C312.037 170.245 311.998 171.384 311.549 172.316L311.465 172.488C309.07 171.949 309.608 171.007 309.468 168.98C309.202 165.101 309.922 163.511 314.24 164.334C314.919 164.463 315.784 165.137 316.121 165.814C316.403 166.37 316.437 167.02 316.213 167.602C316.027 168.096 315.195 169.076 314.82 169.518Z"/><path fill="#C3C1BD" fill-opacity="0.97647059" d="M311.293 173.063C310.41 173.001 309.456 172.338 308.909 171.671C304.583 166.401 312.21 159.958 316.538 164.889C318.021 166.58 317.428 169.514 317.065 171.57C316.406 170.793 315.603 170.17 314.82 169.518C315.195 169.076 316.027 168.096 316.213 167.602C316.437 167.02 316.403 166.37 316.121 165.814C315.784 165.137 314.919 164.463 314.24 164.334C309.922 163.511 309.202 165.101 309.468 168.98C309.608 171.007 309.07 171.949 311.465 172.488L311.293 173.063Z"/><path fill="#F4F2EE" fill-opacity="0.011764706" d="M311.465 172.488L311.549 172.316C311.998 171.384 312.037 170.245 312.438 170.066C312.905 170.989 313.154 171.684 314.038 172.221C314.278 172.367 314.582 172.516 314.593 172.721C313.838 173.082 312.146 173.093 311.293 173.063L311.465 172.488Z"/><path d="M217.928 119.078C218.805 119.139 219.697 119.174 220.475 119.608C221.651 120.25 222.504 121.356 222.828 122.656C223.813 126.506 221.255 129.755 217.579 130.725C215.813 130.422 215.212 129.967 213.718 129.04C213.036 127.656 212.84 127.058 212.397 125.589C213.395 121.672 213.639 119.852 217.928 119.078Z"/><defs><linearGradient id="gradient_0" gradientUnits="userSpaceOnUse" x1="384.30304" y1="162.08423" x2="373.13455" y2="155.83073"><stop offset="0" stop-color="#F1F1F0" stop-opacity="0"/><stop offset="1" stop-color="#CDC8CA" stop-opacity="0.0078431377"/></linearGradient></defs><path fill="url(#gradient_0)" d="M372.178 158.543C375.832 158.285 379.484 157.992 383.133 157.665L384.619 158.289C385.104 159.612 384.456 159.168 385.521 159.746C383.672 159.907 382.339 159.538 380.619 160.137C377.698 159.875 374.771 159.698 371.84 159.607C371.24 159.581 370.857 159.641 370.406 159.272C370.828 158.736 371.466 158.704 372.178 158.543Z"/><path fill="#C3C1BD" fill-opacity="0.98823529" d="M386.554 147.961C386.701 148.477 386.568 148.77 386.424 149.266C387.111 150.815 391.395 150.266 392.996 150.192C393.306 150.017 393.39 150.024 393.569 149.746C393.701 150.369 393.664 150.49 393.55 151.121C393.637 151.239 393.868 151.57 393.962 151.647C393.059 151.751 387.55 151.105 386.5 150.871C386.318 149.654 386.189 149.164 386.554 147.961Z"/><defs><linearGradient id="gradient_1" gradientUnits="userSpaceOnUse" x1="161.16264" y1="90.546082" x2="159.81488" y2="90.323868"><stop offset="0" stop-color="#EDEBED" stop-opacity="0"/><stop offset="1" stop-color="#D9D7D9" stop-opacity="0.027450981"/></linearGradient></defs><path fill="url(#gradient_1)" d="M159.922 90.8469L160.174 91.0923C160.581 89.7103 160.669 87.2162 160.987 86.4857C162.131 87.2459 160.906 90.0693 161.008 91.2147C160.222 92.8087 160.144 94.0226 158.926 95.7127C159.203 94.3053 159.438 92.0711 159.922 90.8469Z"/><path fill="#C3C1BD" fill-opacity="0.094117649" d="M374.381 149.736C373.132 149.748 367.545 149.848 366.716 149.446C367.847 148.807 373.581 148.9 375.311 148.857L375.533 149.287L376.267 149.379L374.381 149.736Z"/><path fill="#C3C1BD" fill-opacity="0.98431373" d="M371.84 159.607C369.002 159.678 367.282 159.676 364.482 159.234L364.644 159.053C366.928 158.612 369.836 158.542 372.178 158.543C371.466 158.704 370.828 158.736 370.406 159.272C370.857 159.641 371.24 159.581 371.84 159.607Z"/><path d="M401.883 149.132L402.437 149.044L402.665 149.314C402.626 149.338 398.872 150.745 398.871 150.746L398.651 150.414C397.839 150.201 397.364 150.129 396.688 149.626L396.76 149.349C397.822 149.095 400.577 149.175 401.883 149.132Z"/><path fill="#F4F2EE" fill-opacity="0.027450981" d="M393.498 148.775C392.472 148.975 389.427 148.996 388.691 148.224C389.346 147.902 390.116 147.993 390.862 148.005L391.251 148.355C392.359 148.26 392.439 148.081 393.319 148.483L393.498 148.775Z"/><path d="M393.437 158.036C394.881 158.279 396.761 158.457 397.347 159.842C395.994 159.449 394.029 159.345 393.437 158.036Z"/><path d="M305.046 162.419L305.437 162.495C305.339 163.302 304.336 165.031 303.912 165.844C303.556 164.825 304.562 163.358 305.046 162.419Z"/></svg>